SplineFontDB: 3.2
FontName: AtkinsonHyperPro-Italic
FullName: Atkinson Hyperlegible Pro Italic
FamilyName: Atkinson Hyperlegible Pro
Weight: Regular
Copyright: Copyright 2020 Braille Institute of America, Inc.
UComments: "Update by Jacob Perez+AAoA-https://jacobxperez.github.io/atkinson-hyperlegible-pro/"
Version: 1.3.2
ItalicAngle: -12
UnderlinePosition: -106
UnderlineWidth: 57
Ascent: 800
Descent: 200
InvalidEm: 0
sfntRevision: 0x00010000
LayerCount: 2
Layer: 0 0 "Back" 1
Layer: 1 0 "Fore" 0
XUID: [1021 466 782043844 3810]
StyleMap: 0x0001
FSType: 0
OS2Version: 4
OS2_WeightWidthSlopeOnly: 0
OS2_UseTypoMetrics: 1
CreationTime: 1618935638
ModificationTime: 1697755905
PfmFamily: 81
TTFWeight: 400
TTFWidth: 5
LineGap: 0
VLineGap: 0
Panose: 0 0 0 0 0 0 0 0 0 0
OS2TypoAscent: 950
OS2TypoAOffset: 0
OS2TypoDescent: -290
OS2TypoDOffset: 0
OS2TypoLinegap: 0
OS2WinAscent: 950
OS2WinAOffset: 0
OS2WinDescent: 290
OS2WinDOffset: 0
HheadAscent: 950
HheadAOffset: 0
HheadDescent: -290
HheadDOffset: 0
OS2SubXSize: 650
OS2SubYSize: 699
OS2SubXOff: 0
OS2SubYOff: 140
OS2SupXSize: 650
OS2SupYSize: 699
OS2SupXOff: 0
OS2SupYOff: 479
OS2StrikeYSize: 49
OS2StrikeYPos: 258
OS2CapHeight: 668
OS2XHeight: 496
OS2Vendor: 'NONE'
OS2CodePages: 20000003.00000000
OS2UnicodeRanges: 800000ef.0000204b.00000000.00000000
Lookup: 4 0 1 "'liga' Standard Ligatures lookup 0" { "'liga' Standard Ligatures lookup 0-1"  } ['liga' ('DFLT' <'dflt' > 'grek' <'dflt' > 'latn' <'MOL ' 'dflt' > ) ]
Lookup: 1 0 0 "'zero' Slashed Zero lookup 0" { "'zero' Slashed Zero lookup 0-1"  } ['zero' ('DFLT' <'dflt' > 'grek' <'dflt' > 'latn' <'MOL ' 'dflt' > ) ]
Lookup: 1 0 0 "'aalt' Access All Alternates lookup 0" { "'aalt' Access All Alternates lookup 0 subtable"  } ['aalt' ('DFLT' <'dflt' > 'grek' <'dflt' > 'latn' <'dflt' > ) ]
Lookup: 3 0 0 "'aalt' Access All Alternates lookup 1" { "'aalt' Access All Alternates lookup 1 subtable"  } ['aalt' ('DFLT' <'dflt' > 'grek' <'dflt' > 'latn' <'dflt' > ) ]

StartChar: .notdef
Encoding: 256 -1 0
Width: 523
GlyphClass: 1
Flags: W
HStem: 0 21<77 447> 680 20<76 447>
VStem: 48 21<49 650> 455 20<47 652>
DStem2: 76 680 69 650 0.513698 -0.857971<22.1432 360.147 396.696 737.787> 69 49 77 21 0.513896 0.857853<0 339.381 374.897 715.649>
LayerCount: 2
Fore
SplineSet
77 21 m 1
 447 21 l 1
 262 329 l 1
 77 21 l 1
69 49 m 1
 249 350 l 1
 69 650 l 1
 69 49 l 1
455 47 m 1
 455 652 l 1
 274 350 l 1
 455 47 l 1
261 371 m 1
 447 680 l 1
 76 680 l 1
 261 371 l 1
48 0 m 1
 48 700 l 1
 475 700 l 1
 475 0 l 1
 48 0 l 1
EndSplineSet
EndChar

StartChar: zero
Encoding: 48 48 5
Width: 654
GlyphClass: 1
Flags: W
HStem: -12 75<224.087 385.051> 605 75<287 448.677>
VStem: 66 92<137.714 417.845> 514 92<248.777 529.814>
DStem2: 270 574 211 503 0.437417 -0.899259<38.0398 446.798>
LayerCount: 2
Fore
SplineSet
158 257 m 0
 158 154.598805658 189.454359622 63 302 63 c 0
 343.333333333 63 378.666666667 74.6666666667 408 98 c 1
 211 503 l 1
 167.642020788 425.919148068 158 303.828702135 158 257 c 0
465 172 m 1
 472.719565685 187.921604226 514 279.221375168 514 411 c 0
 514 469.744348867 502.605200422 536.411347999 459 576.5 c 0
 438.333333333 595.5 408.333333333 605 369 605 c 0
 331 605 298 594.666666667 270 574 c 1
 465 172 l 1
606 417 m 0
 606 365.846227465 595.753496089 -12 293 -12 c 0
 199.731559637 -12 66 27.0485497693 66 251 c 0
 66 302.970232472 76.393386864 680 378 680 c 0
 479.324053529 680 606 636.170935408 606 417 c 0
EndSplineSet
Substitution2: "'zero' Slashed Zero lookup 0-1" zero.alt1
Substitution2: "'aalt' Access All Alternates lookup 0 subtable" zero.alt1
Substitution2: "'tnum' Tabular Numbers lookup 14 subtable" zero.tf
EndChar

StartChar: one
Encoding: 49 49 6
Width: 403
GlyphClass: 1
Flags: W
HStem: 0 21G<158 247.251> 503 68<101 244.446> 648 20G<306.819 385>
VStem: 158 85<0 85> 327 58<636.736 668>
DStem2: 158 0 243 0 0.207912 0.978148<17.6725 514.255>
LayerCount: 2
Fore
SplineSet
101 571 m 1
 193.061666792 571 286.63757622 584.392122171 327 668 c 1
 385 668 l 1
 243 0 l 1
 158 0 l 1
 265 503 l 1
 87 503 l 1
 101 571 l 1
EndSplineSet
Substitution2: "'tnum' Tabular Numbers lookup 14 subtable" one.tf
Substitution2: "'sups' Superscript lookup 9 subtable" uni00B9
AlternateSubs2: "'aalt' Access All Alternates lookup 1 subtable" uni00B9 one.tf
EndChar

StartChar: two
Encoding: 50 50 7
Width: 565
GlyphClass: 1
Flags: W
HStem: 0 77<131 463> 498 21G<109 183> 610 70<252.613 411.548>
VStem: 455 93<420.805 565.871>
LayerCount: 2
Fore
SplineSet
548 510 m 0
 548 394.757324381 474.492155793 267.82897544 131 77 c 1
 479 77 l 1
 463 0 l 1
 -18 0 l 1
 -2 76 l 1
 253.269273206 219.588966179 455 358.177285326 455 501 c 0
 455 590.24959026 376.529415116 610 341 610 c 0
 310.333333333 610 279.333333333 602.166666667 248 586.5 c 0
 216.666666667 570.833333333 192 541.333333333 174 498 c 1
 96 522 l 1
 143.333333333 627.333333333 226 680 344 680 c 0
 380.669492095 680 548 671.170093525 548 510 c 0
EndSplineSet
Substitution2: "'tnum' Tabular Numbers lookup 14 subtable" two.tf
Substitution2: "'sups' Superscript lookup 9 subtable" uni00B2
AlternateSubs2: "'aalt' Access All Alternates lookup 1 subtable" uni00B2 two.tf
EndChar

StartChar: three
Encoding: 51 51 8
Width: 580
GlyphClass: 1
Flags: W
HStem: -12 70<178.231 347.272> 315 75<230 350.922> 498 21G<106.6 187.667> 610 70<236.736 402.195>
VStem: 32 86<118.875 159.872> 416 89<118.444 262.019> 446 92<440.543 566.57>
LayerCount: 2
Fore
SplineSet
505 198 m 0xfc
 505 117.781679143 450.107444417 -12 259 -12 c 0
 191.666666667 -12 139.166666667 4.16666666667 101.5 36.5 c 0
 63.8333333333 68.8333333333 40.6666666667 109.333333333 32 158 c 1
 118 181 l 1
 124.288185588 137.768724084 150.81988136 58 261 58 c 0
 341.861067851 58 416 106.653015314 416 187 c 0xfc
 416 283.880507981 349.863983945 315 214 315 c 1
 230 390 l 1
 379.464771524 390 446 418.4130631 446 506 c 0
 446 602.682198012 342.718234479 610 318 610 c 0
 292.370039683 610 206.333333333 610 169 498 c 1
 91 523 l 1
 103.070426251 563.234754171 152.764654386 680 323 680 c 0
 359.442465175 680 538 672.232633685 538 520 c 0xfa
 538 468.74057171 518.682759718 385.560919906 403 347 c 1
 426.920312914 339.164035425 505 313.586206897 505 198 c 0xfc
EndSplineSet
Substitution2: "'tnum' Tabular Numbers lookup 14 subtable" three.tf
Substitution2: "'sups' Superscript lookup 9 subtable" uni00B3
AlternateSubs2: "'aalt' Access All Alternates lookup 1 subtable" uni00B3 three.tf
EndChar

StartChar: four
Encoding: 52 52 9
Width: 636
GlyphClass: 1
Flags: W
HStem: 0 21G<320 411.242> 165 79<127 356 459 566> 648 20G<441.811 549>
VStem: 320 87<0 87>
DStem2: 34 244 127 244 0.710419 0.703779<66.0689 503.773> 320 0 407 0 0.207912 0.978148<18.0883 168.879 267.568 564.471>
LayerCount: 2
Fore
SplineSet
127 244 m 1
 372 244 l 1
 438 552 l 1
 127 244 l 1
320 0 m 1
 356 165 l 1
 17 165 l 1
 34 244 l 1
 462 668 l 1
 549 668 l 1
 459 244 l 1
 583 244 l 1
 566 165 l 1
 442 165 l 1
 407 0 l 1
 320 0 l 1
EndSplineSet
Substitution2: "'tnum' Tabular Numbers lookup 14 subtable" four.tf
Substitution2: "'sups' Superscript lookup 9 subtable" uni2074
AlternateSubs2: "'aalt' Access All Alternates lookup 1 subtable" four.tf uni2074
EndChar

StartChar: five
Encoding: 53 53 10
Width: 575
GlyphClass: 1
Flags: W
HStem: -12 72<171.213 329.727> 377 73<206.619 357.274> 587 81<229 543>
VStem: 25 83<124.934 155.94> 410 91<141.605 323.465>
DStem2: 63 329 166 400 0.316228 0.948683<1.89737 41.4205 99.928 297.254>
LayerCount: 2
Fore
SplineSet
501 247 m 0
 501 93.5898058233 399.435252188 -12 252 -12 c 0
 186 -12 134.5 3.83333333333 97.5 35.5 c 0
 60.5 67.1666666667 36.3333333333 106.666666667 25 154 c 1
 108 177 l 1
 114.981152144 151.257001471 139.153475667 64.1978173197 242 60 c 0
 348.285703383 57.2393323797 410 131.451053127 410 238 c 0
 410 292.352222095 391.188615122 377 274 377 c 0
 246.896165764 377 179.148243229 370.07641492 141 305 c 1
 63 329 l 1
 176 668 l 1
 561 668 l 1
 543 587 l 1
 229 587 l 1
 166 400 l 1
 202 433.333333333 247 450 301 450 c 0
 390.603431386 450 501 390.789734499 501 247 c 0
EndSplineSet
Substitution2: "'tnum' Tabular Numbers lookup 14 subtable" five.tf
Substitution2: "'aalt' Access All Alternates lookup 0 subtable" five.tf
EndChar

StartChar: six
Encoding: 54 54 11
Width: 605
GlyphClass: 1
Flags: W
HStem: -12 70<211.844 364.55> 370 75<237.057 388.069> 610 70<288.215 436.167>
VStem: 62 89<121.686 345.352> 444 90<141.037 313.676>
LayerCount: 2
Fore
SplineSet
151 205 m 0
 151 133.982798668 193.028946975 58 284 58 c 0
 380.80658395 58 444 134.177879544 444 232 c 0
 444 256.605028745 437.105287407 370 310 370 c 0
 218.556264834 370 151 306.869277231 151 205 c 0
534 240 m 0
 534 124.497079921 462.672236933 -12 281 -12 c 0
 191.531019636 -12 62 24.8133041292 62 238 c 0
 62 455.451978376 166.192879565 680 372 680 c 0
 422 680 462 669.666666667 492 649 c 0
 522 628.333333333 542.333333333 603 553 573 c 1
 465 548 l 1
 452.456566326 581.069052413 424.03983673 610 363 610 c 0
 245.092989379 610 185.71875134 485.882820207 164 361 c 1
 182.364178859 388.178984712 233.063579056 445 336 445 c 0
 453.411238875 445 534 362.463474403 534 240 c 0
EndSplineSet
Substitution2: "'tnum' Tabular Numbers lookup 14 subtable" six.tf
Substitution2: "'aalt' Access All Alternates lookup 0 subtable" six.tf
EndChar

StartChar: seven
Encoding: 55 55 12
Width: 537
GlyphClass: 1
Flags: W
HStem: 0 21G<31 153.003> 587 81<96 445>
VStem: 31 108<0 108>
DStem2: 31 0 139 0 0.576355 0.817199<62.2464 718.307>
LayerCount: 2
Fore
SplineSet
31 0 m 1
 445 587 l 1
 78 587 l 1
 96 668 l 1
 567 668 l 1
 550 587 l 1
 139 0 l 1
 31 0 l 1
EndSplineSet
Substitution2: "'tnum' Tabular Numbers lookup 14 subtable" seven.tf
Substitution2: "'aalt' Access All Alternates lookup 0 subtable" seven.tf
EndChar

StartChar: eight
Encoding: 56 56 13
Width: 617
GlyphClass: 1
Flags: W
HStem: -12 75<180.506 370.641> 317 74<246.279 373.763> 605 75<264.621 392.069>
VStem: 38 91<111.136 249.561> 137 74<425.845 553.305> 427 74<443.778 570.182> 444 90<128.744 268.928>
LayerCount: 2
Fore
SplineSet
129 174 m 0xfa
 129 149.310240058 138.677448244 63 274 63 c 0
 366.127109614 63 444 109.27378795 444 203 c 0
 444 272.147697334 392.286872089 317 299 317 c 0
 249.666666667 317 209 304 177 278 c 0
 145 252 129 217.333333333 129 174 c 0xfa
211 487 m 0
 211 434.494928582 250.549332414 391 307 391 c 0
 372.523307564 391 427 446.401065908 427 509 c 0xfc
 427 563.902357466 385.701065295 605 329 605 c 0
 269.689114279 605 211 555.641390698 211 487 c 0
534 212 m 0xfa
 534 58.1375988648 398.529725422 -12 266 -12 c 0
 148.02716592 -12 38 42.2681499011 38 166 c 0
 38 215.333333333 51.5 257 78.5 291 c 0
 105.5 325 139.666666667 349.666666667 181 365 c 1
 151.666666667 395.666666667 137 433.666666667 137 479 c 0
 137 588.570814802 231.122161883 680 338 680 c 0
 431.776820542 680 501 608.947380387 501 516 c 0xfc
 501 489.339577389 494.134794317 420.265886087 429 365 c 1
 466.042995859 350.337147472 534 310.072788179 534 212 c 0xfa
EndSplineSet
Substitution2: "'tnum' Tabular Numbers lookup 14 subtable" eight.tf
Substitution2: "'aalt' Access All Alternates lookup 0 subtable" eight.tf
EndChar

StartChar: nine
Encoding: 57 57 14
Width: 601
GlyphClass: 1
Flags: W
HStem: 0 21G<151 267.578> 209 79<238.142 332.74> 596 84<270.515 431.327>
VStem: 92 87<347.207 507.997> 151 116<0 116> 487 87<386.828 540.636>
DStem2: 151 0 267 0 0.657239 0.753682<76.2398 279.959>
LayerCount: 2
Fore
SplineSet
179 423 m 0xf4
 179 346.372256591 232.778488365 288 312 288 c 0
 413.892023619 288 487 380.767876073 487 467 c 0
 487 505.851173895 465.193400712 596 353 596 c 0
 269.285573107 596 179 534.55684173 179 423 c 0xf4
359 680 m 0
 487.765648996 680 574 583.833692046 574 468 c 0
 574 403.143529801 563.144370596 360.07599934 383.5 139.5 c 0
 341.032164488 87.3559488021 268.155388095 1.40297125791 267 0 c 2
 151 0 l 1xec
 335 211 l 1
 329.211757181 210.276469648 317.04328201 209 302 209 c 0
 153.069040314 209 92 320.370101129 92 416 c 0
 92 562.837103833 209.96532972 680 359 680 c 0
EndSplineSet
Substitution2: "'tnum' Tabular Numbers lookup 14 subtable" nine.tf
Substitution2: "'aalt' Access All Alternates lookup 0 subtable" nine.tf
EndChar

StartChar: A
Encoding: 65 65 15
Width: 627
GlyphClass: 2
Flags: W
HStem: 0 21G<-52 67.3699 459.123 565> 146 80<184 430> 648 20G<328.263 459.263>
VStem: 462 103<0 103>
DStem2: -52 0 56 0 0.506117 0.862465<54.6606 222.588>
AnchorPoint: "Anchor-2" 565 0 basechar 0
AnchorPoint: "Anchor-1" 387 668 basechar 0
AnchorPoint: "Anchor-0" 261 0 basechar 0
LayerCount: 2
Fore
SplineSet
184 226 m 1
 430 226 l 1
 381 573 l 1
 184 226 l 1
-52 0 m 1
 340 668 l 1
 456 668 l 1
 565 0 l 1
 462 0 l 1
 441 146 l 1
 139 146 l 1
 56 0 l 1
 -52 0 l 1
EndSplineSet
Substitution2: "Single Substitution lookup 12 subtable" ordfeminine
Substitution2: "'aalt' Access All Alternates lookup 0 subtable" ordfeminine
EndChar

StartChar: B
Encoding: 66 66 16
Width: 625
GlyphClass: 1
Flags: W
HStem: 0 79<127 390.681> 308 74<192 430.137> 588 80<235 471.69>
VStem: 468 104<148.281 271.582> 504 100<436.601 557.218>
DStem2: 14 0 110.208 0 0.207912 0.978148<100.768 334.951 410.661 621.099>
AnchorPoint: "Anchor-1" 342 668 basechar 0
LayerCount: 2
Fore
SplineSet
468 213 m 0xf0
 468 230.469113188 461.600732131 308 348 308 c 2
 176 308 l 1
 127 79 l 1
 308 79 l 2
 422.107735013 79 468 162.797292097 468 213 c 0xf0
504 499 m 0xe8
 504 510.563317301 500.257325473 588 400 588 c 2
 235 588 l 1
 192 382 l 1
 364 382 l 2
 468.916713522 382 504 455.715583325 504 499 c 0xe8
572 221 m 0xf0
 572 129.868516975 496.08493057 0 300 0 c 2
 14 0 l 1
 156 668 l 1
 407 668 l 2
 464.680065423 668 544.226050086 655.200060574 583 591.5 c 0
 597 568.5 604 544 604 518 c 0xe8
 604 498.913586554 598.491447495 402.371029194 490 352 c 1
 513.375996948 342.877659728 572 311.026493791 572 221 c 0xf0
EndSplineSet
EndChar

StartChar: C
Encoding: 67 67 17
Width: 661
GlyphClass: 2
Flags: W
HStem: -12 79<239.53 425.73> 498 21G<560.558 625.333> 600 80<320.459 501.934>
VStem: 53 96<167.921 401.286>
AnchorPoint: "Anchor-1" 420 668 basechar 0
AnchorPoint: "Anchor-0" 295 0 basechar 0
LayerCount: 2
Fore
SplineSet
595 140 m 1
 552.829287735 71.8090610183 469.558539332 -12 315 -12 c 0
 88.486180832 -12 53 170.192105371 53 263 c 0
 53 479.510206034 199.311874361 680 421 680 c 0
 499.079093337 680 614.844308495 656.83284358 655 528 c 1
 566 498 l 1
 555.115502498 532.014054693 519.75717762 600 411 600 c 0
 243.232824547 600 149 424.508747225 149 272 c 0
 149 150.587026677 217.524736538 67 325 67 c 0
 404.197459559 67 464.194521623 93.2917824346 516 171 c 1
 595 140 l 1
EndSplineSet
EndChar

StartChar: D
Encoding: 68 68 18
Width: 674
GlyphClass: 2
Flags: W
HStem: 0 79<127 350.588> 588 80<235 449.581>
DStem2: 14 0 110.208 0 0.207912 0.978148<100.768 621.099>
AnchorPoint: "Anchor-1" 378 668 basechar 0
AnchorPoint: "Anchor-0" 285 0 basechar 0
LayerCount: 2
Fore
SplineSet
127 79 m 1
 213 79 l 2
 359.473726135 79 504.05392444 131.193808272 536 325 c 0
 566.252100335 502.731089469 511.232522735 588 320 588 c 2
 235 588 l 1
 127 79 l 1
14 0 m 1
 156 668 l 1
 340 668 l 2
 531.071485123 668 676.646342511 594.452066874 631 319 c 0
 613.182484962 213.08477172 535.521430396 0 199 0 c 2
 14 0 l 1
EndSplineSet
EndChar

StartChar: E
Encoding: 69 69 19
Width: 565
GlyphClass: 2
Flags: W
HStem: 0 81<127 469> 304 80<192 439> 587 81<235 594>
DStem2: 14 0 109.783 0 0.207912 0.978148<102.724 330.831 412.617 620.121>
AnchorPoint: "Anchor-2" 438 0 basechar 0
AnchorPoint: "Anchor-1" 380 668 basechar 0
AnchorPoint: "Anchor-0" 230 0 basechar 0
LayerCount: 2
Fore
SplineSet
14 0 m 1
 156 668 l 1
 611 668 l 1
 594 587 l 1
 235 587 l 1
 192 384 l 1
 457 384 l 1
 439 304 l 1
 175 304 l 1
 127 81 l 1
 486 81 l 1
 469 0 l 1
 14 0 l 1
EndSplineSet
EndChar

StartChar: F
Encoding: 70 70 20
Width: 546
GlyphClass: 1
Flags: W
HStem: 0 21G<14 114.276> 304 80<192 514> 587 81<235 574>
VStem: 14 96<0 96>
DStem2: 14 0 110 0 0.207912 0.978148<19.9595 330.831 412.617 620.121>
AnchorPoint: "Anchor-1" 374 668 basechar 0
LayerCount: 2
Fore
SplineSet
14 0 m 1
 156 668 l 1
 592 668 l 1
 574 587 l 1
 235 587 l 1
 192 384 l 1
 531 384 l 1
 514 304 l 1
 175 304 l 1
 110 0 l 1
 14 0 l 1
EndSplineSet
EndChar

StartChar: G
Encoding: 71 71 21
Width: 712
GlyphClass: 2
Flags: W
HStem: 0 21G<523.537 585.302> 264 80<368 547> 498 21G<562.667 625.333> 600 80<315.169 502.705>
VStem: 54 96<162.89 399.317> 525 56<0 32.5405>
DStem2: 487.798 -12 579.33 -12 0.207912 0.978148<155.248 282.278>
AnchorPoint: "Anchor-1" 445 668 basechar 0
AnchorPoint: "Anchor-0" 303 0 basechar 0
LayerCount: 2
Fore
SplineSet
411 600 m 0
 241.359699179 600 150 426.827085254 150 273 c 0
 150 82.7878637493 293.567532752 39.7065946146 412 80.5 c 0
 459.826071444 96.9734246086 517.490508989 138.834663205 542 243 c 2
 547 264 l 1
 351 264 l 1
 368 344 l 1
 655 344 l 1
 581 0 l 1
 525 0 l 1
 519 82 l 1
 463 19.3333333333 390 -12 300 -12 c 0
 134.582348199 -12 54 111.190711295 54 265 c 0
 54 487.563210032 201.593697428 680 418 680 c 0
 508.456495021 680 618.950238448 652.535539906 655 528 c 1
 566 498 l 1
 559.333333333 523.333333333 543.333333333 546.666666667 518 568 c 0
 492.666666667 589.333333333 457 600 411 600 c 0
EndSplineSet
EndChar

StartChar: H
Encoding: 72 72 22
Width: 694
GlyphClass: 1
Flags: W
HStem: 0 21G<14 114.276 460 560.251> 304 80<192 524> 648 20G<151.749 252 597.775 698>
VStem: 14 96<0 96> 156 96<572 668> 460 96<0 96> 602 96<572 668>
DStem2: 14 0 110 0 0.207912 0.978148<19.9595 330.831 412.617 682.926> 460 0 556 0 0.207912 0.978148<19.9595 310.663 392.657 682.926>
AnchorPoint: "Anchor-1" 417 668 basechar 0
LayerCount: 2
Fore
SplineSet
14 0 m 1
 156 668 l 1
 252 668 l 1
 192 384 l 1
 542 384 l 1
 602 668 l 1
 698 668 l 1
 556 0 l 1
 460 0 l 1
 524 304 l 1
 175 304 l 1
 110 0 l 1
 14 0 l 1
EndSplineSet
EndChar

StartChar: I
Encoding: 73 73 23
Width: 414
GlyphClass: 2
Flags: W
HStem: 0 75<20 113 209 285> 593 75<146 223 318 412>
DStem2: 97.0583 0 193.058 0 0.207912 0.978148<96.6351 606.226>
AnchorPoint: "Anchor-2" 196 0 basechar 0
AnchorPoint: "Anchor-1" 287 668 basechar 0
AnchorPoint: "Anchor-0" 150 0 basechar 0
LayerCount: 2
Fore
SplineSet
4 0 m 1
 20 75 l 1
 113 75 l 1
 223 593 l 1
 130 593 l 1
 146 668 l 1
 427 668 l 1
 412 593 l 1
 318 593 l 1
 209 75 l 1
 301 75 l 1
 285 0 l 1
 4 0 l 1
EndSplineSet
EndChar

StartChar: J
Encoding: 74 74 24
Width: 509
GlyphClass: 1
Flags: W
HStem: -12 77<109.034 249.331> 648 20G<412.736 513>
VStem: 417 96<572 668>
DStem2: 272.175 -12 368.387 -12 0.207912 0.978148<119.826 695.251>
AnchorPoint: "Anchor-1" 466 668 basechar 0
LayerCount: 2
Fore
SplineSet
78 166 m 0
 78 112.712531079 99.1713163512 65 175 65 c 0
 264.457064668 65 301.277481011 126.588373895 320 213 c 2
 417 668 l 1
 513 668 l 1
 416 212 l 2
 375.154659568 17.3839661751 274.563006937 -12 163 -12 c 0
 42.0216537902 -12 -20.0534154608 71.213919307 -7 190 c 1
 83 214 l 1
 78.2317329697 183.006264303 78 174.063049529 78 166 c 0
EndSplineSet
EndChar

StartChar: K
Encoding: 75 75 25
Width: 623
GlyphClass: 2
Flags: W
HStem: 0 21G<14 114.286 435.815 551> 648 20G<151.749 252 517.895 670>
VStem: 14 96<0 96> 156 96<572 668> 540 130<538 668>
DStem2: 14 0 110 0 0.207912 0.978148<19.9595 234.727 372.598 682.926> 183 345 281 324 0.747249 0.664544<0 59.275 152.12 481.416> 351 385 281 324 0.46099 -0.887405<21.8624 385.445>
AnchorPoint: "Anchor-1" 401 668 basechar 0
AnchorPoint: "Anchor-0" 259 0 basechar 0
LayerCount: 2
Fore
SplineSet
14 0 m 1
 156 668 l 1
 252 668 l 1
 183 345 l 1
 540 668 l 1
 670 668 l 1
 351 385 l 1
 551 0 l 1
 446 0 l 1
 281 324 l 1
 155 210 l 1
 110 0 l 1
 14 0 l 1
EndSplineSet
EndChar

StartChar: L
Encoding: 76 76 26
Width: 541
GlyphClass: 2
Flags: W
HStem: 0 81<127 469> 648 20G<151.749 252>
VStem: 156 96<572 668>
DStem2: 14 0 109.783 0 0.207912 0.978148<102.724 682.926>
AnchorPoint: "Anchor-1" 224 668 basechar 0
AnchorPoint: "Anchor-0" 218 0 basechar 0
LayerCount: 2
Fore
SplineSet
14 0 m 1
 156 668 l 1
 252 668 l 1
 127 81 l 1
 486 81 l 1
 469 0 l 1
 14 0 l 1
EndSplineSet
EndChar

StartChar: M
Encoding: 77 77 27
Width: 824
GlyphClass: 1
Flags: W
HStem: 0 21G<14 114.278 302.496 411.055 590 690.251> 648 20G<151.749 314.288 655.225 828>
VStem: 14 96<0 96> 590 96<0 96>
DStem2: 14 0 110 0 0.207912 0.978148<19.9595 607.968> 312 668 233 575 0.124247 -0.992251<82.4638 545.504> 374 126 400 0 0.483781 0.875189<0 541.023> 590 0 686 0 0.207912 0.978148<19.9595 571.526>
AnchorPoint: "Anchor-1" 473 668 basechar 0
LayerCount: 2
Fore
SplineSet
14 0 m 1
 156 668 l 1
 312 668 l 1
 374 126 l 1
 666 668 l 1
 828 668 l 1
 686 0 l 1
 590 0 l 1
 709 559 l 1
 400 0 l 1
 305 0 l 1
 233 575 l 1
 110 0 l 1
 14 0 l 1
EndSplineSet
EndChar

StartChar: N
Encoding: 78 78 28
Width: 693
GlyphClass: 2
Flags: W
HStem: 0 21G<14 114.271 411.576 559.251> 648 20G<151.749 299.481 596.749 697>
VStem: 14 96<0 96> 601 96<572 668>
DStem2: 14 0 110 0 0.207912 0.978148<19.9595 608.946> 293 668 233 576 0.305795 -0.952097<69.2452 603.382> 459.02 0 555 0 0.207912 0.978148<96.1 682.922>
AnchorPoint: "Anchor-1" 436 668 basechar 0
AnchorPoint: "Anchor-0" 264 0 basechar 0
LayerCount: 2
Fore
SplineSet
14 0 m 1
 156 668 l 1
 293 668 l 1
 479 94 l 1
 601 668 l 1
 697 668 l 1
 555 0 l 1
 418 0 l 1
 233 576 l 1
 110 0 l 1
 14 0 l 1
EndSplineSet
EndChar

StartChar: O
Encoding: 79 79 29
Width: 728
GlyphClass: 2
Flags: W
HStem: -12 79<241.892 421.64> 600 80<319.546 504.098>
VStem: 55 95<161.645 399.734> 596 95<269.701 505.011>
AnchorPoint: "Anchor-2" 604 10 basechar 0
AnchorPoint: "Anchor-1" 438 668 basechar 0
AnchorPoint: "Anchor-0" 311 0 basechar 0
LayerCount: 2
Fore
SplineSet
150 269 m 0
 150 131.74805434 232.530775635 67 325 67 c 0
 499.880421945 67 596 235.338641933 596 399 c 0
 596 541.785323029 506.91898803 600 420 600 c 0
 250.276392382 600 150 442.021426298 150 269 c 0
691 401 m 0
 691 172.976777473 537.863578972 -12 312 -12 c 0
 138.206578781 -12 55 120.345870207 55 268 c 0
 55 491.18251492 197.82945689 680 433 680 c 0
 608.338285298 680 691 545.430061366 691 401 c 0
EndSplineSet
Substitution2: "Single Substitution lookup 12 subtable" ordmasculine
Substitution2: "'aalt' Access All Alternates lookup 0 subtable" ordmasculine
EndChar

StartChar: P
Encoding: 80 80 30
Width: 597
GlyphClass: 1
Flags: W
HStem: 0 21G<14 114.226> 265 81<184 430.952> 588 80<235 464.556>
VStem: 14 96<0 96> 503 98<406.707 552.758>
DStem2: 14 0 110 0 0.207912 0.978148<19.9595 290.812 373.784 621.099>
AnchorPoint: "Anchor-1" 349 668 basechar 0
LayerCount: 2
Fore
SplineSet
311 346 m 2
 475.012214435 346 503 417.162844936 503 488 c 0
 503 528 489.166666667 554.666666667 461.5 568 c 0
 433.833333333 581.333333333 397 588 351 588 c 2
 235 588 l 1
 184 346 l 1
 311 346 l 2
601 497 m 0
 601 404.603656174 572.168933456 265 287 265 c 2
 166 265 l 1
 110 0 l 1
 14 0 l 1
 156 668 l 1
 342 668 l 2
 536.578351665 668 601 602.427503816 601 497 c 0
EndSplineSet
EndChar

StartChar: Q
Encoding: 81 81 31
Width: 748
GlyphClass: 1
Flags: W
HStem: 5 79<244.892 430.688> 617 79<322.247 505.926>
VStem: 58 95<178.645 415.834> 599 95<285.789 519.968>
DStem2: 399 344 328 284 0.648755 -0.760997<0 202.829 288.433 443.298>
LayerCount: 2
Fore
SplineSet
153 286 m 0
 153 148.74805434 235.530775635 84 328 84 c 0
 378.666666667 84 424 97.3333333333 464 124 c 1
 328 284 l 1
 399 344 l 1
 531 190 l 1
 542.009171028 205.679728433 599 292.74227911 599 415 c 0
 599 562.666153276 506.380251913 617 423 617 c 0
 248.824247515 617 153 451.766718855 153 286 c 0
694 418 m 0
 694 385.382915525 688.17417803 238.352083792 588 123 c 1
 687 7 l 1
 617 -55 l 1
 517 62 l 1
 460.383785229 23.7840550299 393.226746337 5 315 5 c 0
 141.206578781 5 58 137.345870207 58 285 c 0
 58 511.86845396 204.182523396 696 436 696 c 0
 608.861007476 696 694 564.602730301 694 418 c 0
EndSplineSet
EndChar

StartChar: R
Encoding: 82 82 32
Width: 610
GlyphClass: 2
Flags: W
HStem: 0 21G<14 114.27 402.822 518> 281 79<187 270> 588 80<235 463.702>
VStem: 14 96<0 96> 503 98<415.761 554.461>
DStem2: 14 0 110 0 0.207912 0.978148<19.9595 307.294 388.102 621.099> 371 288 270 281 0.454621 -0.890685<0 275.611>
AnchorPoint: "Anchor-1" 374 668 basechar 0
AnchorPoint: "Anchor-0" 252 0 basechar 0
LayerCount: 2
Fore
SplineSet
503 495 m 0
 503 533.149775637 496.334436831 588 352 588 c 2
 235 588 l 1
 187 360 l 1
 311 360 l 2
 474.275269563 360 503 420.952970839 503 495 c 0
601 508 m 0
 601 428.967169521 568.360515849 306.444908023 371 288 c 1
 518 0 l 1
 413 0 l 1
 270 281 l 1
 170 281 l 1
 110 0 l 1
 14 0 l 1
 156 668 l 1
 360 668 l 2
 579.373070461 668 601 571.654112503 601 508 c 0
EndSplineSet
EndChar

StartChar: S
Encoding: 83 83 33
Width: 609
GlyphClass: 2
Flags: W
HStem: -12 79<201.722 383.502> 601 79<230.702 414.137>
VStem: 87 95<444.655 558.219> 446 98<120.999 238.471>
AnchorPoint: "Anchor-1" 356 668 basechar 0
AnchorPoint: "Anchor-0" 277 0 basechar 0
LayerCount: 2
Fore
SplineSet
544 197 m 0
 544 56.6290652883 405.060557165 -12 285 -12 c 0
 244.170116974 -12 88.4285015709 -2.00732025409 36 147 c 1
 127 172 l 1
 161.966703777 72.6209471614 269.187491445 67 293 67 c 0
 365.388147101 67 446 104.604027515 446 184 c 0
 446 352.734113861 87 256.378854261 87 495 c 0
 87 634.680887302 228.290359751 680 324 680 c 0
 402.502948698 680 518.320194902 649.344832322 561 555 c 1
 469 529 l 1
 439.265183522 586.817698707 361.313270104 601 320 601 c 0
 263.487841647 601 182 578.430402189 182 498 c 0
 182 340.972026073 544 422.490220705 544 197 c 0
EndSplineSet
EndChar

StartChar: T
Encoding: 84 84 34
Width: 558
GlyphClass: 2
Flags: W
HStem: 0 21G<169 270.191> 587 81<90 293 389 611>
VStem: 169 97<0 97>
DStem2: 169 0 266 0 0.207912 0.978148<20.1674 599.954>
AnchorPoint: "Anchor-1" 356 668 basechar 0
AnchorPoint: "Anchor-0" 218 0 basechar 0
LayerCount: 2
Fore
SplineSet
169 0 m 1
 293 587 l 1
 73 587 l 1
 90 668 l 1
 628 668 l 1
 611 587 l 1
 389 587 l 1
 266 0 l 1
 169 0 l 1
EndSplineSet
EndChar

StartChar: U
Encoding: 85 85 35
Width: 693
GlyphClass: 2
Flags: W
HStem: -12 81<199.665 401.5> 648 20G<152.722 253 596.707 697>
VStem: 61 98<107.431 318.938> 157 96<572 668> 601 96<572 668>
DStem2: 11.9335 -12 108.634 -12 0.207912 0.978148<225.649 695.301> 455.634 -12 551.933 -12 0.207912 0.978148<159.204 695.364>
AnchorPoint: "Anchor-2" 352 0 basechar 0
AnchorPoint: "Anchor-1" 415 668 basechar 0
AnchorPoint: "Anchor-0" 294 0 basechar 0
LayerCount: 2
Fore
SplineSet
159 186 m 0xe8
 159 100.976565735 202.519029407 69 291 69 c 0
 423.153421221 69 484.390849317 126.969779218 516 272 c 2
 601 668 l 1
 697 668 l 1
 614 280 l 2
 564.455935583 44.0758837289 449.308138007 -12 286 -12 c 0
 95.6853916244 -12 61 84.5717634474 61 175 c 0xe8
 61 203.813956002 65.3993305841 238.430097823 74 280 c 2
 157 668 l 1
 253 668 l 1xd8
 169 272 l 2
 164.404782655 249.023913274 159 216.454460907 159 186 c 0xe8
EndSplineSet
EndChar

StartChar: V
Encoding: 86 86 36
Width: 592
GlyphClass: 1
Flags: W
HStem: 0 21G<175.365 301.138> 648 20G<90 191.222 540.247 662>
VStem: 90 99<569 668>
DStem2: 189 668 90 668 0.130608 -0.991434<0 561.318> 251 110 290 0 0.486531 0.873663<0 633.463>
LayerCount: 2
Fore
SplineSet
178 0 m 1
 90 668 l 1
 189 668 l 1
 251 110 l 1
 551 668 l 1
 662 668 l 1
 290 0 l 1
 178 0 l 1
EndSplineSet
EndChar

StartChar: W
Encoding: 87 87 37
Width: 844
GlyphClass: 1
Flags: W
HStem: 0 21G<115.222 235.893 482.601 613.281> 648 20G<90 190.444 427.333 549.181 794.926 914>
VStem: 90 100<488.154 668> 116 86<128 179.846> 472 77<200.364 551> 483 71<117 350.636>
DStem2: 202 128 227 0 0.406292 0.913743<0 496.212> 554 117 604 0 0.420952 0.907083<0 605.041>
AnchorPoint: "Anchor-1" 488 668 basechar 0
LayerCount: 2
Fore
SplineSet
116 0 m 1xd8
 90 668 l 1
 190 668 l 1xe0
 202 128 l 1
 436 668 l 1
 549 668 l 1xd8
 554 117 l 1
 804 668 l 1
 914 668 l 1
 604 0 l 1
 483 0 l 1xc4
 472 551 l 1
 227 0 l 1
 116 0 l 1xd8
EndSplineSet
EndChar

StartChar: X
Encoding: 88 88 38
Width: 624
GlyphClass: 1
Flags: W
HStem: 0 21G<-52 91.4848 439 552> 648 20G<116 227.878 547.469 691>
VStem: -52 125<0 125> 566 125<543 668>
DStem2: -52 0 73 0 0.679101 0.734045<84.8876 444.376 576.029 910.026> 218 668 116 668 0.447214 -0.894427<0 273.248 405.623 700.784>
LayerCount: 2
Fore
SplineSet
-52 0 m 1
 274 351 l 1
 116 668 l 1
 218 668 l 1
 339 423 l 1
 566 668 l 1
 691 668 l 1
 383 336 l 1
 552 0 l 1
 449 0 l 1
 317 264 l 1
 73 0 l 1
 -52 0 l 1
EndSplineSet
EndChar

StartChar: Y
Encoding: 89 89 39
Width: 598
GlyphClass: 2
Flags: W
HStem: 0 21G<177 278.25> 648 20G<90 192.172 538.332 668>
VStem: 90 96<572 668> 177 97<0 97> 554 114<554 668>
DStem2: 186 668 90 668 0.308885 -0.951099<0 352.645> 177 0 274 0 0.207912 0.978148<20.1674 245.567> 290 331 325 240 0.625362 0.780335<0 428.068>
AnchorPoint: "Anchor-1" 362 668 basechar 0
AnchorPoint: "Anchor-0" 246 0 basechar 0
LayerCount: 2
Fore
SplineSet
177 0 m 1xd8
 229 240 l 1
 90 668 l 1
 186 668 l 1xe8
 290 331 l 1
 554 668 l 1
 668 668 l 1
 325 240 l 1
 274 0 l 1
 177 0 l 1xd8
EndSplineSet
EndChar

StartChar: Z
Encoding: 90 90 40
Width: 613
GlyphClass: 2
Flags: W
HStem: 0 81<123 506> 587 81<145 500>
DStem2: -1 81 123 81 0.703587 0.710609<87.2448 712.065>
AnchorPoint: "Anchor-1" 388 668 basechar 0
AnchorPoint: "Anchor-0" 254 0 basechar 0
LayerCount: 2
Fore
SplineSet
-18 0 m 1
 -1 81 l 1
 500 587 l 1
 128 587 l 1
 145 668 l 1
 640 668 l 1
 623 587 l 1
 123 81 l 1
 524 81 l 1
 506 0 l 1
 -18 0 l 1
EndSplineSet
EndChar

StartChar: a
Encoding: 97 97 41
Width: 521
GlyphClass: 2
Flags: W
HStem: -12 69<117.967 256.793> 0 21G<327.73 410.48> 436 68<205.884 354.814>
VStem: 5 94<76.1003 180.794> 329 79<0 63> 377 85<309.422 413.228>
AnchorPoint: "Anchor-2" 408 0 basechar 0
AnchorPoint: "Anchor-1" 311 496 basechar 0
AnchorPoint: "Anchor-0" 208 0 basechar 0
LayerCount: 2
Fore
SplineSet
99 125 m 0xb0
 99 113.578408909 102.939628833 57 181 57 c 0
 202.147802098 57 331.564716753 63.6091133271 359 224 c 2
 362 241 l 1
 162.619086647 221.782562568 99 200.60216874 99 125 c 0xb0
325 63 m 1
 266.740344257 -2.32143219718 207.6094814 -12 154 -12 c 0
 75.649821255 -12 5 31.6490516434 5 117 c 0
 5 215.112373153 88.542885371 277.674775039 289 299 c 0
 320.333333333 302.333333333 347.333333333 305.333333333 370 308 c 1
 376.381056378 337.778263096 377 348.046157003 377 357 c 0
 377 409.666666667 346.333333333 436 285 436 c 0
 245.942893528 436 188.573715723 423.744339177 158 359 c 1
 83 382 l 1
 105.466122411 430.388571347 159.592224047 504 281 504 c 0
 377.995048779 504 462 471.968469425 462 361 c 0xb4
 462 283.392322856 412.960748941 173.626212947 408 0 c 1
 329 0 l 1x78
 325 63 l 1
EndSplineSet
Substitution2: "Single Substitution lookup 12 subtable" ordfeminine
Substitution2: "'aalt' Access All Alternates lookup 0 subtable" ordfeminine
EndChar

StartChar: b
Encoding: 98 98 42
Width: 555
GlyphClass: 1
Flags: W
HStem: -12 72<191.6 325.849> 0 21G<7 81> 432 72<243.616 374.928> 648 20G<144.749 235>
VStem: 149 86<582 668> 419 90<178.779 383.521>
DStem2: 4.46154 -12 90.05 -12 0.207912 0.978148<469.669 695.192>
AnchorPoint: "Anchor-1" 333 496 basechar 0
AnchorPoint: "Anchor-0" 266 -12 basechar 0
LayerCount: 2
Fore
SplineSet
138 211 m 0xbc
 138 148.972144192 165.823291173 60 257 60 c 0
 379.882145597 60 419 212.765861543 419 291 c 0
 419 340.21798494 405.760274981 432 307 432 c 0
 191.544441405 432 138 299.347041952 138 211 c 0xbc
509 293 m 0
 509 165.937318142 437.27028972 -12 266 -12 c 0xbc
 194.176800206 -12 144.172372349 21.8516516949 112 82 c 1
 71 0 l 1
 7 0 l 1x7c
 149 668 l 1
 235 668 l 1
 184 430 l 1
 216.719339088 472.342674113 261.934975267 504 324 504 c 0
 394.092035967 504 462.116852527 478.754861908 492 393.5 c 0
 503.333333333 361.166666667 509 327.666666667 509 293 c 0
EndSplineSet
EndChar

StartChar: c
Encoding: 99 99 43
Width: 495
GlyphClass: 2
Flags: W
HStem: -12 74<164.222 319.818> 430 74<215.454 365.712>
VStem: 26 92<108.915 311.341>
AnchorPoint: "Anchor-1" 301 496 basechar 0
AnchorPoint: "Anchor-0" 195 0 basechar 0
LayerCount: 2
Fore
SplineSet
436 99 m 1
 412.949667275 61.7126970622 351.058609085 -12 222 -12 c 0
 174.539194436 -12 26 3.08941016837 26 192 c 0
 26 358.668095191 130.177438388 504 298 504 c 0
 339.956715367 504 434.633324106 497.47201993 483 393 c 1
 400 364 l 1
 386.523170573 404.43048828 344.682931635 430 294 430 c 0
 168.594622218 430 118 300.900595457 118 197 c 0
 118 134.813683762 139.640780093 62 241 62 c 0
 291.968408925 62 333.23853399 83.688909986 365 127 c 1
 436 99 l 1
EndSplineSet
EndChar

StartChar: d
Encoding: 100 100 44
Width: 555
GlyphClass: 2
Flags: W
HStem: -12 72<163.355 296.741> 0 21G<359.361 442.333> 432 72<208.928 349.017> 648 20G<476.778 567>
VStem: 27 90<110.046 314.833>
DStem2: 336.852 -12 424.718 -12 0.207912 0.978148<419.16 695.11>
AnchorPoint: "Anchor-1" 271 496 basechar 0
AnchorPoint: "Anchor-0" 225 0 basechar 0
LayerCount: 2
Fore
SplineSet
280 432 m 0xb8
 166.133084278 432 117 298.33997388 117 199 c 0
 117 152.333333333 127.833333333 117.5 149.5 94.5 c 0
 171.166666667 71.5 196.666666667 60 226 60 c 0
 336.829822328 60 398 171.652603524 398 281 c 0
 398 326.321316763 386.574024808 432 280 432 c 0xb8
356 61 m 1
 340.411315726 41.0464841296 298.96875 -12 205 -12 c 0xb8
 87.2060444257 -12 27 81.6213653554 27 198 c 0
 27 342.237848826 109.13832967 504 271 504 c 0
 371.748957769 504 412.573117311 434.729265787 424 398 c 1
 481 668 l 1
 567 668 l 1
 561.5 641.5 l 2
 560.404973916 636.223965232 469.844575386 219.751081637 451.5 114 c 0
 445.833333333 81.3333333333 442.666666667 43.3333333333 442 0 c 1
 361 0 l 1x78
 356 61 l 1
EndSplineSet
EndChar

StartChar: e
Encoding: 101 101 45
Width: 542
GlyphClass: 2
Flags: W
HStem: -12 74<167.944 336.447> 225 68<128 421.908> 432 72<215.946 371.462>
VStem: 27 88<114.416 224.781> 422 87<293.224 383.373>
AnchorPoint: "Anchor-2" 337 10 basechar 0
AnchorPoint: "Anchor-1" 321 496 basechar 0
AnchorPoint: "Anchor-0" 218 0 basechar 0
LayerCount: 2
Fore
SplineSet
422 310 m 2
 422 329.164620045 416.435337261 432 297 432 c 0
 232.928625272 432 150.061337129 392.276017078 128 293 c 1
 421 293 l 2
 421.666666667 296.333333333 422 299.333333333 422 302 c 2
 422 310 l 2
449 87 m 1
 412.895531507 40.2765701857 347.932993909 -12 238 -12 c 0
 172.666666667 -12 121.166666667 7 83.5 45 c 0
 45.8333333333 83 27 134.333333333 27 199 c 0
 27 368.183197735 131.189655236 504 309 504 c 0
 469.509705085 504 509 381.375769314 509 300 c 0
 509 276 506 251 500 225 c 1
 116 225 l 1
 115.333333333 220.333333333 115 215.666666667 115 211 c 2
 115 197 l 2
 115 149.681550321 129.085467442 97.0461824829 185 74.5 c 0
 205.666666667 66.1666666667 226.666666667 62 248 62 c 0
 265.375386518 62 324.227272727 62 371 111 c 1
 449 87 l 1
EndSplineSet
EndChar

StartChar: f
Encoding: 102 102 46
Width: 320
GlyphClass: 1
Flags: W
HStem: 0 21G<37 127.252> 428 68<59 128 228 315> 635 71<266.943 359>
VStem: 37 86<0 86>
DStem2: 37 0 123 0 0.207912 0.978148<17.8804 437.567 524.872 659.282>
AnchorPoint: "Anchor-1" 170 668 basechar 0
LayerCount: 2
Fore
SplineSet
37 0 m 1
 128 428 l 1
 44 428 l 1
 59 496 l 1
 142 496 l 1
 154 549 l 2
 186.52853755 687.246284586 216.581308334 703.404422154 323 706 c 2
 374 706 l 1
 359 635 l 1
 335 635 l 2
 276.686443943 635 256.932946334 622.215021921 243 563 c 2
 228 496 l 1
 330 496 l 1
 315 428 l 1
 214 428 l 1
 123 0 l 1
 37 0 l 1
EndSplineSet
EndChar

StartChar: g
Encoding: 103 103 47
Width: 555
GlyphClass: 2
Flags: W
HStem: -190 73<115.147 273.567> 16 73<174.653 304.451> 432 74<205.069 346.843> 476 20G<455.744 528>
VStem: 32 89<143.325 333.596>
AnchorPoint: "Anchor-1" 314 496 basechar 0
AnchorPoint: "Anchor-0" 172 -251 basechar 0
LayerCount: 2
Fore
SplineSet
121 226 m 0xe8
 121 134.061052951 177.637420966 89 248 89 c 0
 349.291518261 89 400 209.129051356 400 296 c 0
 400 412.386402871 312.36182451 432 276 432 c 0
 162.901399311 432 121 313.051685759 121 226 c 0xe8
266 506 m 0
 283.090757164 506 386.857076218 502.466309214 426 418 c 1
 466 496 l 1
 528 496 l 1xd8
 518.226241034 450.389124827 439.82952969 77.3879172001 421 -6 c 0
 385.005491725 -165.404250934 269.041534805 -190 180 -190 c 0
 104.577516319 -190 22.4045547536 -154.279824844 -4 -78 c 1
 86 -53 l 1
 87.4078178045 -59.7575254617 101.817675255 -117 186 -117 c 0
 266.322107428 -117 316.477035293 -87.5995137291 342 23 c 2
 355 80 l 1
 338.799042873 59.2627748773 295.798700507 16 219 16 c 0
 146.772342146 16 32 64.2201533963 32 222 c 0
 32 366.497958685 114.031141002 506 266 506 c 0
EndSplineSet
EndChar

StartChar: h
Encoding: 104 104 48
Width: 548
GlyphClass: 1
Flags: W
HStem: 0 21G<7 97.2023 333 422.306> 430 74<250.8 383.88> 648 20G<144.749 235>
VStem: 7 86<0 86> 149 86<582 668> 333 85<0 85> 401 88<230.688 412.606>
DStem2: 7 0 93 0 0.207912 0.978148<17.8804 398.877 454.469 682.926> 333 0 418 0 0.207912 0.978148<17.6725 357.586>
AnchorPoint: "Anchor-1" 190 668 basechar 0
LayerCount: 2
Fore
SplineSet
401 352 m 0xfa
 401 401.16211465 383.152502897 430 318 430 c 0
 258.063204457 430 177.972698091 400.801812568 147 257 c 2
 93 0 l 1
 7 0 l 1
 149 668 l 1
 235 668 l 1
 184 427 l 1
 200.666666667 448.333333333 222.166666667 466.5 248.5 481.5 c 0
 274.833333333 496.5 310.333333333 504 355 504 c 0
 420.683548726 504 489 477.256984727 489 366 c 0xfa
 489 343.333333333 486 317.333333333 480 288 c 2
 418 0 l 1
 333 0 l 1xfc
 392 280 l 2
 398 309.333333333 401 333.333333333 401 352 c 0xfa
EndSplineSet
EndChar

StartChar: i
Encoding: 105 105 49
Width: 270
GlyphClass: 1
Flags: W
HStem: 0 21G<46 136.234> 428 68<71 137> 591 125<182.529 276.712>
VStem: 46 86<0 86> 167 125<606.529 700.711>
DStem2: 46 0 132 0 0.207912 0.978148<17.8804 437.567>
AnchorPoint: "Anchor-2" 132 0 basechar 0
LayerCount: 2
Fore
SplineSet
46 0 m 1
 137 428 l 1
 57 428 l 1
 71 496 l 1
 237 496 l 1
 132 0 l 1
 46 0 l 1
292 653 m 0
 292 619.976974901 264.695099495 591 229 591 c 0
 195.299418536 591 167 619.297123835 167 653 c 0
 167 688.694523769 195.976394894 716 229 716 c 0
 264.016671013 716 292 688.013856556 292 653 c 0
EndSplineSet
Substitution2: "Single Substitution lookup 4 subtable" dotlessi
Substitution2: "Single Substitution lookup 3 subtable" dotlessi
EndChar

StartChar: j
Encoding: 106 106 50
Width: 258
GlyphClass: 1
Flags: W
HStem: -161 75<-138 -3.62607> 476 20G<128.735 219> 591 126<163.289 258.711>
VStem: 133 86<410 496> 148 126<606.289 701.711>
DStem2: -6.98484 -161 79.0779 -161 0.207912 0.978148<89.8756 671.747>
LayerCount: 2
Fore
SplineSet
-85 -161 m 0xf0
 -106.41639786 -161 -128.822387536 -160.325137498 -154 -159 c 1
 -138 -86 l 1
 -106 -86 l 2
 -4.41529060863 -86 13.5896845832 -71.1028665109 30 13 c 2
 133 496 l 1
 219 496 l 1
 115 8 l 2
 88.3454500007 -122.607294997 64.3955253771 -161 -85 -161 c 0xf0
274 654 m 0xe8
 274 618.983328987 246.013856556 591 211 591 c 0
 175.983328987 591 148 618.986143444 148 654 c 0
 148 689.016671013 175.986143444 717 211 717 c 0
 246.016671013 717 274 689.013856556 274 654 c 0xe8
EndSplineSet
EndChar

StartChar: k
Encoding: 107 107 51
Width: 487
GlyphClass: 2
Flags: W
HStem: 0 21G<7 97.2169 310.741 415> 476 20G<365.725 500> 648 20G<144.749 235>
VStem: 7 86<0 86> 149 86<582 668> 388 112<384 496>
DStem2: 7 0 93 0 0.207912 0.978148<17.8804 187.53 309.127 682.926> 153 285 202 232 0.748075 0.663615<0 1.48408 87.1869 315.82> 266 289 202 232 0.458251 -0.888823<21.3348 282.074>
AnchorPoint: "Anchor-1" 360 796 basechar 0
AnchorPoint: "Anchor-0" 221 0 basechar 0
LayerCount: 2
Fore
SplineSet
7 0 m 1
 149 668 l 1
 235 668 l 1
 153 285 l 1
 388 496 l 1
 500 496 l 1
 266 289 l 1
 415 0 l 1
 321 0 l 1
 202 232 l 1
 128 166 l 1
 93 0 l 1
 7 0 l 1
EndSplineSet
EndChar

StartChar: l
Encoding: 108 108 52
Width: 259
GlyphClass: 2
Flags: W
HStem: 0 75<120.373 182> 648 20G<144.764 235>
VStem: 27 91<39.2288 191.188> 149 86<582 668>
DStem2: 7.43043 0 93.2421 0 0.207912 0.978148<125.029 682.837>
AnchorPoint: "Anchor-1" 205 668 basechar 0
AnchorPoint: "Anchor-0" 97 0 basechar 0
LayerCount: 2
Fore
SplineSet
118 104 m 0
 118 80.5634338249 133.321108602 75 161 75 c 2
 198 75 l 1
 182 0 l 1
 126 0 l 2
 65.2686243848 0 27 11.4576797943 27 67 c 0
 27 85 29.3333333333 104.333333333 34 125 c 2
 149 668 l 1
 235 668 l 1
 123 140 l 2
 118.588852298 115.73868764 118 110.860768608 118 104 c 0
EndSplineSet
EndChar

StartChar: m
Encoding: 109 109 53
Width: 846
GlyphClass: 1
Flags: W
HStem: 0 21G<8 98.2222 319 409.222 630 720.2> 431 73<249.467 373.415 551.858 685.154> 476 20G<108.766 178.739>
VStem: 8 86<0 86> 113 64<462.933 496> 319 86<0 86> 630 86<0 86> 700 88<239.195 415.384>
DStem2: 8 0 94 0 0.207912 0.978148<17.8804 402.239> 319 0 405 0 0.207912 0.978148<17.8804 362.863> 630 0 716 0 0.207912 0.978148<17.8804 364.819>
AnchorPoint: "Anchor-1" 469 496 basechar 0
LayerCount: 2
Fore
SplineSet
389 357 m 0xdd
 389 419.176877344 352.813191548 431 313 431 c 0xdd
 273.925384862 431 182.427748725 414.916841344 151 270 c 2
 94 0 l 1
 8 0 l 1
 113 496 l 1
 177 496 l 1xbd
 183 427 l 1
 245.431148961 502.347938401 308.133678276 504 341 504 c 0
 375.643300172 504 445.854782579 501.353851019 475 416 c 1
 498.88946133 447.637394735 546.899757282 504 651 504 c 0
 726.055812139 504 788 473.311155717 788 372 c 0xdd
 788 352 785 328 779 300 c 2
 716 0 l 1
 630 0 l 1xde
 691 289 l 2
 697 316.333333333 700 339.666666667 700 359 c 0
 700 423.805126698 659.146541089 431 625 431 c 0
 575.169584383 431 493.00666655 408.618038693 462 270 c 2
 405 0 l 1
 319 0 l 1
 380 289 l 2
 386 315 389 337.666666667 389 357 c 0xdd
EndSplineSet
EndChar

StartChar: n
Encoding: 110 110 54
Width: 550
GlyphClass: 2
Flags: W
HStem: 0 21G<8 98.2023 334 423.321> 430 74<249.78 385.386> 476 20G<108.766 178.739>
VStem: 8 86<0 86> 113 64<462.933 496> 334 85<0 85> 402 88<229.875 413.072>
DStem2: 8 0 94 0 0.207912 0.978148<17.8804 398.877> 334 0 419 0 0.207912 0.978148<17.6725 356.608>
AnchorPoint: "Anchor-1" 328 496 basechar 0
AnchorPoint: "Anchor-0" 212 0 basechar 0
LayerCount: 2
Fore
SplineSet
402 351 m 0xda
 402 400.739576243 384.761256124 430 319 430 c 0xda
 259.063204457 430 178.972698091 400.801812568 148 257 c 2
 94 0 l 1
 8 0 l 1
 113 496 l 1
 177 496 l 1xba
 183 427 l 1
 199.666666667 448.333333333 221.5 466.5 248.5 481.5 c 0
 275.5 496.5 311.333333333 504 356 504 c 0
 418.390542214 504 490 479.139725356 490 365 c 0xda
 490 342.333333333 487 316.333333333 481 287 c 2
 419 0 l 1
 334 0 l 1xdc
 393 279 l 2
 399 308.333333333 402 332.333333333 402 351 c 0xda
EndSplineSet
EndChar

StartChar: o
Encoding: 111 111 55
Width: 547
GlyphClass: 2
Flags: W
HStem: -12 74<165.417 312.359> 430 74<210.443 367.736>
VStem: 27 88<114.371 312.733> 413 89<181.801 386.685>
AnchorPoint: "Anchor-2" 441 10 basechar 0
AnchorPoint: "Anchor-1" 321 496 basechar 0
AnchorPoint: "Anchor-0" 221 0 basechar 0
LayerCount: 2
Fore
SplineSet
115 198 m 0
 115 161.861752982 125.121651987 62 237 62 c 0
 365.967234894 62 413 202.385712248 413 301 c 0
 413 349.666666667 401.166666667 383.333333333 377.5 402 c 0
 353.833333333 420.666666667 324.666666667 430 290 430 c 0
 156.667965613 430 115 290.776584509 115 198 c 0
502 298 m 0
 502 136.806438514 396.135497427 -12 230 -12 c 0
 60.0120366431 -12 27 119.973562028 27 199 c 0
 27 373.399622663 139.443444759 504 303 504 c 0
 371.508426704 504 502 467.855382118 502 298 c 0
EndSplineSet
Substitution2: "Single Substitution lookup 12 subtable" ordmasculine
Substitution2: "'aalt' Access All Alternates lookup 0 subtable" ordmasculine
EndChar

StartChar: p
Encoding: 112 112 56
Width: 556
GlyphClass: 1
Flags: W
HStem: -162 21G<-26 64.2353> -12 71<192.531 324.958> 432 72<241.099 374.743> 476 20G<109.745 178.515>
VStem: -26 86<-162 -76> 114 63<463.1 496> 420 90<181.483 383.554>
DStem2: -26 -162 60 -162 0.207912 0.978148<17.8804 278.535>
AnchorPoint: "Anchor-1" 328 496 basechar 0
LayerCount: 2
Fore
SplineSet
139 209 m 0xee
 139 142.467242994 171.61660156 59 260 59 c 0
 368.348661862 59 420 192.671272736 420 297 c 0
 420 329.89360095 411.577718209 432 307 432 c 0
 195.30700206 432 139 305.002752423 139 209 c 0xee
269 -12 m 0
 224.729832404 -12 145.70566888 1.61307205282 114 93 c 1
 60 -162 l 1
 -26 -162 l 1
 114 496 l 1
 177 496 l 1xde
 182 430 l 1
 203.559962672 461.261945874 248.176077961 504 331 504 c 0
 477.611364239 504 510 373.605898687 510 293 c 0
 510 173.828137798 445.710973342 -12 269 -12 c 0
EndSplineSet
EndChar

StartChar: q
Encoding: 113 113 57
Width: 555
GlyphClass: 1
Flags: W
HStem: -174 82<422.211 533.842> -12 72<161.874 297.135> 433 72<208.416 344.182> 476 20G<457.744 530>
VStem: 28 90<109.107 316.345> 328 90<-85.5909 48.1151>
LayerCount: 2
Fore
SplineSet
118 198 m 0xec
 118 146.733551927 132.676825299 60 232 60 c 0
 336.07607391 60 396 179.054227824 396 281 c 0
 396 315.770383925 387.716275939 433 276 433 c 0
 174.509125273 433 118 309.055156295 118 198 c 0xec
352 59 m 1
 339.806017923 38.198501163 296.098092245 -12 207 -12 c 0
 175.305794399 -12 28 -1.27997768216 28 198 c 0
 28 348.873793113 111.80820518 505 271 505 c 0xec
 315.678285023 505 388.792013667 492.495174033 428 418 c 1
 468 496 l 1
 530 496 l 1xdc
 528.899860616 490.89535326 427.323316023 7.50880810688 422.5 -15 c 0
 419.5 -29 418 -40.6666666667 418 -50 c 0
 418 -70.1559386899 427.559012914 -92 469 -92 c 0
 489.666666667 -92 517 -86.6666666667 551 -76 c 1
 534 -154 l 1
 526.371523328 -159.339933671 494.088822734 -174 447 -174 c 0
 409.58832249 -174 328 -163.509791487 328 -72 c 0
 328 -56.7244298368 329.825905644 -40.562039523 338.5 -3.5 c 0
 342.166666667 12.1666666667 346.666666667 33 352 59 c 1
EndSplineSet
EndChar

StartChar: r
Encoding: 114 114 58
Width: 353
GlyphClass: 2
Flags: W
HStem: 0 21G<8 98.1951> 415 89<270.92 364> 476 20G<108.766 177.72>
VStem: 8 86<0 86> 113 63<462.933 496>
DStem2: 8 0 94 0 0.207912 0.978148<17.8804 361.96>
AnchorPoint: "Anchor-1" 240 496 basechar 0
AnchorPoint: "Anchor-0" 51 0 basechar 0
LayerCount: 2
Fore
SplineSet
184 403 m 1xb8
 253.847891618 502.138942941 326.898940332 504 372 504 c 2
 383 504 l 1
 364 415 l 1xd8
 310.719956501 416.902858696 240.139569666 405.672743616 195.5 344.5 c 0
 168.5 307.5 149 261 137 205 c 2
 94 0 l 1
 8 0 l 1
 113 496 l 1
 176 496 l 1
 184 403 l 1xb8
EndSplineSet
EndChar

StartChar: s
Encoding: 115 115 59
Width: 479
GlyphClass: 2
Flags: W
HStem: -12 68<139.118 291.911> 435 69<155.522 316.937>
VStem: 49 85<326.19 411.557> 325 88<87.1936 181.6>
AnchorPoint: "Anchor-1" 260 496 basechar 0
AnchorPoint: "Anchor-0" 207 0 basechar 0
LayerCount: 2
Fore
SplineSet
413 143 m 0
 413 32.6856284158 312.499878726 -12 213 -12 c 0
 70.5412097131 -12 28.6730492734 64.8809884109 10 113 c 1
 96 142 l 1
 111.20049296 58.3972887212 205.254941006 56 216 56 c 0
 217.358013255 56 325 57.3293779196 325 137 c 0
 325 251.46688718 49 182.167070147 49 365 c 0
 49 472.2877491 168.054881167 504 240 504 c 0
 307.808608167 504 404.509300314 477.056982445 431 402 c 1
 351 374 l 1
 333.856445148 425.430664555 261.317133622 435 233 435 c 0
 224.191310004 435 134 433.450666654 134 370 c 0
 134 257.712177091 413 324.772092125 413 143 c 0
EndSplineSet
EndChar

StartChar: t
Encoding: 116 116 60
Width: 324
GlyphClass: 2
Flags: W
HStem: 0 75<151.576 222> 428 68<63 132 232 313>
VStem: 59 92<39.3918 189.18> 173 86<534 620>
DStem2: 40.3049 0 126.204 0 0.207912 0.978148<125.192 437.712 525.017 634.04>
AnchorPoint: "Anchor-1" 213 620 basechar 0
AnchorPoint: "Anchor-0" 109 0 basechar 0
LayerCount: 2
Fore
SplineSet
151 104 m 0
 151 81.7113147555 162.657435669 75 194 75 c 2
 238 75 l 1
 222 0 l 1
 160 0 l 2
 99.1068030086 0 59 11.7835076117 59 67 c 0
 59 81.6666666667 62.3333333333 104.333333333 69 135 c 2
 132 428 l 1
 49 428 l 1
 63 496 l 1
 146 496 l 1
 173 620 l 1
 259 620 l 1
 232 496 l 1
 327 496 l 1
 313 428 l 1
 218 428 l 1
 160 159 l 2
 154 132 151 113.666666667 151 104 c 0
EndSplineSet
EndChar

StartChar: u
Encoding: 117 117 61
Width: 540
GlyphClass: 2
Flags: W
HStem: -11 73<142.619 270.883> 0 21G<341.286 412.234> 476 20G<106.768 197 423.692 513>
VStem: 40 86<78.2753 263.312> 111 86<410 496> 343 65<0 33.0667> 428 85<411 496>
DStem2: 3.5129 -11 89.0878 -11 0.207912 0.978148<171.199 518.269> 319.499 -11 405.662 -11 0.207912 0.978148<135.808 518.48>
AnchorPoint: "Anchor-2" 408 0 basechar 0
AnchorPoint: "Anchor-1" 308 496 basechar 0
AnchorPoint: "Anchor-0" 217 0 basechar 0
LayerCount: 2
Fore
SplineSet
337 70 m 1x76
 288.230857033 5.99049985587 237.739117119 -11 173 -11 c 0
 124.333333333 -11 90 2.33333333333 70 29 c 0
 50 55.6666666667 40 88.6666666667 40 128 c 0xb6
 40 152 43 177 49 203 c 2
 111 496 l 1
 197 496 l 1xae
 135 205 l 2
 130.026393752 182.618771885 126 158.009182111 126 137 c 0
 126 118.19047619 126 62 203 62 c 0xb6
 267.512143415 62 341.83412902 95.7286999451 372 236 c 2
 428 496 l 1
 513 496 l 1
 408 0 l 1
 343 0 l 1
 337 70 l 1x76
EndSplineSet
EndChar

StartChar: v
Encoding: 118 118 62
Width: 444
GlyphClass: 1
Flags: W
HStem: 0 21G<112.097 215.411> 476 20G<43 132.435 378.016 487>
VStem: 43 87<409 496>
DStem2: 130 496 43 496 0.143656 -0.989628<0 388.748> 177 110 204 0 0.495573 0.868566<0 440.328>
LayerCount: 2
Fore
SplineSet
115 0 m 1
 43 496 l 1
 130 496 l 1
 177 110 l 1
 389 496 l 1
 487 496 l 1
 204 0 l 1
 115 0 l 1
EndSplineSet
EndChar

StartChar: w
Encoding: 119 119 63
Width: 658
GlyphClass: 1
Flags: W
HStem: 0 21G<78.5081 163.65 368.85 462.04> 476 20G<43 130.95 309.391 410.093 595.383 701>
VStem: 43 87<402.162 496>
DStem2: 147 138 154 0 0.43456 0.900643<0 322.88> 409 496 347 400 0.0574052 -0.998351<92.2826 366.545> 429 130 452 0 0.448654 0.893705<0 406.059>
AnchorPoint: "Anchor-1" 360 496 basechar 0
LayerCount: 2
Fore
SplineSet
80 0 m 1
 43 496 l 1
 130 496 l 1
 147 138 l 1
 319 496 l 1
 409 496 l 1
 429 130 l 1
 605 496 l 1
 701 496 l 1
 452 0 l 1
 370 0 l 1
 347 400 l 1
 154 0 l 1
 80 0 l 1
EndSplineSet
EndChar

StartChar: x
Encoding: 120 120 64
Width: 462
GlyphClass: 1
Flags: W
HStem: 0 21G<-63 64.4865 299.054 399> 476 20G<61 161.058 377.404 505>
VStem: -63 109<0 109> 396 109<387 496>
DStem2: -63 0 46 0 0.679201 0.733952<74.033 325.958 442.295 675.794> 151 496 61 496 0.447214 -0.894427<0 191.407 307.683 514.296>
LayerCount: 2
Fore
SplineSet
-63 0 m 1
 179 262 l 1
 61 496 l 1
 151 496 l 1
 237 325 l 1
 396 496 l 1
 505 496 l 1
 275 248 l 1
 399 0 l 1
 309 0 l 1
 217 185 l 1
 46 0 l 1
 -63 0 l 1
EndSplineSet
EndChar

StartChar: y
Encoding: 121 121 65
Width: 435
GlyphClass: 2
Flags: W
HStem: -161 75<-46 75.8128> 476 20G<43 134.073 367.326 478>
VStem: 43 89<407 496>
DStem2: 172 110 191 -21 0.485356 0.874317<0 437.47>
AnchorPoint: "Anchor-1" 266 496 basechar 0
AnchorPoint: "Anchor-0" 165 0 basechar 0
LayerCount: 2
Fore
SplineSet
-62 -161 m 1
 -46 -86 l 1
 -12 -86 l 2
 67.1197116246 -86 79.3861721575 -75.2617572319 116 0 c 1
 43 496 l 1
 132 496 l 1
 172 110 l 1
 378 496 l 1
 478 496 l 1
 191 -21 l 2
 123.680327001 -144.868198318 100.545569481 -161 -19 -161 c 2
 -62 -161 l 1
EndSplineSet
EndChar

StartChar: z
Encoding: 122 122 66
Width: 467
GlyphClass: 2
Flags: W
HStem: 0 73<101 375> 424 73<99 355>
DStem2: -6 73 101 73 0.716967 0.697107<76.7155 503.51>
AnchorPoint: "Anchor-1" 289 496 basechar 0
AnchorPoint: "Anchor-0" 181 0 basechar 0
LayerCount: 2
Fore
SplineSet
-21 0 m 1
 -6 73 l 1
 355 424 l 1
 83 424 l 1
 99 497 l 1
 476 497 l 1
 460 424 l 1
 101 73 l 1
 390 73 l 1
 375 0 l 1
 -21 0 l 1
EndSplineSet
EndChar

StartChar: circumflex
Encoding: 258 710 67
Width: 429
GlyphClass: 1
Flags: W
HStem: 575 120<345 347.422>
VStem: 114 96<575 671>
DStem2: 114 575 210 575 0.796393 0.60478<76.4537 177.057>
LayerCount: 2
Fore
SplineSet
114 575 m 1
 247 676 l 2
 263 688.666666667 281 695 301 695 c 0
 319.666666667 695 334.666666667 688.666666667 346 676 c 2
 437 575 l 1
 345 575 l 1
 290 636 l 1
 210 575 l 1
 114 575 l 1
EndSplineSet
EndChar

StartChar: caron
Encoding: 259 711 68
Width: 429
GlyphClass: 1
Flags: W
HStem: 562 120<225.578 227>
VStem: 362 97<585 682>
DStem2: 281 621 326 581 0.796393 0.60478<0 101.399>
LayerCount: 2
Fore
SplineSet
273 562 m 0
 253 562 237.666666667 568.333333333 227 581 c 2
 136 682 l 1
 227 682 l 1
 281 621 l 1
 362 682 l 1
 459 682 l 1
 326 581 l 2
 309.333333333 568.333333333 291.666666667 562 273 562 c 0
EndSplineSet
EndChar

StartChar: breve
Encoding: 260 728 69
Width: 400
GlyphClass: 1
Flags: W
HStem: 562 67<219.753 331.333>
VStem: 136 69<644.693 682>
LayerCount: 2
Fore
SplineSet
430 682 m 1
 417.276304168 651.251068407 371.196912259 562 265 562 c 0
 175.14708331 562 136 631.967612707 136 682 c 1
 205 682 l 1
 208.22211795 666.694939736 221.303801701 629 272 629 c 0
 296.355493999 629 332.330939703 637.89375339 361 682 c 1
 430 682 l 1
EndSplineSet
EndChar

StartChar: dotaccent
Encoding: 261 729 70
Width: 216
GlyphClass: 1
Flags: W
HStem: 583 108<139.154 225.205>
VStem: 128 108<594.154 680.205>
LayerCount: 2
Fore
SplineSet
236 637 m 0
 236 608.626259945 214.165162993 583 182 583 c 0
 152.355427893 583 128 607.355204236 128 637 c 0
 128 669.164149302 153.625195589 691 182 691 c 0
 212.932356347 691 236 667.930619466 236 637 c 0
EndSplineSet
EndChar

StartChar: ring
Encoding: 262 730 71
Width: 329
GlyphClass: 1
Flags: W
HStem: 552 58<200.258 285.061> 712 58<200.909 285.06>
VStem: 134 57<619.994 701.565> 295 57<620.034 701.966>
LayerCount: 2
Fore
SplineSet
191 661 m 0
 191 633.4599235 212.659311061 610 243 610 c 0
 273.340633879 610 295 633.459867842 295 661 c 0
 295 688.5400765 273.340688939 712 243 712 c 0
 212.659366121 712 191 688.540132158 191 661 c 0
352 661 m 0
 352 605.332694097 310.267039234 552 245 552 c 0
 180.332423996 552 134 605.143592507 134 661 c 0
 134 720.582247221 183.419029916 770 245 770 c 0
 310.266202672 770 352 716.668218953 352 661 c 0
EndSplineSet
EndChar

StartChar: ogonek
Encoding: 263 731 72
Width: 270
GlyphClass: 1
Flags: W
HStem: -173 57<47.9634 121.099> -20 20G<43.6351 155>
VStem: -30 77<-112.583 -51.7275>
LayerCount: 2
Fore
SplineSet
47 -89 m 0
 47 -105.246319419 64.0429060063 -116 88 -116 c 0
 101.333333333 -116 116 -113 132 -107 c 1
 121 -161 l 1
 95 -169 72.6666666667 -173 54 -173 c 0
 42.9467813033 -173 -30 -170.55466234 -30 -106 c 0
 -30 -60.6730818362 11.2702672246 -18.8795053928 76 0 c 1
 155 0 l 1
 117.978545847 -13.3907387364 47 -44.8244839948 47 -89 c 0
EndSplineSet
EndChar

StartChar: quoteleft
Encoding: 264 8216 73
Width: 238
GlyphClass: 1
Flags: W
HStem: 418 250
VStem: 95 129<434.526 530.944> 196 61<607 668>
DStem2: 105 517 181 543 0.516163 0.85649<61.4971 176.301>
LayerCount: 2
Fore
SplineSet
224 482 m 0xc0
 224 442.210689317 193.773707141 418 161 418 c 0
 114.924913155 418 95 455.725348709 95 483 c 0xc0
 95 495 98.3333333333 506.333333333 105 517 c 2
 196 668 l 1
 257 668 l 1xa0
 181 543 l 1
 209.666666667 532.333333333 224 512 224 482 c 0xc0
EndSplineSet
EndChar

StartChar: quoteright
Encoding: 265 8217 74
Width: 238
GlyphClass: 1
Flags: W
HStem: 429 251
VStem: 91 61<429 490> 123 130<567.531 663.011>
DStem2: 91 429 152 429 0.510955 0.859607<31.1683 146.632>
LayerCount: 2
Fore
SplineSet
188 680 m 0xa0
 230.508798698 680 253 647.241063906 253 616 c 0xa0
 253 604 247.666666667 589.333333333 237 572 c 2
 152 429 l 1
 91 429 l 1xc0
 166 555 l 1
 154.53069112 559.22553485 123 574.689592423 123 617 c 0
 123 653.782251339 156.130698559 680 188 680 c 0xa0
EndSplineSet
EndChar

StartChar: quotesinglbase
Encoding: 266 8218 75
Width: 239
GlyphClass: 1
Flags: W
HStem: -133 251
VStem: -28 61<-133 -72> 4 130<7.10938 101.402>
DStem2: -28 -133 33 -133 0.513637 0.858008<31.3319 145.867>
LayerCount: 2
Fore
SplineSet
67 118 m 0xa0
 107.574084937 118 134 87.7492456145 134 53 c 0xa0
 134 48.0368656919 132.888471625 33.0215546005 121 14 c 2
 33 -133 l 1
 -28 -133 l 1xc0
 47 -8 l 1
 34.3593016339 -2.38191183727 4 15.0605357254 4 53 c 0
 4 83.4654709525 27.7035799796 118 67 118 c 0xa0
EndSplineSet
EndChar

StartChar: quotedblleft
Encoding: 267 8220 76
Width: 395
GlyphClass: 1
Flags: W
HStem: 418 250
VStem: 95 129<434.526 530.944> 196 61<607 668> 252 129<434.526 530.944> 353 61<607 668>
DStem2: 105 517 181 543 0.516163 0.85649<61.4971 176.301> 262 517 338 543 0.516163 0.85649<61.4971 176.301>
LayerCount: 2
Fore
SplineSet
381 482 m 0x90
 381 442.210689317 350.773707141 418 318 418 c 0
 271.924913155 418 252 455.725348709 252 483 c 0x90
 252 495 255.333333333 506.333333333 262 517 c 2
 353 668 l 1
 414 668 l 1x88
 338 543 l 1
 366.666666667 532.333333333 381 512 381 482 c 0x90
224 482 m 0xc0
 224 442.210689317 193.773707141 418 161 418 c 0
 114.924913155 418 95 455.725348709 95 483 c 0xc0
 95 495 98.3333333333 506.333333333 105 517 c 2
 196 668 l 1
 257 668 l 1xa0
 181 543 l 1
 209.666666667 532.333333333 224 512 224 482 c 0xc0
EndSplineSet
EndChar

StartChar: quotedblright
Encoding: 268 8221 77
Width: 394
GlyphClass: 1
Flags: W
HStem: 429 250
VStem: 89 61<429 490> 122 129<566.056 662.306> 246 61<429 490> 279 129<566.056 662.306>
DStem2: 89 429 150 429 0.516163 0.85649<31.4859 146.29> 246 429 307 429 0.516163 0.85649<31.4859 146.29>
LayerCount: 2
Fore
SplineSet
185 679 m 0xa0
 231.075086845 679 251 641.274651291 251 614 c 0xa0
 251 602 247.666666667 590.666666667 241 580 c 2
 150 429 l 1
 89 429 l 1xc0
 165 554 l 1
 136.333333333 564.666666667 122 585 122 615 c 0
 122 655.816919899 154.650567764 679 185 679 c 0xa0
342 679 m 0
 388.075086845 679 408 641.274651291 408 614 c 0x88
 408 602 404.666666667 590.666666667 398 580 c 2
 307 429 l 1
 246 429 l 1x90
 322 554 l 1
 293.333333333 564.666666667 279 585 279 615 c 0x88
 279 655.816919899 311.650567764 679 342 679 c 0
EndSplineSet
EndChar

StartChar: dagger
Encoding: 270 8224 79
Width: 541
GlyphClass: 1
Flags: W
HStem: 0 21G<168 254.221> 417 79<84 257 355 527> 648 20G<306.698 391>
VStem: 168 82<0 82> 311 80<588 668>
DStem2: 168 0 250 0 0.207912 0.978148<17.0488 426.392 524.041 683.134>
LayerCount: 2
Fore
SplineSet
168 0 m 1
 257 417 l 1
 67 417 l 1
 84 496 l 1
 274 496 l 1
 311 668 l 1
 391 668 l 1
 355 496 l 1
 544 496 l 1
 527 417 l 1
 338 417 l 1
 250 0 l 1
 168 0 l 1
EndSplineSet
EndChar

StartChar: daggerdbl
Encoding: 271 8225 80
Width: 541
GlyphClass: 1
Flags: W
HStem: 0 21G<168 254.162> 173 79<32 205 303 475> 417 79<84 257 354 527> 648 20G<306.698 391>
VStem: 168 82<0 82> 311 80<588 668>
DStem2: 168 0 250 0 0.207912 0.978148<17.0488 176.912 274.561 426.392 523.833 683.134>
LayerCount: 2
Fore
SplineSet
168 0 m 1
 205 173 l 1
 15 173 l 1
 32 252 l 1
 222 252 l 1
 257 417 l 1
 67 417 l 1
 84 496 l 1
 274 496 l 1
 311 668 l 1
 391 668 l 1
 354 496 l 1
 544 496 l 1
 527 417 l 1
 337 417 l 1
 303 252 l 1
 492 252 l 1
 475 173 l 1
 286 173 l 1
 250 0 l 1
 168 0 l 1
EndSplineSet
EndChar

StartChar: bullet
Encoding: 272 8226 81
Width: 446
GlyphClass: 1
Flags: W
HStem: 88 332<134.402 295.601>
VStem: 49 332<172.99 336.703>
LayerCount: 2
Fore
SplineSet
381 254 m 0
 381 165.960909681 310.00916374 88 215 88 c 0
 119.99711584 88 49 165.954445585 49 254 c 0
 49 345.848707828 123.143062089 420 215 420 c 0
 306.848707828 420 381 345.856937911 381 254 c 0
EndSplineSet
EndChar

StartChar: ellipsis
Encoding: 273 8230 82
Width: 699
GlyphClass: 1
Flags: W
HStem: -12 129<20.7332 116.273 251.102 347.273 481.727 577.266>
VStem: 4 129<4.73416 100.273> 235 129<4.12359 100.087> 465 129<4.73321 100.273>
LayerCount: 2
Fore
SplineSet
364 52 m 0
 364 17.6575289711 336.049057869 -12 299 -12 c 0
 261.475656365 -12 235 18.1886262026 235 52 c 0
 235 87.8208985391 262.156104346 117 299 117 c 0
 335.352290193 117 364 88.3511535084 364 52 c 0
133 52 m 0
 133 17.6575289711 105.049057869 -12 68 -12 c 0
 32.9598162862 -12 4 16.9625092112 4 52 c 0
 4 89.0476277456 33.6560879988 117 68 117 c 0
 104.352290193 117 133 88.3511535084 133 52 c 0
594 52 m 0
 594 16.9598162862 565.037490789 -12 530 -12 c 0
 492.952372254 -12 465 17.6560879988 465 52 c 0
 465 88.3522901931 493.648846492 117 530 117 c 0
 564.342471029 117 594 89.0490578687 594 52 c 0
EndSplineSet
EndChar

StartChar: perthousand
Encoding: 274 8240 83
Width: 1406
GlyphClass: 1
Flags: W
HStem: -12 74<692.292 819.204 1093.29 1220.2> 0 21G<234 336.012> 277 74<690.711 818.734 1091.71 1219.73> 316 75<204.481 331.541> 605 75<204.483 331.541> 648 20G<687.988 790>
VStem: 86 74<434.472 561.53> 234 88<0 88> 375 74<434.909 561.091> 574 74<105.614 233.673> 702 88<580 668> 863 74<105.796 233.484> 975 74<105.614 233.673> 1264 74<105.796 233.484>
DStem2: 234 0 322 0 0.573791 0.819001<50.4936 815.627>
LayerCount: 2
Fore
SplineSet
1049 169 m 0xa3fc
 1049 110.454507157 1095.7012077 62 1157 62 c 0
 1216.26610186 62 1264 109.734463192 1264 169 c 0
 1264 230.296848301 1215.54744628 277 1157 277 c 0
 1096.41860632 277 1049 229.574593922 1049 169 c 0xa3fc
648 169 m 0
 648 110.454507157 694.701207703 62 756 62 c 0
 815.266101858 62 863 109.734463192 863 169 c 0
 863 230.296848301 814.547446281 277 756 277 c 0
 695.418606324 277 648 229.574593922 648 169 c 0
1338 169 m 0
 1338 68.8328236009 1257.16477777 -12 1157 -12 c 0
 1057.70458583 -12 975 67.1535334814 975 169 c 0
 975 273.88721512 1059.34111829 351 1157 351 c 0
 1255.59079789 351 1338 272.170295134 1338 169 c 0
937 169 m 0
 937 68.8328236009 856.164777767 -12 756 -12 c 0
 656.704585834 -12 574 67.1535334814 574 169 c 0
 574 273.88721512 658.341118293 351 756 351 c 0
 854.590797894 351 937 272.170295134 937 169 c 0
160 498 m 0
 160 438.278857566 209.17282865 391 268 391 c 0
 327.266101858 391 375 438.734463192 375 498 c 0
 375 557.266101858 327.265536808 605 268 605 c 0x1bfc
 209.173621331 605 160 557.721920517 160 498 c 0
234 0 m 1x47fc
 702 668 l 1
 790 668 l 1
 322 0 l 1
 234 0 l 1x47fc
449 498 m 0
 449 398.704585834 369.846466519 316 268 316 c 0
 167.000315076 316 86 397.009401854 86 498 c 0
 86 598.999684924 167.009401854 680 268 680 c 0x1bfc
 369.849965307 680 449 597.291854123 449 498 c 0
EndSplineSet
EndChar

StartChar: guilsinglleft
Encoding: 275 8249 84
Width: 355
GlyphClass: 1
Flags: W
VStem: 217 104<357 461>
DStem2: 45 250 140 240 0.633619 0.773645<52.4573 272.222> 140 240 45 250 0.44036 -0.897821<0 183.087>
LayerCount: 2
Fore
SplineSet
148 40 m 1
 45 250 l 1
 217 461 l 1
 321 461 l 1
 140 240 l 1
 237 40 l 1
 148 40 l 1
EndSplineSet
EndChar

StartChar: guilsinglright
Encoding: 276 8250 85
Width: 347
GlyphClass: 1
Flags: W
VStem: 9 104<40 144>
DStem2: 9 40 113 40 0.633619 0.773645<65.8964 285.661> 182 461 93 461 0.44036 -0.897821<0 183.087>
LayerCount: 2
Fore
SplineSet
9 40 m 1
 190 261 l 1
 93 461 l 1
 182 461 l 1
 285 251 l 1
 113 40 l 1
 9 40 l 1
EndSplineSet
EndChar

StartChar: fraction
Encoding: 277 8260 86
Width: 444
GlyphClass: 1
Flags: W
HStem: 0 21G<-47 55.012> 648 20G<406.988 509>
VStem: -47 88<0 88> 421 88<580 668>
DStem2: -47 0 41 0 0.573791 0.819001<50.4936 815.627>
LayerCount: 2
Fore
SplineSet
-47 0 m 1
 421 668 l 1
 509 668 l 1
 41 0 l 1
 -47 0 l 1
EndSplineSet
EndChar

StartChar: ordfeminine
Encoding: 170 170 87
Width: 363
GlyphClass: 1
Flags: W
HStem: 396 51<146.288 230.952> 643 48<175.345 269.823>
VStem: 72 73<448.686 508.529> 255 59<403 441> 275 67<538.756 636.281>
LayerCount: 2
Fore
SplineSet
179 447 m 0xe0
 204.739288598 447 239.691408194 448.006354704 259 518 c 2
 262 529 l 1
 239 526 l 2
 174.716219248 518.987223918 145 507.353307923 145 476 c 0
 145 456.666666667 156.333333333 447 179 447 c 0xe0
252 441 m 1
 245.622565865 430.871134021 223.666666667 396 159 396 c 0
 105.848796526 396 72 425.746979312 72 468 c 0
 72 532.630457248 125.506261581 560.096876336 272 577 c 1
 274 585 275 593 275 601 c 0
 275 643 233.82010582 643 221 643 c 0
 208.025453579 643 180.548504154 638.824619881 165 606 c 1
 108 624 l 1
 130 668.666666667 171 691 231 691 c 0
 274.806432315 691 342 678.947452086 342 605 c 0xe8
 342 564.810426029 314 502.713383495 314 403 c 1
 255 403 l 1xf0
 252 441 l 1
EndSplineSet
EndChar

StartChar: guillemotleft
Encoding: 171 171 88
Width: 563
GlyphClass: 1
Flags: W
VStem: 217 104<357 461> 425 104<357 461>
DStem2: 45 250 140 240 0.633619 0.773645<52.4573 272.222> 140 240 45 250 0.44036 -0.897821<0 183.087> 253 250 348 240 0.633619 0.773645<52.4573 272.222> 348 240 253 250 0.44036 -0.897821<0 183.087>
LayerCount: 2
Fore
SplineSet
148 40 m 1
 45 250 l 1
 217 461 l 1
 321 461 l 1
 140 240 l 1
 237 40 l 1
 148 40 l 1
356 40 m 1
 253 250 l 1
 425 461 l 1
 529 461 l 1
 348 240 l 1
 445 40 l 1
 356 40 l 1
EndSplineSet
EndChar

StartChar: logicalnot
Encoding: 172 172 89
Width: 667
GlyphClass: 1
Flags: W
HStem: 317 79<75 490>
VStem: 490 81<90 317>
LayerCount: 2
Fore
SplineSet
490 90 m 1
 490 317 l 1
 75 317 l 1
 75 396 l 1
 571 396 l 1
 571 90 l 1
 490 90 l 1
EndSplineSet
EndChar

StartChar: registered
Encoding: 174 174 90
Width: 814
GlyphClass: 1
Flags: W
HStem: -12 61<310.967 521.035> 301 58<357 399> 469 61<357 478.079> 619 61<312.419 519.584>
VStem: 70 62<228.061 436.981> 281 76<162 301 359 469> 491 76<371.519 456.241> 501 86<162 248> 700 62<228.062 436.978>
DStem2: 479 311 399 301 0.586879 -0.809675<0 133.553>
LayerCount: 2
Fore
SplineSet
491 413 m 0xfe80
 491 430.793281654 491 469 405 469 c 2
 357 469 l 1
 357 359 l 1
 410 359 l 2
 437.669938773 359 491 362.175917098 491 413 c 0xfe80
567 414 m 0
 567 367.504367832 543.017489005 329.531378396 479 311 c 1
 587 162 l 1
 501 162 l 1xfd80
 399 301 l 1
 357 301 l 1
 357 162 l 1
 281 162 l 1
 281 530 l 1
 393 530 l 2
 530.223497356 530 567 491.773184007 567 414 c 0
132 333 m 0
 132 181.471114324 253.591287717 49 416 49 c 0
 578.411196226 49 700 181.473664913 700 333 c 0
 700 490.724886538 572.466845088 619 416 619 c 0
 259.539936987 619 132 490.731713688 132 333 c 0
762 333 m 0
 762 145.202155373 609.116128485 -12 416 -12 c 0
 222.891088715 -12 70 145.194890274 70 333 c 0
 70 524.634172284 224.110206381 680 416 680 c 0
 607.89790469 680 762 524.626024498 762 333 c 0
EndSplineSet
EndChar

StartChar: macron
Encoding: 175 175 91
Width: 382
GlyphClass: 1
Flags: W
HStem: 601 67<133 395>
VStem: 119 290
LayerCount: 2
Fore
SplineSet
119 601 m 1
 133 668 l 1
 409 668 l 1
 395 601 l 1
 119 601 l 1
EndSplineSet
EndChar

StartChar: degree
Encoding: 176 176 92
Width: 358
GlyphClass: 1
Flags: W
HStem: 408 63<172.34 274.906> 617 63<171.104 275.562>
VStem: 87 63<493.341 595.907> 296 63<492.103 596.561>
LayerCount: 2
Fore
SplineSet
150 544 m 0
 150 503.590603533 182.590203676 471 223 471 c 0
 265.94748501 471 296 504.869999469 296 544 c 0
 296 585.696921638 264.694992859 617 223 617 c 0
 183.87184052 617 150 586.949260267 150 544 c 0
359 544 m 0
 359 472.574472775 301.359816179 408 223 408 c 0
 148.37750738 408 87 469.384587002 87 544 c 0
 87 622.362117459 151.576856492 680 223 680 c 0
 298.231026912 680 359 619.223267633 359 544 c 0
EndSplineSet
EndChar

StartChar: plusminus
Encoding: 177 177 93
Width: 653
GlyphClass: 1
Flags: W
HStem: 0 79<65 538> 270 79<65 262 341 538> 476 20G<262 341>
VStem: 262 79<124 270 349 496>
LayerCount: 2
Fore
SplineSet
65 0 m 1
 65 79 l 1
 538 79 l 1
 538 0 l 1
 65 0 l 1
262 124 m 1
 262 270 l 1
 65 270 l 1
 65 349 l 1
 262 349 l 1
 262 496 l 1
 341 496 l 1
 341 349 l 1
 538 349 l 1
 538 270 l 1
 341 270 l 1
 341 124 l 1
 262 124 l 1
EndSplineSet
EndChar

StartChar: uni00B2
Encoding: 178 178 94
Width: 384
GlyphClass: 1
Flags: W
HStem: 403 58<168 335> 676 21G<119 188.476> 736 50<202.913 302.274>
VStem: 312 70<620.992 726.179>
LayerCount: 2
Fore
SplineSet
382 689 m 0
 382 615.87582439 313.195872307 532.893101822 168 461 c 1
 347 461 l 1
 335 403 l 1
 59 403 l 1
 71 457 l 1
 234.295987134 547.333950329 312 610.222463283 312 684 c 0
 312 718.73847379 286.339538523 736 257 736 c 0
 242.028074404 736 197.9522517 731.133823128 179 676 c 1
 119 695 l 1
 132.145017794 727.475926316 168.280689234 786 258 786 c 0
 285.407689746 786 382 779.574917994 382 689 c 0
EndSplineSet
EndChar

StartChar: uni00B3
Encoding: 179 179 95
Width: 394
GlyphClass: 1
Flags: W
HStem: 396 51<170.043 281.143> 483 20G<87 154.337> 572 54<205 284.863> 736 50<199.579 307.667>
VStem: 87 64<468.044 487.859> 298 69<464.555 558.452> 317 68<642.861 725.685>
LayerCount: 2
Fore
SplineSet
367 519 m 0xfc
 367 430.871801231 287.868207907 396 220 396 c 0
 191.973382287 396 114.435829555 403.692511336 87 486 c 1
 151 503 l 1
 157.674883079 480.114686587 175.534428239 447 223 447 c 0
 253.898806991 447 298 461.118611587 298 513 c 0xfc
 298 527.534293553 298 572 217 572 c 2
 194 572 l 1
 205 626 l 1
 221 626 l 1
 301.411065538 630.467281419 317 652.023801718 317 682 c 0
 317 703.521992899 308.614851698 736 258 736 c 0
 215.141590543 736 193.792995232 715.714061551 178 683 c 1
 120 701 l 1
 137.769169363 738.230640571 176.944073752 786 261 786 c 0
 300.690505694 786 385 775.786131803 385 689 c 0
 385 667.705119337 376.960612867 624.926116684 317 602 c 1xfa
 333.303150934 594.430679923 367 572.334651612 367 519 c 0xfc
EndSplineSet
EndChar

StartChar: acute
Encoding: 180 180 96
Width: 271
GlyphClass: 1
Flags: W
HStem: 572 135
VStem: 113 184
LayerCount: 2
Fore
SplineSet
259 707 m 0
 274.843839153 707 297 697.634388677 297 669 c 0
 297 649.788548753 297 645.333333333 199 580 c 2
 187 572 l 1
 113 572 l 1
 128.5 589 l 2
 129.522048182 590.120956071 213.985144224 680.844409335 234 698 c 0
 241.333333333 704 249.666666667 707 259 707 c 0
EndSplineSet
EndChar

StartChar: uni03BC
Encoding: 278 956 97
Width: 543
GlyphClass: 1
Flags: W
HStem: -162 21G<-26 66.1748> -12 69<152.51 280.503> 0 21G<344.529 415.283> 475 20G<109.738 202 426.769 517>
VStem: -26 88<-162 -74> 114 88<407 495> 346 65<0 32.6887> 431 86<409 495>
DStem2: -26 -162 62 -162 0.207912 0.978148<18.2962 228.735 289.956 671.751> 291.615 -162 376.566 -162 0.207912 0.978148<278.558 671.623>
LayerCount: 2
Fore
SplineSet
195 -12 m 0xdf
 182.506448908 -12 129.513319222 -8.79791832501 105 44 c 1
 62 -162 l 1
 -26 -162 l 1
 114 495 l 1
 202 495 l 1
 138 196 l 2
 111.572839191 63.8641959575 178.308321895 57 224 57 c 0xdf
 291.774446394 57 348.112181658 104.856847738 376 235 c 2
 431 495 l 1
 517 495 l 1
 411 0 l 1
 346 0 l 1xbf
 341 68 l 1
 286.918976336 -6.11103242793 238.289586287 -12 195 -12 c 0xdf
EndSplineSet
EndChar

StartChar: paragraph
Encoding: 182 182 98
Width: 522
GlyphClass: 1
Flags: W
HStem: -162 21G<91 178.252 268 355.226> 600 68<336 429 512 553>
VStem: 91 83<-162 -79> 268 83<-162 -79>
DStem2: 91 -162 174 -162 0.207912 0.978148<17.2567 467.766> 268 -162 351 -162 0.207912 0.978148<17.2567 778.822>
LayerCount: 2
Fore
SplineSet
74 438 m 0
 74 556.894600369 187.058742662 668 308 668 c 2
 568 668 l 1
 553 600 l 1
 512 600 l 1
 351 -162 l 1
 268 -162 l 1
 429 600 l 1
 336 600 l 1
 174 -162 l 1
 91 -162 l 1
 188 294 l 1
 116.831854664 310.423418154 74 368.454164463 74 438 c 0
EndSplineSet
EndChar

StartChar: periodcentered
Encoding: 183 183 99
Width: 235
GlyphClass: 1
Flags: W
HStem: 183 129<69.7342 165.273>
VStem: 53 129<199.727 295.267>
LayerCount: 2
Fore
SplineSet
182 248 m 0
 182 211.647709807 153.351153508 183 117 183 c 0
 82.6575289711 183 53 210.950942131 53 248 c 0
 53 283.040183714 81.9625092112 312 117 312 c 0
 154.047627746 312 182 282.343912001 182 248 c 0
EndSplineSet
EndChar

StartChar: cedilla
Encoding: 184 184 100
Width: 294
GlyphClass: 1
Flags: W
HStem: -181 41<-11.0609 105.044> -82 39<60.7791 143.216>
VStem: 113 63<-132.416 -83.4618>
LayerCount: 2
Fore
SplineSet
176 -96 m 0
 176 -109.653129994 162.973243672 -181 63 -181 c 0
 38.3333333333 -181 9.33333333333 -175 -24 -163 c 1
 -1 -126 l 1
 27.3110277019 -137.657481995 44.3140376289 -140 56 -140 c 0
 101.200533897 -140 113 -113.092535086 113 -104 c 0
 113 -96.5082339488 108.998143846 -82 78 -82 c 0
 53.3800753788 -82 55.1199246212 -87 43 -87 c 0
 31 -87 25 -81.3333333333 25 -70 c 0
 25 -66 26.6666666667 -61.6666666667 30 -57 c 2
 98 25 l 1
 128 4 l 1
 87 -45 l 1
 99.0849717333 -43.2735754667 105.172488529 -43 111 -43 c 0
 173.606081551 -43 176 -88.9703544992 176 -96 c 0
EndSplineSet
EndChar

StartChar: uni00B9
Encoding: 185 185 101
Width: 257
GlyphClass: 1
Flags: W
HStem: 682 48<126 198.222>
VStem: 139 69<403 472>
DStem2: 139 403 208 403 0.207912 0.978148<14.3459 285.378>
LayerCount: 2
Fore
SplineSet
126 730 m 1
 195.692746244 730 217.929967573 752.859935147 231 779 c 1
 288 779 l 1
 208 403 l 1
 139 403 l 1
 199 682 l 1
 116 682 l 1
 126 730 l 1
EndSplineSet
EndChar

StartChar: ordmasculine
Encoding: 186 186 102
Width: 383
GlyphClass: 1
Flags: W
HStem: 399 53<171.615 263.943> 639 53<185.788 279.853>
VStem: 87 69<467.116 607.834> 295 69<484.071 623.388>
LayerCount: 2
Fore
SplineSet
156 529 m 0
 156 511.789334992 160.027896136 452 216 452 c 0
 251.923058635 452 295 482.740299427 295 563 c 0
 295 577.84956665 291.566004295 639 235 639 c 0
 233.645710518 639 156 638.758303424 156 529 c 0
364 567 m 0
 364 425.913989047 256.923590384 399 210 399 c 0
 188.398158872 399 87 405.270429095 87 523 c 0
 87 661.567682378 189.527296796 692 241 692 c 0
 264.132818946 692 364 685.157648002 364 567 c 0
EndSplineSet
EndChar

StartChar: guillemotright
Encoding: 187 187 103
Width: 555
GlyphClass: 1
Flags: W
VStem: 9 104<40 144> 217 104<40 144>
DStem2: 9 40 113 40 0.633619 0.773645<65.8964 285.661> 182 461 93 461 0.44036 -0.897821<0 183.087> 217 40 321 40 0.633619 0.773645<65.8964 285.661> 390 461 301 461 0.44036 -0.897821<0 183.087>
LayerCount: 2
Fore
SplineSet
9 40 m 1
 190 261 l 1
 93 461 l 1
 182 461 l 1
 285 251 l 1
 113 40 l 1
 9 40 l 1
217 40 m 1
 398 261 l 1
 301 461 l 1
 390 461 l 1
 493 251 l 1
 321 40 l 1
 217 40 l 1
EndSplineSet
EndChar

StartChar: onequarter
Encoding: 188 188 104
Width: 824
GlyphClass: 1
Flags: W
HStem: 0 21G<100 202.012 574 648.186> 86 57<492 592 674 727> 571 47<122 194.222> 647 21G<220.465 284 553.988 656>
VStem: 100 88<0 88> 136 68<292 360> 568 88<580 668> 574 70<0 70>
DStem2: 73.9335 0 141.933 0 0.207912 0.978148<312.661 583.693 637.584 684.249> 100 0 188 0 0.573791 0.819001<50.4936 815.627> 411 140 492 143 0.708606 0.705604<59.5139 264.571> 574 0 644 0 0.207912 0.978148<14.5538 87.8631 160.666 295.575>
LayerCount: 2
Fore
SplineSet
492 143 m 1xf0
 604 143 l 1
 636 289 l 1
 492 143 l 1xf0
574 0 m 1xf1
 592 86 l 1
 399 86 l 1
 411 140 l 1
 647 375 l 1
 724 375 l 1
 674 143 l 1
 739 143 l 1
 727 86 l 1
 662 86 l 1
 644 0 l 1
 574 0 l 1xf1
122 618 m 1
 191.692746244 618 213.929967573 640.859935147 227 667 c 1
 284 667 l 1
 204 292 l 1
 136 292 l 1xf4
 195 571 l 1
 112 571 l 1
 122 618 l 1
100 0 m 1xfa
 568 668 l 1
 656 668 l 1
 188 0 l 1
 100 0 l 1xfa
EndSplineSet
Ligature2: "'frac' Diagonal Fractions lookup 10 subtable" one slash four
EndChar

StartChar: onehalf
Encoding: 189 189 105
Width: 802
GlyphClass: 1
Flags: W
HStem: 0 58<520 687> 333 49<555.217 654.29> 571 47<122 192.667> 647 21G<220.465 284 546.988 649>
VStem: 93 88<0 88> 135 69<292 361> 561 88<580 668> 664 71<215.454 322.677>
DStem2: 72.9335 0 141.933 0 0.207912 0.978148<312.869 583.693 636.729 684.457> 93 0 181 0 0.573791 0.819001<50.4936 815.627>
LayerCount: 2
Fore
SplineSet
735 286 m 0xf3
 735 241.298384419 707.38182616 151.69091308 520 58 c 1
 699 58 l 1
 687 0 l 1
 411 0 l 1
 422 54 l 1
 593.406134289 148.820414713 664 209.442501037 664 280 c 0
 664 314.367309609 637.840118789 333 608 333 c 0
 595.567712321 333 550.262565123 329.036553085 531 273 c 1
 471 292 l 1
 484.528887509 325.424310317 520.627006576 382 610 382 c 0
 639.00467477 382 735 375.257756326 735 286 c 0xf3
122 618 m 1
 191.692746244 618 213.929967573 640.859935147 227 667 c 1
 284 667 l 1
 204 292 l 1
 135 292 l 1xf7
 194 571 l 1
 112 571 l 1
 122 618 l 1
93 0 m 1xfb
 561 668 l 1
 649 668 l 1
 181 0 l 1
 93 0 l 1xfb
EndSplineSet
Ligature2: "'frac' Diagonal Fractions lookup 10 subtable" one slash two
EndChar

StartChar: threequarters
Encoding: 190 190 106
Width: 906
GlyphClass: 1
Flags: W
HStem: 0 21G<193 295.012 656 730.419> 86 57<574 675 756 809> 291 51<165.043 276.143> 467 54<200 279.863> 631 50<194.579 302.667> 648 20G<646.988 749>
VStem: 82 64<363.044 382.859> 193 88<0 88> 293 69<359.555 453.452> 312 68<537.861 620.685> 656 70<0 70> 661 88<580 668>
DStem2: 193 0 281 0 0.573791 0.819001<50.4936 815.627> 493 140 574 143 0.710097 0.704104<59.6301 264.683> 656 0 726 0 0.207912 0.978148<14.5538 88.071 160.666 295.575>
LayerCount: 2
Fore
SplineSet
574 143 m 1xf3
 687 143 l 1
 718 289 l 1
 574 143 l 1xf3
656 0 m 1xf320
 675 86 l 1
 482 86 l 1
 493 140 l 1
 730 375 l 1
 806 375 l 1
 756 143 l 1
 821 143 l 1
 809 86 l 1
 745 86 l 1
 726 0 l 1
 656 0 l 1xf320
193 0 m 1
 661 668 l 1
 749 668 l 1xf710
 281 0 l 1
 193 0 l 1
362 414 m 0xfb80
 362 325.871801231 282.868207907 291 215 291 c 0
 186.973382287 291 109.435829555 298.692511336 82 381 c 1
 146 398 l 1
 152.674883079 375.114686587 170.534428239 342 218 342 c 0
 248.898806991 342 293 356.118611587 293 408 c 0xfb80
 293 422.534293553 293 467 212 467 c 2
 189 467 l 1
 200 521 l 1
 216 521 l 1
 296.411065538 525.467281419 312 547.023801718 312 577 c 0
 312 598.521992899 303.614851698 631 253 631 c 0
 210.141590543 631 188.792995232 610.714061551 173 578 c 1
 115 596 l 1
 132.769169363 633.230640571 171.944073752 681 256 681 c 0
 295.690505694 681 380 670.786131803 380 584 c 0
 380 562.705119337 371.960612867 519.926116684 312 497 c 1xfb40
 328.303150934 489.430679923 362 467.334651612 362 414 c 0xfb80
EndSplineSet
Ligature2: "'frac' Diagonal Fractions lookup 10 subtable" three slash four
EndChar

StartChar: less
Encoding: 60 60 107
Width: 613
GlyphClass: 1
Flags: W
HStem: 0 21G<466.587 511> 476 20G<466.587 511>
VStem: 38 105<160.5 335.5>
DStem2: 143 248 38 213 0.911813 -0.410605<0 400.423>
LayerCount: 2
Fore
SplineSet
511 0 m 1
 38 213 l 1
 38 283 l 1
 511 496 l 1
 511 406 l 1
 143 248 l 1
 511 90 l 1
 511 0 l 1
EndSplineSet
EndChar

StartChar: equal
Encoding: 61 61 108
Width: 658
GlyphClass: 1
Flags: W
HStem: 121 79<63 559> 307 79<63 559>
LayerCount: 2
Fore
SplineSet
63 121 m 1
 63 200 l 1
 559 200 l 1
 559 121 l 1
 63 121 l 1
63 307 m 1
 63 386 l 1
 559 386 l 1
 559 307 l 1
 63 307 l 1
EndSplineSet
EndChar

StartChar: greater
Encoding: 62 62 109
Width: 613
GlyphClass: 1
Flags: W
HStem: 0 21G<83 127.413> 476 20G<83 127.413>
VStem: 451 105<160.5 335.5>
DStem2: 83 90 83 0 0.911813 0.410605<0 400.423>
LayerCount: 2
Fore
SplineSet
83 0 m 1
 83 90 l 1
 451 248 l 1
 83 406 l 1
 83 496 l 1
 556 283 l 1
 556 213 l 1
 83 0 l 1
EndSplineSet
EndChar

StartChar: question
Encoding: 63 63 110
Width: 527
GlyphClass: 1
Flags: W
HStem: -12 129<139.16 235.671> 500 21G<101.833 178.333> 609 70<235.733 400.88>
VStem: 123 130<5.37925 99.8672> 433 91<474.263 579.534>
LayerCount: 2
Fore
SplineSet
253 53 m 0
 253 15.5328868568 221.920045537 -12 188 -12 c 0
 140.748347464 -12 123 27.6073057173 123 52 c 0
 123 95.7181324181 159.540582705 117 188 117 c 0
 222.632537312 117 253 88.4573727051 253 53 c 0
332 679 m 0
 357.182702485 679 524 673.690559735 524 533 c 0
 524 378.973297421 344.064214697 365.649234802 292.5 292.5 c 0
 274.099099099 266.396396396 274.099099099 266.396396396 255 190 c 1
 170 190 l 1
 175.265260142 213.69367064 176.121754153 219.095787374 177 227 c 0
 197.801133158 318.204968464 235.711884283 366.493273991 342 421 c 0
 366.597222222 433.65 433 467.8 433 527 c 0
 433 583.621172691 380.287955575 609 329 609 c 0
 245 609 190.666666667 572.666666667 166 500 c 1
 89 524 l 1
 112.228897077 588.079716075 173.175296897 679 332 679 c 0
EndSplineSet
EndChar

StartChar: at
Encoding: 64 64 111
Width: 784
GlyphClass: 1
Flags: W
HStem: -12 60<298.988 516.85> 155 73<304.534 400.501> 155 64<526.313 634.714> 446 73<360.347 474.363> 619 61<305.244 519.625>
VStem: 65 62<218.273 438.85> 213 81<239.274 372.144> 682 62<274.688 460.8>
DStem2: 378.393 -12 461.045 -12 0.207912 0.978148<293.967 464.165>
LayerCount: 2
Fore
SplineSet
294 287 m 0xdf
 294 236.956025353 330.215544489 228 346 228 c 0
 361.410722201 228 433.390713575 240.953567874 453 339 c 0
 460.601059103 374.241274025 474.771521658 440.971847459 475 442 c 1
 460.696465934 444.860706813 446.824074362 446 432 446 c 0
 341.537753707 446 294 361.024797074 294 287 c 0xdf
127 334 m 0
 127 135.514129959 276.632523559 48 412 48 c 0
 459.333333333 48 504.333333333 60.3333333333 547 85 c 1
 547 16 l 1
 505 -2.66666666667 460.666666667 -12 414 -12 c 0
 254.980086938 -12 65 80.2374850238 65 334 c 0
 65 525.19192963 219.793092326 680 411 680 c 0
 548.357996327 680 744 581.345818498 744 366 c 0
 744 160.40546056 583.841224933 155 567 155 c 0xbf
 515.336488278 155 464.092506435 178.862827727 454 225 c 1
 441.355735773 207.978875079 396.350927307 155 326 155 c 0xdf
 292.736828867 155 213 173.118675668 213 275 c 0
 213 412.765625251 311.322844567 519 452 519 c 0
 477.85916942 519 520.685758508 515.724160517 569 499 c 1
 528 303 l 2
 521.21793887 273.611068437 520 267.324049078 520 258 c 0
 520 236.435715913 544.370386861 219 574 219 c 0xbf
 655.526591415 219 682 304.951036038 682 368 c 0
 682 500.541001564 564.899198719 619 411 619 c 0
 258.81467341 619 127 496.907584016 127 334 c 0
EndSplineSet
EndChar

StartChar: colon
Encoding: 58 58 112
Width: 208
GlyphClass: 1
Flags: W
HStem: -12 129<5.73321 101.273> 375 129<87.7342 183.273>
VStem: -11 129<4.73416 100.273> 71 129<391.727 487.267>
LayerCount: 2
Fore
SplineSet
118 52 m 0xe0
 118 17.6575289711 90.0490578687 -12 53 -12 c 0
 17.9598162862 -12 -11 16.9625092112 -11 52 c 0
 -11 89.0476277456 18.6560879988 117 53 117 c 0
 89.3522901931 117 118 88.3511535084 118 52 c 0xe0
200 440 m 0xd0
 200 403.647709807 171.351153508 375 135 375 c 0
 100.657528971 375 71 402.950942131 71 440 c 0
 71 475.040183714 99.9625092112 504 135 504 c 0
 172.047627746 504 200 474.343912001 200 440 c 0xd0
EndSplineSet
EndChar

StartChar: bracketleft
Encoding: 91 91 114
Width: 317
GlyphClass: 1
Flags: W
HStem: -161 74<79 188> 593 75<224 348>
DStem2: -20 -161 63.2708 -161 0.207912 0.978148<92.9662 788.254>
LayerCount: 2
Fore
SplineSet
-20 -161 m 1
 156 668 l 1
 363 668 l 1
 348 593 l 1
 224 593 l 1
 79 -87 l 1
 204 -87 l 1
 188 -161 l 1
 -20 -161 l 1
EndSplineSet
EndChar

StartChar: backslash
Encoding: 92 92 115
Width: 519
GlyphClass: 1
Flags: W
HStem: 0 21G<347.216 442> 648 20G<95 189.784>
DStem2: 182 668 95 668 0.362716 -0.9319<0 685.259>
LayerCount: 2
Fore
SplineSet
355 0 m 1
 95 668 l 1
 182 668 l 1
 442 0 l 1
 355 0 l 1
EndSplineSet
EndChar

StartChar: bracketright
Encoding: 93 93 116
Width: 317
GlyphClass: 1
Flags: W
HStem: -161 74<-47 78> 593 75<113 223>
DStem2: 62.2708 -161 145 -161 0.207912 0.978148<75.6532 770.941>
LayerCount: 2
Fore
SplineSet
-63 -161 m 1
 -47 -87 l 1
 78 -87 l 1
 223 593 l 1
 98 593 l 1
 113 668 l 1
 320 668 l 1
 145 -161 l 1
 -63 -161 l 1
EndSplineSet
EndChar

StartChar: asciicircum
Encoding: 94 94 117
Width: 552
GlyphClass: 1
Flags: W
HStem: 569 99<182.5 357.5>
DStem2: 47 311 136 311 0.460099 0.887867<40.9488 331.672> 308 668 270 569 0.460099 -0.887867<70.4151 361.138>
LayerCount: 2
Fore
SplineSet
47 311 m 1
 232 668 l 1
 308 668 l 1
 493 311 l 1
 404 311 l 1
 270 569 l 1
 136 311 l 1
 47 311 l 1
EndSplineSet
EndChar

StartChar: underscore
Encoding: 95 95 118
Width: 413
GlyphClass: 1
Flags: W
HStem: -79 79<-32 344>
LayerCount: 2
Fore
SplineSet
-32 -79 m 1
 -32 0 l 1
 344 0 l 1
 344 -79 l 1
 -32 -79 l 1
EndSplineSet
EndChar

StartChar: grave
Encoding: 96 96 119
Width: 272
GlyphClass: 1
Flags: W
HStem: 571 136
VStem: 134 144
LayerCount: 2
Fore
SplineSet
134 669 m 0
 134 698.679970852 157.466090663 707 172 707 c 0
 194.64516129 707 194.64516129 707 268.5 586.5 c 2
 278 571 l 1
 210 571 l 1
 196 585.5 l 2
 154.549382716 628.430996473 134 649.714285714 134 669 c 0
EndSplineSet
EndChar

StartChar: exclam
Encoding: 33 33 120
Width: 284
GlyphClass: 1
Flags: W
HStem: -12 129<43.5878 139.022> 648 20G<172.723 268>
VStem: 27 129<4.23479 100.517> 177 91<577 668>
LayerCount: 2
Fore
SplineSet
156 52 m 0
 156 21.3813187386 131.620548154 -12 91 -12 c 0
 60.3813187386 -12 27 12.3794518459 27 53 c 0
 27 85.976699608 52.3521085896 117 92 117 c 0
 126.342471029 117 156 89.0490578687 156 52 c 0
95 195 m 1
 140 495 l 1
 177 668 l 1
 268 668 l 1
 232 495 l 1
 149 195 l 1
 95 195 l 1
EndSplineSet
EndChar

StartChar: quotedbl
Encoding: 34 34 121
Width: 334
GlyphClass: 1
Flags: W
HStem: 447 221<109 161 250 302>
VStem: 109 52<447 557.5> 250 52<447 557.5>
LayerCount: 2
Fore
SplineSet
109 447 m 1
 95 668 l 1
 175 668 l 1
 161 447 l 1
 109 447 l 1
250 447 m 1
 236 668 l 1
 316 668 l 1
 302 447 l 1
 250 447 l 1
EndSplineSet
EndChar

StartChar: numbersign
Encoding: 35 35 122
Width: 634
GlyphClass: 1
Flags: W
HStem: 0 21G<136 220.791 341 425.791> 172 81<48 161 254 365 459 571> 415 81<82 195 288 399 493 605> 648 20G<227.209 312 432.209 517>
VStem: 136 82<0 82> 230 82<586 668> 341 82<0 82> 435 82<586 668>
DStem2: 136 0 218 0 0.139346 0.990244<11.4263 173.806 266.974 419.173 512.341 674.581> 341 0 423 0 0.139346 0.990244<11.4263 173.666 266.974 419.033 512.341 674.581>
LayerCount: 2
Fore
SplineSet
254 253 m 1
 377 253 l 1
 399 415 l 1
 276 415 l 1
 254 253 l 1
136 0 m 1
 161 172 l 1
 37 172 l 1
 48 253 l 1
 172 253 l 1
 195 415 l 1
 71 415 l 1
 82 496 l 1
 206 496 l 1
 230 668 l 1
 312 668 l 1
 288 496 l 1
 411 496 l 1
 435 668 l 1
 517 668 l 1
 493 496 l 1
 616 496 l 1
 605 415 l 1
 481 415 l 1
 459 253 l 1
 582 253 l 1
 571 172 l 1
 447 172 l 1
 423 0 l 1
 341 0 l 1
 365 172 l 1
 242 172 l 1
 218 0 l 1
 136 0 l 1
EndSplineSet
EndChar

StartChar: dollar
Encoding: 36 36 123
Width: 610
GlyphClass: 1
Flags: W
HStem: -5 79<275 383.712> 599 80<403 433.444> 608 80<230.429 336>
VStem: 88 95<450.869 563.205> 190 52<-80 -28> 366 52<698 750> 448 98<127.683 249.16>
DStem2: 190 -80 242 -80 0.207912 0.978148<10.8114 87.245 169.649 403.469 493.86 703.321 785.708 848.455>
LayerCount: 2
Fore
SplineSet
296 74 m 2x9e
 367.139234041 74 448 110.179995626 448 191 c 0
 448 244.113282792 416.588555438 274.044879123 324 304 c 1
 275 75 l 1
 278.333333333 74.3333333333 281.833333333 74 285.5 74 c 2
 296 74 l 2x9e
336 608 m 1xbe
 281.540144144 612.415663988 183 593.119660359 183 505 c 0
 183 482.806324111 183 438.869565217 293 403 c 1
 336 608 l 1xbe
546 204 m 0
 546 63.6290652883 407.060557165 -5 287 -5 c 2
 273 -5 l 2
 268.333333333 -5 263.333333333 -4.66666666667 258 -4 c 1
 242 -80 l 1
 190 -80 l 1
 208 4 l 1
 158.797767438 15.8764009631 72.1346897543 50.9420916661 37 153 c 1
 128 179 l 1
 136.676062314 152.971813057 160.591540749 108.140407868 225 86 c 1
 275 319 l 1
 144.053976519 358.853137581 88 400.23022088 88 503 c 0
 88 644.587738973 232.686452052 688 326 688 c 2
 339.5 688 l 2xbe
 343.833333333 688 348.333333333 687.666666667 353 687 c 1
 366 750 l 1
 418 750 l 1
 403 679 l 1
 446.481173791 669.155205934 527.471254516 640.824871061 563 563 c 1
 471 537 l 1
 459.880799182 558.311801569 436.227315534 585.144188818 386 599 c 1xde
 341 388 l 1
 469.639303628 349.755882705 546 309.685778928 546 204 c 0
EndSplineSet
EndChar

StartChar: percent
Encoding: 37 37 124
Width: 1000
GlyphClass: 1
Flags: W
HStem: -12 74<678.523 806.775> 0 21G<231 333.012> 277 74<696.638 826.955> 317 74<190.523 318.775> 606 74<208.638 338.955> 648 20G<684.988 787>
VStem: 82 74<426.857 554.121> 231 88<0 88> 373 75<444.843 571.36> 570 74<97.8573 225.121> 699 88<580 668> 861 75<115.843 242.36>
DStem2: 231 0 319 0 0.573791 0.819001<50.4936 815.627>
LayerCount: 2
Fore
SplineSet
644 159 m 0xa3f0
 644 104.655801642 684.718826294 62 742 62 c 0
 806.15960137 62 861 116.81356371 861 183 c 0
 861 235.728231632 821.527407739 277 764 277 c 0
 701.929509617 277 644 224.379997738 644 159 c 0xa3f0
936 190 m 0
 936 78.744889116 839.819825153 -12 734 -12 c 0
 636.434206232 -12 570 62.3246267484 570 150 c 0
 570 264.584842807 668.83254543 351 772 351 c 0
 867.656832314 351 936 278.792989459 936 190 c 0
156 488 m 0
 156 433.655801642 196.718826294 391 254 391 c 0
 318.15960137 391 373 445.81356371 373 512 c 0
 373 564.728231632 333.527407739 606 276 606 c 0x1bf0
 213.929509617 606 156 553.379997738 156 488 c 0
231 0 m 1x47f0
 699 668 l 1
 787 668 l 1
 319 0 l 1
 231 0 l 1x47f0
448 519 m 0
 448 407.744889116 351.819825153 317 246 317 c 0
 148.434206232 317 82 391.324626748 82 479 c 0
 82 593.584842807 180.83254543 680 284 680 c 0x1bf0
 379.656832314 680 448 607.792989459 448 519 c 0
EndSplineSet
EndChar

StartChar: ampersand
Encoding: 38 38 125
Width: 691
GlyphClass: 1
Flags: W
HStem: -12 78<137.295 310.329> 0 21G<492.116 619> 609 70<301.889 435.802>
VStem: 15 86<101.107 238.136> 182 88<447.652 577.213> 454 83<486.929 589> 529 87<305.18 360>
DStem2: 351 362 263 333 0.591049 -0.806636<0 174.989 277.008 384.206>
LayerCount: 2
Fore
SplineSet
101 165 m 0xb8
 101 140.211977724 109.554216136 66 212 66 c 0
 249.23133782 66 307.256487143 70.4019570501 400 145 c 1
 263 333 l 1
 202.398918151 313.953945705 101 266.865187986 101 165 c 0xb8
373 609 m 0
 355.677033126 609 270 604.71772854 270 520 c 0
 270 507.320097296 272.758734157 473.773236919 298.5 437 c 0
 305.5 427 310 420 312 416 c 1
 369.943418116 435.314472705 454 474.603106939 454 540 c 0x3c
 454 554.731072418 448.852310216 609 373 609 c 0
443 86 m 1
 330.61178153 -11.2590352141 241.043555733 -12 204 -12 c 0
 60.4791150161 -12 15 84.2330226538 15 162 c 0
 15 278.804472766 122.170215461 357.474804882 222 389 c 1
 201.096878323 422.677251591 182 466.237135986 182 513 c 0
 182 620.078647727 266.584025114 679 371 679 c 0
 389.919641132 679 537 675.043383646 537 552 c 0xbc
 537 496.39211842 516.791120352 427.625651806 351 362 c 1
 456 222 l 1
 471.280916224 240.059264629 507.462626799 288.208755995 529 360 c 1
 616 360 l 1
 603.770977099 319.491361641 573.808781108 245.510976385 503 157 c 1
 619 0 l 1
 507 0 l 1x7a
 443 86 l 1
EndSplineSet
EndChar

StartChar: quotesingle
Encoding: 39 39 126
Width: 193
GlyphClass: 1
Flags: W
HStem: 447 221<109 161>
VStem: 109 52<447 557.5>
LayerCount: 2
Fore
SplineSet
109 447 m 1
 95 668 l 1
 175 668 l 1
 161 447 l 1
 109 447 l 1
EndSplineSet
EndChar

StartChar: parenleft
Encoding: 40 40 127
Width: 301
GlyphClass: 1
Flags: W
HStem: -162 21G<78.3225 170> 648 20G<148.004 337>
VStem: 29 80<-36.0626 288.84> 258 79<589 668>
LayerCount: 2
Fore
SplineSet
109 124 m 0
 109 24.2923541087 133.492778357 -72.4984243601 170 -162 c 1
 93 -162 l 1
 63.6449774002 -94.1165102379 29 8.78463077715 29 131 c 0
 29 208.313028135 38.00743874 424.224459144 258 668 c 1
 337 668 l 1
 122.019481294 404.88951442 109 217.865715087 109 124 c 0
EndSplineSet
EndChar

StartChar: parenright
Encoding: 41 41 128
Width: 302
GlyphClass: 1
Flags: W
HStem: -162 21G<-53 119.554> 648 20G<115 213.333>
VStem: -53 81<-162 -81> 176 80<216.385 543.718>
LayerCount: 2
Fore
SplineSet
256 375 m 0
 256 235.337115434 211.107491673 42.7474679613 28 -162 c 1
 -53 -162 l 1
 165.043176517 104.858813051 176 295.234046665 176 382 c 0
 176 477.919966666 155.406128004 572.035445991 115 668 c 1
 192 668 l 1
 234.666666667 570.666666667 256 473 256 375 c 0
EndSplineSet
EndChar

StartChar: asterisk
Encoding: 42 42 129
Width: 439
GlyphClass: 1
Flags: W
HStem: 373 294
VStem: 106 289
DStem2: 135 615 106 566 0.866499 -0.499179<0 105.506> 119 442 157 399 0.743762 0.668444<0 105.737> 186.827 373 245.377 373 0.207912 0.978148<193.222 300.407> 289 493 236 470 0.413095 -0.910688<0 105.565> 283 550 289 493 0.993653 0.112489<0 105.571>
LayerCount: 2
Fore
SplineSet
280 373 m 1
 236 470 l 1
 157 399 l 1
 119 442 l 1
 198 513 l 1
 106 566 l 1
 135 615 l 1
 227 562 l 1
 249 667 l 1
 305 655 l 1
 283 550 l 1
 388 561 l 1
 395 505 l 1
 289 493 l 1
 332 396 l 1
 280 373 l 1
EndSplineSet
EndChar

StartChar: plus
Encoding: 43 43 130
Width: 619
GlyphClass: 1
Flags: W
HStem: 0 21G<250 330> 208 80<42 250 330 538> 476 20G<250 330>
VStem: 250 80<0 208 288 496>
LayerCount: 2
Fore
SplineSet
250 0 m 1
 250 208 l 1
 42 208 l 1
 42 288 l 1
 250 288 l 1
 250 496 l 1
 330 496 l 1
 330 288 l 1
 538 288 l 1
 538 208 l 1
 330 208 l 1
 330 0 l 1
 250 0 l 1
EndSplineSet
EndChar

StartChar: comma
Encoding: 44 44 131
Width: 209
GlyphClass: 1
Flags: W
HStem: -134 250
VStem: -44 61<-134 -73> -11 129<3.05591 99.3063>
DStem2: -44 -134 17 -134 0.516281 0.856419<31.4931 146.29>
LayerCount: 2
Fore
SplineSet
52 116 m 0xa0
 98.075086845 116 118 78.2746512906 118 51 c 0xa0
 118 38.8609215931 115.895083209 29.5795102145 102 7 c 2
 17 -134 l 1
 -44 -134 l 1xc0
 32 -9 l 1
 3.33333333333 1.66666666667 -11 22 -11 52 c 0
 -11 92.8169198989 21.6505677643 116 52 116 c 0xa0
EndSplineSet
EndChar

StartChar: hyphen
Encoding: 45 45 132
Width: 372
GlyphClass: 1
Flags: W
HStem: 208 81<49 323>
VStem: 31 310
LayerCount: 2
Fore
SplineSet
31 208 m 1
 49 289 l 1
 341 289 l 1
 323 208 l 1
 31 208 l 1
EndSplineSet
EndChar

StartChar: period
Encoding: 46 46 133
Width: 208
GlyphClass: 1
Flags: W
HStem: -12 129<15.7332 111.273>
VStem: -1 129<4.73416 100.273>
LayerCount: 2
Fore
SplineSet
128 52 m 0
 128 17.6575289711 100.049057869 -12 63 -12 c 0
 27.9598162862 -12 -1 16.9625092112 -1 52 c 0
 -1 89.0476277456 28.6560879988 117 63 117 c 0
 99.3522901931 117 128 88.3511535084 128 52 c 0
EndSplineSet
EndChar

StartChar: slash
Encoding: 47 47 134
Width: 371
GlyphClass: 1
Flags: W
HStem: 0 21G<-50 49.0359> 648 20G<339.964 439>
VStem: -50 87<0 87> 352 87<581 668>
DStem2: -50 0 37 0 0.515627 0.856813<44.8596 779.633>
LayerCount: 2
Fore
SplineSet
-50 0 m 1
 352 668 l 1
 439 668 l 1
 37 0 l 1
 -50 0 l 1
EndSplineSet
EndChar

StartChar: braceleft
Encoding: 123 123 135
Width: 322
GlyphClass: 1
Flags: W
HStem: -162 71<123.937 192> 220 67<37 72.8805> 596 72<261.016 353>
DStem2: 11.8798 -162 191.908 -162 0.207912 0.978148<45.5442 822.828> 11.8798 -162 99.0923 -162 0.207912 0.978148<102.072 370.869 478.894 792.395>
LayerCount: 2
Fore
SplineSet
149 -162 m 2
 54.5484355476 -162 16.8467954716 -135.198995661 41 -25 c 2
 73 125 l 2
 91.3742272552 212.787974664 62.0266040705 220 23 220 c 1
 37 287 l 1
 75.0708644862 287 109.568499398 293.938386013 128 382 c 2
 163 545 l 2
 183.781291748 642.672071214 218.050020662 668 325 668 c 2
 368 668 l 1
 353 596 l 1
 311 596 l 2
 270.037663464 596 258.072771281 585.595663584 247 533 c 2
 214 380 l 2
 207.196903656 347.031148489 192.669442365 276.807747991 106 254 c 1
 106 253 l 1
 178.066532319 232.409562195 168.818337055 169.056684418 160 127 c 2
 128 -26 l 2
 117.139731095 -77.8879514327 123.291951874 -91 165 -91 c 2
 207 -91 l 1
 192 -162 l 1
 149 -162 l 2
EndSplineSet
EndChar

StartChar: bar
Encoding: 124 124 136
Width: 289
GlyphClass: 1
Flags: W
HStem: -161 21G<96 177> 648 20G<96 177>
VStem: 96 81<-161 668>
LayerCount: 2
Fore
SplineSet
96 -161 m 1
 96 668 l 1
 177 668 l 1
 177 -161 l 1
 96 -161 l 1
EndSplineSet
EndChar

StartChar: braceright
Encoding: 125 125 137
Width: 322
GlyphClass: 1
Flags: W
HStem: -163 72<-47 44.9838> 218 67<233.087 269> 596 71<114 182.52>
DStem2: 30.3049 -163 116.856 -163 0.207912 0.978148<74.3174 387.284 496.625 764.434>
LayerCount: 2
Fore
SplineSet
-62 -163 m 1
 -47 -91 l 1
 -5 -91 l 2
 35.9623365363 -91 47.9272287191 -80.5956635845 59 -28 c 2
 92 125 l 2
 100.347818689 162.565184101 116.886395933 229.12799893 200 251 c 1
 200 252 l 1
 129.734781006 274.083354541 136.26997525 331.595266579 146 378 c 2
 181 542 l 2
 189.590850507 582.49972382 182.069613289 596 141 596 c 2
 99 596 l 1
 114 667 l 1
 157 667 l 2
 253.476826205 667 288.676192073 639.502388335 265 530 c 2
 233 380 l 2
 214.429843048 291.275916787 246.566684652 285 283 285 c 1
 269 218 l 1
 233.658683985 218 196.64671868 212.089878138 178 123 c 2
 143 -40 l 2
 122.218708252 -137.672071214 87.9499793377 -163 -19 -163 c 2
 -62 -163 l 1
EndSplineSet
EndChar

StartChar: asciitilde
Encoding: 126 126 138
Width: 539
GlyphClass: 1
Flags: W
HStem: 195 73<289.316 412.092> 249 74<113.63 247.738>
LayerCount: 2
Fore
SplineSet
500 297 m 1x80
 495.021084537 276.179080791 468.883203074 195 364 195 c 0x80
 283.148643764 195 232.629134013 249 164 249 c 0
 144.145736807 249 108.730784161 242.653920807 100 199 c 1
 25 221 l 1
 30.4478830502 243.782056392 56.9443239411 323 162 323 c 0x40
 255.939616619 323 302.398767219 268 363 268 c 0
 383.576787272 268 417.653126701 277.265633506 426 319 c 1
 500 297 l 1x80
EndSplineSet
EndChar

StartChar: exclamdown
Encoding: 161 161 139
Width: 283
GlyphClass: 1
Flags: W
HStem: -161 21G<0 95.2775> 390 129<128.727 224.267>
VStem: 0 91<-161 -70> 112 129<406.727 502.266>
LayerCount: 2
Fore
SplineSet
0 -161 m 1
 37 12 l 1
 119 311 l 1
 174 311 l 1
 128 12 l 1
 91 -161 l 1
 0 -161 l 1
241 455 m 0
 241 417.952372254 211.343912001 390 177 390 c 0
 140.647709807 390 112 418.648846492 112 455 c 0
 112 489.342471029 139.950942131 519 177 519 c 0
 212.040183714 519 241 490.037490789 241 455 c 0
EndSplineSet
EndChar

StartChar: cent
Encoding: 162 162 140
Width: 492
GlyphClass: 1
Flags: W
HStem: -12 73<240 314.009> 428 75<213.893 267 332 365.978>
VStem: 25 91<109.168 311.53> 157 51<-87 -36> 297 50<521 571>
DStem2: 157 -87 208 -87 0.207912 0.978148<10.6035 80.8082 162.023 526.616 611.535 672.729>
LayerCount: 2
Fore
SplineSet
267 428 m 1
 142.819731259 408.683069307 116 263.580373922 116 196 c 0
 116 139.186276802 133.667210693 87.7164762574 190 68 c 1
 267 428 l 1
240 61 m 1
 257.008836884 61.4252209221 314.974533107 62.8743633277 362 127 c 1
 433 98 l 1
 409.724755361 59.2079256019 350.542971941 -10.0531850471 224 -12 c 1
 208 -87 l 1
 157 -87 l 1
 174 -8 l 1
 129.703805636 0.110570798952 25 35.7057926103 25 191 c 0
 25 331.010978327 105.716389701 495.292016944 283 503 c 1
 297 571 l 1
 347 571 l 1
 332 501 l 1
 401.333333333 491 450.666666667 454.666666667 480 392 c 1
 397 364 l 1
 392.33112095 378.590247033 374.778816378 417.2105489 318 427 c 1
 240 61 l 1
EndSplineSet
EndChar

StartChar: sterling
Encoding: 163 163 141
Width: 585
GlyphClass: 1
Flags: W
HStem: -12 78<280.066 475.698> 25 77<111.885 281.294> 317 51<86 172 276 457> 608 71<296.677 467.666>
VStem: 153 90<370.114 557.685> 192 90<189.426 316.5>
LayerCount: 2
Fore
SplineSet
178 25 m 0x74
 119.674632929 25 62.6317691569 0.346109623312 35 -12 c 1
 22 55 l 2
 24.5404971652 55.8966460583 192 116.117601329 192 264 c 0xb4
 192 284 189.333333333 301.666666667 184 317 c 1
 75 317 l 1
 86 368 l 1
 172 368 l 1
 165.406643757 391.07674685 153 434.5 153 483 c 0
 153 667.450387848 339.328388726 679 386 679 c 0
 423.945325493 679 559.806863785 673.772544861 591 549 c 1
 508 526 l 1
 488.023285266 582.404841603 459.026855219 608 382 608 c 0
 339.739316907 608 243 595.397658248 243 480 c 0xb8
 243 451.314059318 246.353171835 435.594752098 265 368 c 1
 468 368 l 1
 457 317 l 1
 276 317 l 1
 278.193759361 311.149975037 282 297.523445627 282 273 c 0
 282 230.333333333 268.833333333 193.833333333 242.5 163.5 c 0
 216.166666667 133.166666667 185.333333333 108.666666667 150 90 c 1
 171.150709847 98.2252760517 191.438659361 102 212 102 c 0x74
 279.929641685 102 294.903691648 66 372 66 c 0
 407.391117658 66 444.777220148 74.5800300574 487 91 c 1
 497 18 l 1
 477.124297909 9.95507296335 422.882352941 -12 366 -12 c 0xb4
 282.68796717 -12 262.415636434 25 178 25 c 0x74
EndSplineSet
EndChar

StartChar: currency
Encoding: 164 164 142
Width: 666
GlyphClass: 1
Flags: W
HStem: 103 75<264.782 414.151> 463 76<264.308 413.632>
VStem: 121 76<245.908 395.231> 481 76<245.132 396.526>
DStem2: 138 558 102 522 0.7063 -0.707913<0.0580521 96.6167 523.642 619.483> 102 119 138 84 0.7063 0.707913<0.649861 96.7055 523.936 620.075>
LayerCount: 2
Fore
SplineSet
197 321 m 0
 197 241.353376157 261.10733508 178 339 178 c 0
 420.744934391 178 481 244.658805963 481 321 c 0
 481 398.225643356 419.079914701 463 339 463 c 0
 262.752282989 463 197 401.432775866 197 321 c 0
339 103 m 0
 304.721130932 103 253.572067484 110.994748263 204 149 c 1
 138 84 l 1
 102 119 l 1
 168 185 l 1
 136.666666667 225.666666667 121 271 121 321 c 0
 121 337.561211642 122.474730735 398.598573535 168 456 c 1
 102 522 l 1
 138 558 l 1
 204 492 l 1
 232.060796279 514.448637023 276.947846099 539 339 539 c 0
 371.062727581 539 425.609969276 532.046921978 474 492 c 1
 540 558 l 1
 576 522 l 1
 510 456 l 1
 529.288176366 432.693453557 557 387.614578437 557 321 c 0
 557 286.944841113 549.261250386 234.076562982 510 185 c 1
 576 119 l 1
 540 84 l 1
 474 149 l 1
 451.411023631 131.084604949 405.416951403 103 339 103 c 0
EndSplineSet
EndChar

StartChar: yen
Encoding: 165 165 143
Width: 598
GlyphClass: 1
Flags: W
HStem: 0 21G<178 279.186> 86 51<58 196 304 439> 223 51<87 218 352 468> 648 20G<90 192.195 538.484 668>
VStem: 90 96<572 668> 554 114<554 668>
DStem2: 186 668 90 668 0.308977 -0.95107<0 354.855> 178 0 275 0 0.207912 0.978148<20.1674 87.8631 160.203 227.899> 291 329 352 274 0.62566 0.780096<0 429.001>
LayerCount: 2
Fore
SplineSet
178 0 m 1
 196 86 l 1
 47 86 l 1
 58 137 l 1
 207 137 l 1
 225 223 l 1
 76 223 l 1
 87 274 l 1
 218 274 l 1
 90 668 l 1
 186 668 l 1
 291 329 l 1
 554 668 l 1
 668 668 l 1
 352 274 l 1
 479 274 l 1
 468 223 l 1
 322 223 l 1
 304 137 l 1
 450 137 l 1
 439 86 l 1
 293 86 l 1
 275 0 l 1
 178 0 l 1
EndSplineSet
EndChar

StartChar: brokenbar
Encoding: 166 166 144
Width: 289
GlyphClass: 1
Flags: W
HStem: -161 21G<96 177> 648 20G<96 177>
VStem: 96 81<-161 149 358 668>
LayerCount: 2
Fore
SplineSet
96 -161 m 1
 96 149 l 1
 177 149 l 1
 177 -161 l 1
 96 -161 l 1
96 358 m 1
 96 668 l 1
 177 668 l 1
 177 358 l 1
 96 358 l 1
EndSplineSet
EndChar

StartChar: section
Encoding: 167 167 145
Width: 526
GlyphClass: 1
Flags: W
HStem: -174 72<70.1942 216.74> 612 68<291.368 437.39>
VStem: 39 86<226.509 328.727> 178 87<491.524 585.415> 251 89<-70.1524 35.4327> 397 90<189.075 293.564>
DStem2: 319 463.5 260 391 0.795729 -0.605653<-18.6905 180.986>
LayerCount: 2
Fore
SplineSet
260 391 m 1xe4
 195.213181783 378.402563125 125 333.059167202 125 277 c 0
 125 256.021140426 134.964470122 231.98200036 166 208 c 0
 173.80968115 202.533223195 253.6324539 139.216668518 254.5 138.5 c 2
 266 129 l 1
 318.426219489 145.131144458 397 179.271194565 397 239 c 0
 397 284.21875 365.658757583 308.704095638 284 372.5 c 0
 273.333333333 380.833333333 265.333333333 387 260 391 c 1xe4
340 2 m 0xec
 340 -61.5841389881 288.916264341 -174 135 -174 c 0
 102.454666767 -174 -16.6968028239 -166.282757283 -43 -55 c 1
 43 -32 l 1
 45.2252753379 -48.4670375006 58.7104958141 -102 140 -102 c 0
 180.672148742 -102 251 -82.5875599059 251 -18 c 0xec
 251 14.321054076 241.323159852 34.4629766972 152 102 c 0
 71.3285502113 164.455315965 39 195.39758205 39 256 c 0
 39 286.984279482 50.2782300684 401.099631264 213 435 c 1
 199.600241386 448.399758614 178 476.980902759 178 522 c 0
 178 580.562640062 224.112614222 680 366 680 c 0
 384.007681618 680 509.748200442 676.656118498 537 584 c 1
 454 561 l 1
 446.423941958 610.244377271 376.884415543 612 367 612 c 0
 362.21806475 612 265 611.113349339 265 539 c 0xf4
 265 527.268518519 265 502.875 319 463.5 c 0
 330.091887375 455.412165456 426.412469635 377.861816515 427.5 377 c 0
 486.748451318 330.048397069 487 290.86161014 487 272 c 0
 487 232.777948691 481.078980108 138.026326703 313 82 c 1
 331 60 340 33.3333333333 340 2 c 0xec
EndSplineSet
EndChar

StartChar: dieresis
Encoding: 168 168 146
Width: 427
GlyphClass: 1
Flags: W
HStem: 590 107<139.921 226.062 351.427 437.062>
VStem: 129 108<601.154 686.347> 341 107<600.921 686.574>
LayerCount: 2
Fore
SplineSet
448 644 m 0
 448 615.626259945 426.165162993 590 394 590 c 0
 363.914811136 590 341 614.833979524 341 644 c 0
 341 673.622154511 364.380496733 697 394 697 c 0
 425.701354703 697 448 672.851404367 448 644 c 0
237 644 m 0
 237 615.626259945 215.165162993 590 183 590 c 0
 153.355427893 590 129 614.355204236 129 644 c 0
 129 674.085188864 153.833979524 697 183 697 c 0
 214.701354703 697 237 672.851404367 237 644 c 0
EndSplineSet
EndChar

StartChar: copyright
Encoding: 169 169 147
Width: 814
GlyphClass: 1
Flags: W
HStem: -12 62<312.299 519.703> 150 59<358.395 482.899> 473 58<358.439 477.008> 618 62<312.297 519.701>
VStem: 70 62<230.297 437.701> 244 76<252.579 432.563> 700 62<230.299 437.703>
LayerCount: 2
Fore
SplineSet
567 230 m 1
 549.986229403 199.554305247 508.407799032 150 418 150 c 0
 367.644729655 150 244 167.742220999 244 342 c 0
 244 384.513661814 255.905979211 531 420 531 c 0
 462.198985918 531 528.23752067 518.655223994 565 449 c 1
 498 424 l 1
 480.666666667 456.666666667 454 473 418 473 c 0
 387.244022824 473 320 459.558399612 320 342 c 0
 320 304.970371099 328.621752435 209 418 209 c 0
 445.615270769 209 481.754375289 216.989183248 501 254 c 1
 567 230 l 1
132 334 m 0
 132 176.332025826 258.330579093 50 416 50 c 0
 573.667974174 50 700 176.330579093 700 334 c 0
 700 491.667974174 573.669420907 618 416 618 c 0
 258.332025826 618 132 491.669420907 132 334 c 0
762 334 m 0
 762 142.80807037 607.206907674 -12 416 -12 c 0
 224.80807037 -12 70 142.793092326 70 334 c 0
 70 525.19192963 224.793092326 680 416 680 c 0
 607.19192963 680 762 525.206907674 762 334 c 0
EndSplineSet
EndChar

StartChar: questiondown
Encoding: 191 191 148
Width: 527
GlyphClass: 1
Flags: W
HStem: -175 70<108.462 272.825> 388 129<274.461 370.273>
VStem: -14 91<-75.8558 32.6185> 255 85<242.033 316> 259 128<404.326 500.273>
LayerCount: 2
Fore
SplineSet
178 -175 m 0xf0
 157.034851525 -175 -14 -170.658756227 -14 -29 c 0
 -14 18.070280766 -2.02211381801 86.3228029438 138 153 c 0
 172.163572529 169.643791745 242.548192771 203.93373494 255 316 c 1
 340 316 l 1
 335.664375181 276.979376629 317.268718613 182.732765766 239.5 126.5 c 0
 179.430313215 83.0649957093 151.288509724 81.3290265393 105 40 c 0
 86.3333333333 23.3333333333 77 2.33333333333 77 -23 c 0
 77 -80.4615285669 132.293527123 -105 181 -105 c 0
 265 -105 319.333333333 -68.6666666667 344 4 c 1
 421 -20 l 1
 400.981944895 -76.479512619 342.487686282 -175 178 -175 c 0xf0
387 452 m 0xe8
 387 417.657528971 359.049057869 388 322 388 c 0
 283.964270984 388 259 418.78848522 259 452 c 0
 259 487.214170864 284.62084213 517 322 517 c 0
 358.352290193 517 387 488.351153508 387 452 c 0xe8
EndSplineSet
EndChar

StartChar: germandbls
Encoding: 223 223 149
Width: 605
GlyphClass: 1
Flags: W
HStem: -13 77<239 380.215> 0 21G<14 104.248> 329 77<305 403.541> 610 70<277.315 452.2>
VStem: 14 86<0 86> 483 87<461.669 578.549>
DStem2: 11.2368 -13 97.2368 -13 0.207912 0.978148<31.1708 604.322>
LayerCount: 2
Fore
SplineSet
570 534 m 0x7c
 570 475.42873305 537.450025498 392.137505216 439 372 c 1
 534.79829645 336.278601324 552.1838193 275.44661188 548 197 c 0
 544.95837378 140.729914921 520.386561311 48.4621871038 399 8 c 0
 357 -6 312.666666667 -13 266 -13 c 2
 252.5 -13 l 2
 248.166666667 -13 243.666666667 -12.6666666667 239 -12 c 1
 233 67 l 1
 249 65 264.666666667 64 280 64 c 0xbc
 333.82028634 64 454 79.505607612 454 218 c 0
 454 258.607255707 443.510135743 325.15040724 303 329 c 2
 289 329 l 1
 305 406 l 1
 320 406 l 2
 402.115987594 409.421499483 483 443.558569453 483 522 c 0
 483 567.95227732 454.916135115 610 374 610 c 0
 266.897868084 610 218.740863189 560.65079079 196 452 c 2
 100 0 l 1
 14 0 l 1
 110 452 l 2
 137.800417926 577.101880666 186.659151315 680 378 680 c 0
 436.538300344 680 570 661.847044194 570 534 c 0x7c
EndSplineSet
EndChar

StartChar: AE
Encoding: 198 198 150
Width: 987
GlyphClass: 1
Flags: W
HStem: 0 81<549 891> 145 81<267 466> 303 80<613 862> 586 81<656 1015>
VStem: -52 112<0 112>
DStem2: -52 0 60 0 0.686079 0.727527<76.8408 274.267 383.28 383.28> 435.179 0 531.783 0 0.207912 0.978148<102.895 148.239 231.004 329.815 411.602 540.897>
AnchorPoint: "Anchor-1" 738 667 basechar 0
LayerCount: 2
Fore
SplineSet
267 226 m 1
 483 226 l 1
 548 529 l 1
 267 226 l 1
-52 0 m 1
 577 667 l 1
 1032 667 l 1
 1015 586 l 1
 656 586 l 1
 613 383 l 1
 879 383 l 1
 862 303 l 1
 596 303 l 1
 549 81 l 1
 908 81 l 1
 891 0 l 1
 435 0 l 1
 466 145 l 1
 194 145 l 1
 60 0 l 1
 -52 0 l 1
EndSplineSet
EndChar

StartChar: florin
Encoding: 279 402 151
Width: 330
GlyphClass: 1
Flags: W
HStem: -173 78<-58.1057 22.3846> 428 68<69 138 237 325> 635 71<273.989 368>
DStem2: 10.3291 -173 96.3049 -173 0.207912 0.978148<81.7833 614.411 701.508 836.813>
LayerCount: 2
Fore
SplineSet
-56 -90 m 1
 -33.2818863882 -94.5436227224 -28.2909693304 -95 -22 -95 c 0
 13.0837605294 -95 31.5504136663 -73.635535085 42 -24 c 2
 138 428 l 1
 54 428 l 1
 69 496 l 1
 153 496 l 1
 165 555 l 2
 190.880303729 676.438348268 217.750838836 706 335 706 c 2
 384 706 l 1
 368 635 l 1
 328 635 l 2
 267.850485442 635 257.528108494 591.508515346 253 570 c 2
 237 496 l 1
 339 496 l 1
 325 428 l 1
 224 428 l 1
 125 -38 l 2
 102.61678917 -148.317253376 55.7182929773 -173 -6 -173 c 0
 -22.3783132343 -173 -42.1419583934 -171.285903496 -72 -165 c 1
 -56 -90 l 1
EndSplineSet
EndChar

StartChar: integral
Encoding: 280 8747 152
Width: 306
GlyphClass: 1
Flags: W
HStem: -173 112<-13.9869 60.3986> 569 112<230.025 304.987>
VStem: -30 99<-125.056 -70.0193> 104 84<-97.2031 606.371> 221 100<577.553 633.056>
LayerCount: 2
Fore
SplineSet
188 44 m 0
 188 -20.3898592429 183.581632316 -173 55 -173 c 0
 23.9922894766 -173 -30 -165.215953122 -30 -111 c 0
 -30 -85.2063526403 -9.40107278573 -61 20 -61 c 0
 53.0539100521 -61 69 -89.063865015 69 -112 c 2
 69 -119.5 l 2
 69 -121.833333333 68.3333333333 -124.333333333 67 -127 c 1
 82.0443996912 -124.264654602 104 -114.169965831 104 -31 c 0
 104 185.157190095 103 247.842809905 103 464 c 0
 103 521.244183499 105.723334096 681 236 681 c 0
 267.007710523 681 321 673.215953122 321 619 c 0
 321 590.740237085 299.259692527 569 271 569 c 0
 238.076344451 569 221 597.037115578 221 619 c 0
 221 625 222 630.333333333 224 635 c 1
 210.919011913 632.62163853 187 625.168707068 187 538 c 0
 187 321.845349357 188 260.154650643 188 44 c 0
EndSplineSet
EndChar

StartChar: approxequal
Encoding: 281 8776 153
Width: 605
GlyphClass: 1
Flags: W
HStem: 97 73<321.316 444.092> 151 74<145.63 279.738> 283 73<322.145 444.282> 337 74<145.128 279.13>
VStem: 57 75<120.947 137.295 306.947 322.913> 458 74<183.774 201.081 369.634 387.081>
LayerCount: 2
Fore
SplineSet
532 199 m 1x8c
 527.021084537 178.179080791 500.883203074 97 396 97 c 0x8c
 315.148643764 97 264.629134013 151 196 151 c 0
 176.145736807 151 140.730784161 144.653920807 132 101 c 1
 57 123 l 1
 62.4478830502 145.782056392 88.9443239411 225 194 225 c 0x4c
 287.939616619 225 334.398767219 170 395 170 c 0
 415.576787272 170 449.653126701 179.265633506 458 221 c 1
 532 199 l 1x8c
532 385 m 1
 527.021084537 364.179080791 500.883203074 283 396 283 c 0x2c
 315.148643764 283 264.629134013 337 196 337 c 0
 176.145736807 337 140.730784161 330.653920807 132 287 c 1
 57 309 l 1
 64.0574325496 336.05349144 92.9119651444 411 196 411 c 0x1c
 290.313225919 411 335.775157919 356 396 356 c 0x2c
 417.308634684 356 449.726235123 365.631175617 458 407 c 1
 532 385 l 1
EndSplineSet
EndChar

StartChar: notequal
Encoding: 282 8800 154
Width: 658
GlyphClass: 1
Flags: W
HStem: 0 21G<97 211.05> 121 79<73 182 337 569> 307 80<73 312 468 569> 476 20G<430.872 544>
VStem: 97 100<0 100> 445 99<397 496>
DStem2: 97 0 197 0 0.574348 0.818611<57.4348 147.872 301.566 374.798 529.886 605.904>
LayerCount: 2
Fore
SplineSet
97 0 m 1
 182 121 l 1
 73 121 l 1
 73 200 l 1
 238 200 l 1
 312 307 l 1
 73 307 l 1
 73 387 l 1
 368 387 l 1
 445 496 l 1
 544 496 l 1
 468 387 l 1
 569 387 l 1
 569 307 l 1
 412 307 l 1
 337 200 l 1
 569 200 l 1
 569 121 l 1
 282 121 l 1
 197 0 l 1
 97 0 l 1
EndSplineSet
EndChar

StartChar: lessequal
Encoding: 283 8804 155
Width: 651
GlyphClass: 1
Flags: W
HStem: 0 80<63 536> 100 90<446 536> 414 91<445 536>
VStem: 63 105<214.5 389.5>
LayerCount: 2
Fore
SplineSet
63 0 m 1
 63 80 l 1
 536 80 l 1
 536 0 l 1
 63 0 l 1
536 100 m 1
 63 267 l 1
 63 337 l 1
 536 505 l 1
 536 414 l 1
 168 302 l 1
 536 190 l 1
 536 100 l 1
EndSplineSet
EndChar

StartChar: greaterequal
Encoding: 284 8805 156
Width: 686
GlyphClass: 1
Flags: W
HStem: 0 80<98 571> 100 90<98 188> 414 91<98 189>
VStem: 466 105<214.5 389.5>
LayerCount: 2
Fore
SplineSet
98 0 m 1
 98 80 l 1
 571 80 l 1
 571 0 l 1
 98 0 l 1
98 100 m 1
 98 190 l 1
 466 302 l 1
 98 414 l 1
 98 505 l 1
 571 337 l 1
 571 267 l 1
 98 100 l 1
EndSplineSet
EndChar

StartChar: lozenge
Encoding: 285 9674 157
Width: 561
GlyphClass: 1
Flags: W
VStem: 58 87<271.5 358.5> 426 87<271.5 358.5>
DStem2: 58 315 145 315 0.506632 0.862163<44.077 321.569> 145 315 58 315 0.506632 -0.862163<0 277.492> 286 703 286 554 0.504977 -0.863133<128.607 405.592> 286 76 286 -73 0.504977 0.863133<0 276.986>
LayerCount: 2
Fore
SplineSet
286 76 m 1
 426 315 l 1
 286 554 l 1
 145 315 l 1
 286 76 l 1
286 -73 m 1
 58 315 l 1
 286 703 l 1
 513 315 l 1
 286 -73 l 1
EndSplineSet
EndChar

StartChar: summation
Encoding: 286 8721 158
Width: 763
GlyphClass: 1
Flags: W
HStem: -161 81<224 604> 587 81<224 604>
DStem2: 224 587 123 587 0.594187 -0.804327<0 353.998> 123 -80 224 -80 0.593035 0.805177<59.8965 414.816>
LayerCount: 2
Fore
SplineSet
123 -161 m 1
 123 -80 l 1
 369 254 l 1
 123 587 l 1
 123 668 l 1
 604 668 l 1
 604 587 l 1
 224 587 l 1
 469 254 l 1
 224 -80 l 1
 604 -80 l 1
 604 -161 l 1
 123 -161 l 1
EndSplineSet
EndChar

StartChar: minus
Encoding: 287 8722 159
Width: 619
GlyphClass: 1
Flags: W
HStem: 209 79<42 538>
LayerCount: 2
Fore
SplineSet
42 209 m 1
 42 288 l 1
 538 288 l 1
 538 209 l 1
 42 209 l 1
EndSplineSet
EndChar

StartChar: uni2215
Encoding: 288 8725 160
Width: 444
GlyphClass: 1
Flags: W
HStem: 0 21G<-47 55.012> 648 20G<406.988 509>
VStem: -47 88<0 88> 421 88<580 668>
DStem2: -47 0 41 0 0.573791 0.819001<50.4936 815.627>
LayerCount: 2
Fore
SplineSet
-47 0 m 1
 421 668 l 1
 509 668 l 1
 41 0 l 1
 -47 0 l 1
EndSplineSet
EndChar

StartChar: uni2219
Encoding: 289 8729 161
Width: 237
GlyphClass: 1
Flags: W
HStem: 191 129<62.7896 158.267>
VStem: 46 129<208.329 303.266>
LayerCount: 2
Fore
SplineSet
175 256 m 0
 175 221.367462688 146.457372705 191 111 191 c 0
 63.7483474642 191 46 230.607305717 46 255 c 0
 46 291.352290193 74.6488464916 320 111 320 c 0
 146.040183714 320 175 291.037490789 175 256 c 0
EndSplineSet
EndChar

StartChar: radical
Encoding: 290 8730 162
Width: 513
GlyphClass: 1
Flags: W
HStem: -161 21G<257.157 367.639> 145 80<39 145> 649 20G<423.516 515>
VStem: 427 88<581 669>
DStem2: 201 225 145 145 0.365088 -0.930973<54.033 281.519> 304 -37 364 -161 0.17899 0.983851<0 716.615>
LayerCount: 2
Fore
SplineSet
265 -161 m 1
 145 145 l 1
 39 145 l 1
 39 225 l 1
 201 225 l 1
 304 -37 l 1
 427 669 l 1
 515 669 l 1
 364 -161 l 1
 265 -161 l 1
EndSplineSet
EndChar

StartChar: infinity
Encoding: 291 8734 163
Width: 780
GlyphClass: 1
Flags: W
HStem: 104 76<154.847 279.263 486.38 610.153> 330 76<153.312 280.695 485.073 611.688>
VStem: 49 81<204.983 307.956> 635 81<204.984 307.957>
LayerCount: 2
Fore
SplineSet
431 256 m 1
 477.976002549 199.628796941 510.221915975 180 552 180 c 0
 603.218458295 180 635 216.951765459 635 256 c 0
 635 305.440398678 593.931935501 330 549 330 c 0
 526.372269556 330 492.304712428 328.657436952 431 256 c 1
130 256 m 0
 130 216.950604671 161.78272131 180 213 180 c 0
 258.679909663 180 293.260419427 204.439341645 335 256 c 1
 274.154845746 328.112775412 240.305336158 330 216 330 c 0
 171.06392519 330 130 305.437187943 130 256 c 0
556 104 m 0
 529.863810619 104 469.378378378 104 383 198 c 1
 360.333333333 173.333333333 335 151.5 307 132.5 c 0
 279 113.5 246.333333333 104 209 104 c 0
 112.760356993 104 49 166.942254302 49 256 c 0
 49 339.907680337 111.99163381 406 215 406 c 0
 239.183556269 406 301.628571429 406 383 317 c 1
 404.333333333 340.333333333 428.5 361 455.5 379 c 0
 482.5 397 514 406 550 406 c 0
 653.009007838 406 716 339.907074832 716 256 c 0
 716 166.944106973 652.241571668 104 556 104 c 0
EndSplineSet
EndChar

StartChar: uni03A9
Encoding: 292 937 164
Width: 773
GlyphClass: 1
Flags: W
HStem: 0 173<259.984 311 426 477.015> 0 81<75 226 511 662> 606 74<274.268 463.677>
VStem: 75 73<292.502 478.771> 226 85<81 143.041> 426 85<81 141.436> 589 73<291.732 479.655>
LayerCount: 2
Fore
SplineSet
148 385 m 0xbe
 148 284.671474831 214.123955851 199.795501573 311 173 c 1
 311 0 l 1xbe
 75 0 l 1
 75 81 l 1
 226 81 l 1
 226 130 l 1
 193.720701507 148.307661832 75 226.423103963 75 385 c 0
 75 551.436578028 208.301106726 680 368 680 c 0
 533.66416766 680 662 545.107121481 662 385 c 0
 662 346.566382329 651.765926644 208.663311948 511 130 c 1
 511 81 l 1
 662 81 l 1
 662 0 l 1x7e
 426 0 l 1
 426 173 l 1
 522.872153451 199.794425423 589 284.66750987 589 385 c 0
 589 506.99049312 489.99353485 606 368 606 c 0
 248.949531182 606 148 508.493710029 148 385 c 0xbe
EndSplineSet
EndChar

StartChar: estimated
Encoding: 293 8494 165
Width: 628
GlyphClass: 1
Flags: W
HStem: -12 32<225.265 389.62> 248 31<156 460> 472 32<225.613 389.592>
VStem: 50 106<143.008 248 279 347.737> 460 106<279 350.334>
LayerCount: 2
Fore
SplineSet
308 472 m 0
 272.268976742 472 210.104783637 463.497798061 156 413 c 1
 156 279 l 1
 460 279 l 1
 460 413 l 1
 434.57600869 436.729058556 384.007367198 472 308 472 c 0
511 87 m 1
 478.713555788 45.4888574417 411.13317088 -12 308 -12 c 0
 193.425555422 -12 50 72.2651219195 50 256 c 0
 50 368.942582462 148.698483685 504 308 504 c 0
 444.805065063 504 566 395.755214397 566 248 c 1
 156 248 l 1
 156 78 l 1
 181.352731763 55.1825414133 232.664374643 20 308 20 c 0
 341.931200572 20 417.374659801 28.5520352596 478 97 c 1
 511 87 l 1
EndSplineSet
EndChar

StartChar: partialdiff
Encoding: 294 8706 166
Width: 595
GlyphClass: 1
Flags: W
HStem: -12 73<215.73 360.464> 430 74<217.808 362.018> 598 82<140 306.403>
VStem: 51 89<144.143 345.862> 437 91<144.967 346.932>
LayerCount: 2
Fore
SplineSet
140 246 m 0
 140 97.40351753 237.870764138 61 289 61 c 0
 337.041910207 61 437 93.6846365922 437 246 c 0
 437 400.879530341 332.971442957 430 289 430 c 0
 241.411838594 430 140 396.79847455 140 246 c 0
528 277 m 0
 528 186.974153367 503.7139696 -12 289 -12 c 0
 190.121157163 -12 51 50.4684811473 51 246 c 0
 51 447.182486449 196.467830386 504 289 504 c 0
 304.308241603 504 379.937935863 501.327580171 421 450 c 1
 393.539521798 537.873530246 332.815766012 603.755694508 140 598 c 1
 140 680 l 1
 295.024758761 680 528 661.424505425 528 277 c 0
EndSplineSet
EndChar

StartChar: uni0394
Encoding: 295 916 167
Width: 759
GlyphClass: 1
Flags: W
HStem: 0 78<116 518> 660 20G<307.412 326.618>
DStem2: -9 0 116 78 0.4323 0.90173<124.372 589.991> 317 680 317 498 0.433377 -0.901213<164.021 629.639>
LayerCount: 2
Fore
SplineSet
116 78 m 1
 518 78 l 1
 317 498 l 1
 116 78 l 1
-9 0 m 1
 317 680 l 1
 644 0 l 1
 -9 0 l 1
EndSplineSet
EndChar

StartChar: product
Encoding: 296 8719 168
Width: 761
GlyphClass: 1
Flags: W
HStem: -161 21G<133 214 530 612> 587 81<214 530>
VStem: 133 81<-161 587> 530 82<-161 587>
LayerCount: 2
Fore
SplineSet
133 -161 m 1
 133 668 l 1
 612 668 l 1
 612 -161 l 1
 530 -161 l 1
 530 587 l 1
 214 587 l 1
 214 -161 l 1
 133 -161 l 1
EndSplineSet
EndChar

StartChar: pi
Encoding: 297 960 169
Width: 590
GlyphClass: 1
Flags: W
HStem: 0 75<431.037 488> 416 80<63 129 212 406 492 576>
VStem: 41 83<0 83> 338 90<42.2704 194.633>
DStem2: 41 0 124 0 0.207912 0.978148<17.2567 425.206> 318.43 0 404.242 0 0.207912 0.978148<121.709 425.116>
LayerCount: 2
Fore
SplineSet
437 0 m 2
 372.454321068 0 338 15.5407870124 338 69 c 0
 338 84.1861127198 340.65257815 101.813750134 345 125 c 2
 406 416 l 1
 212 416 l 1
 124 0 l 1
 41 0 l 1
 129 416 l 1
 46 416 l 1
 63 496 l 1
 594 496 l 1
 576 416 l 1
 492 416 l 1
 434 140 l 2
 428 104 428 104 428 101 c 0
 428 79.0724584669 445.865392432 75 472 75 c 2
 504 75 l 1
 488 0 l 1
 437 0 l 2
EndSplineSet
EndChar

StartChar: hungarumlaut
Encoding: 298 733 170
Width: 394
GlyphClass: 1
Flags: W
HStem: 572 136<249 274.53>
VStem: 103 329
LayerCount: 2
Fore
SplineSet
396 708 m 0
 423.208876682 708 432 684.410415674 432 670 c 0
 432 645.333333333 410.713963964 631.142642643 334 580 c 2
 322 572 l 1
 249 572 l 1
 264.5 589 l 2
 265.526900125 590.126277556 353.780579129 686.835434346 370 699 c 0
 378 705 386.666666667 708 396 708 c 0
250 708 m 0
 274.529575872 708 287 689.963749257 287 671 c 0
 287 645.333333333 266.257575758 631.505050505 189 580 c 2
 177 572 l 1
 103 572 l 1
 113.5 583 l 2
 114.606189772 584.158865475 212.305016275 689.254180229 224 699 c 0
 232 705 240.666666667 708 250 708 c 0
EndSplineSet
EndChar

StartChar: tilde
Encoding: 299 732 171
Width: 420
GlyphClass: 1
Flags: W
HStem: 575 63<290.131 389.94> 617 63<166.866 280.251>
LayerCount: 2
Fore
SplineSet
424 680 m 0x40
 442.045309967 680 454 665.885192185 454 649 c 0
 454 628.203744166 425.723482948 604.240181002 411.5 593.5 c 0
 395.166666667 581.166666667 373.333333333 575 346 575 c 0x80
 280.620517901 575 276.268370988 617 217 617 c 0
 187.666666667 617 167 603.666666667 155 577 c 1
 90 577 l 1
 104.546235596 615.547524329 140.462096735 680 218 680 c 0x40
 290.734987877 680 298.473345457 638 346 638 c 0x80
 388.626744762 638 392.266112381 680 424 680 c 0x40
EndSplineSet
EndChar

StartChar: endash
Encoding: 300 8211 172
Width: 497
GlyphClass: 1
Flags: W
HStem: 208 79<40 438>
LayerCount: 2
Fore
SplineSet
40 208 m 1
 40 287 l 1
 438 287 l 1
 438 208 l 1
 40 208 l 1
EndSplineSet
EndChar

StartChar: emdash
Encoding: 301 8212 173
Width: 817
GlyphClass: 1
Flags: W
HStem: 208 79<40 758>
LayerCount: 2
Fore
SplineSet
40 208 m 1
 40 287 l 1
 758 287 l 1
 758 208 l 1
 40 208 l 1
EndSplineSet
EndChar

StartChar: trademark
Encoding: 302 8482 174
Width: 928
GlyphClass: 1
Flags: W
HStem: 292 92<592 756> 608 60<133 251 318 436>
VStem: 251 67<292 608> 473 67<292 571> 808 67<292 571>
DStem2: 581 668 540 571 0.311204 -0.950343<79.4239 298.839> 674 384 710 292 0.311204 0.950343<0 219.415>
LayerCount: 2
Fore
SplineSet
251 292 m 1
 251 608 l 1
 133 608 l 1
 133 668 l 1
 436 668 l 1
 436 608 l 1
 318 608 l 1
 318 292 l 1
 251 292 l 1
473 292 m 1
 473 668 l 1
 581 668 l 1
 674 384 l 1
 767 668 l 1
 875 668 l 1
 875 292 l 1
 808 292 l 1
 808 571 l 1
 710 292 l 1
 638 292 l 1
 540 571 l 1
 540 292 l 1
 473 292 l 1
EndSplineSet
EndChar

StartChar: Euro
Encoding: 303 8364 175
Width: 697
GlyphClass: 1
Flags: W
HStem: -12 79<293.577 471.567> 240 51<43 117.787 208 332> 376 51<72 129 238 435> 499 21G<596.842 661.621> 600 79<367.073 541.403>
VStem: 116 92<161.484 240 291 374.656>
LayerCount: 2
Fore
SplineSet
631 139 m 1
 612.50778966 108.179649433 538.65429847 -12 364 -12 c 0
 288.450888686 -12 193.276099702 11.5379314334 146 117 c 0
 128.666666667 155.666666667 118.666666667 196.666666667 116 240 c 1
 4 240 l 1
 43 291 l 1
 116 291 l 1
 118 319 122.333333333 347.333333333 129 376 c 1
 33 376 l 1
 72 427 l 1
 144 427 l 1
 168.215146443 496.851383971 251.887123062 679 466 679 c 0
 542.203410037 679 651.610852836 655.362015073 688 528 c 1
 603 499 l 1
 590.683221034 537.48993427 555.380587862 600 456 600 c 0
 352.221002891 600 277.206587157 526.241673741 238 427 c 1
 474 427 l 1
 435 376 l 1
 221 376 l 1
 215.390371959 354.496425845 210.564117311 331.987349074 207 291 c 1
 370 291 l 1
 332 240 l 1
 208 240 l 1
 211.191683465 208.881086217 233.501981637 67 375 67 c 0
 449.970934328 67 506.768689673 92.2570750788 556 169 c 1
 631 139 l 1
EndSplineSet
EndChar

StartChar: uni2113
Encoding: 304 8467 176
Width: 451
GlyphClass: 1
Flags: W
HStem: -12 73<179.142 292.534> 609 70<280.807 363.127>
VStem: 367 80<487.178 605.484>
DStem2: 39 227 98 188 0.839193 0.543834<0 28.3028 213.3 335.505> 55.4887 -12 142.353 -12 0.207912 0.978148<112.863 204.468 381.03 649.022>
LayerCount: 2
Fore
SplineSet
367 567 m 0
 367 577.268292683 367 609 326 609 c 0
 285.97180901 609 268.452670095 581.817410458 255 517 c 2
 218 343 l 1
 305.43604453 397.127075185 367 497.631166295 367 567 c 0
345 42 m 1
 333.02809715 31.8699283576 276.693665508 -12 199 -12 c 0
 111.19105431 -12 83 27.2134444772 83 88 c 0
 81.9455129398 108.035254144 82.9420677095 114.592580084 98 188 c 1
 20 138 l 1
 39 227 l 1
 117 278 l 1
 166 506 l 2
 178 561.333333333 195.666666667 604 219 634 c 0
 242.333333333 664 279.666666667 679 331 679 c 0
 362.30688254 679 447 669.525425188 447 567 c 0
 447 480.373179075 410.668296983 385.144618097 198 251 c 1
 177 151 l 2
 162.639290376 84.9407357275 182.180033797 61 225 61 c 0
 237.059116809 61 267.375 61 321 100 c 1
 345 42 l 1
EndSplineSet
EndChar

StartChar: Lslash
Encoding: 305 321 177
Width: 572
GlyphClass: 1
Flags: W
HStem: 0 82<158 500> 484 20G<389.778 422.89> 648 20G<182.745 283>
VStem: 187 96<572 668>
DStem2: 18 287 3 214 0.883367 0.468681<0 64.3605 234.827 415.537> 45 0 140.57 0 0.207912 0.978148<103.702 272.038 346.562 351.225 424.978 682.926>
LayerCount: 2
Fore
SplineSet
45 0 m 1
 102 266 l 1
 3 214 l 1
 18 287 l 1
 117 339 l 1
 187 668 l 1
 283 668 l 1
 226 396 l 1
 427 504 l 1
 412 431 l 1
 210 324 l 1
 158 82 l 1
 517 82 l 1
 500 0 l 1
 45 0 l 1
EndSplineSet
EndChar

StartChar: lslash
Encoding: 306 322 178
Width: 273
GlyphClass: 1
Flags: W
HStem: 0 75<131.994 196> 648 20G<158.767 249>
VStem: 40 91<39.2821 191.539> 163 86<582 668>
DStem2: 18 303 79 272 0.884496 0.466547<0 39.4913 194.123 262.258> 20.4304 0 106.242 0 0.207912 0.978148<125.937 278.233 419.668 683.044>
LayerCount: 2
Fore
SplineSet
131 105 m 0
 131 81.4380734866 144.381807485 75 174 75 c 2
 212 75 l 1
 196 0 l 1
 140 0 l 2
 82.3322589792 0 40 10.5642151851 40 68 c 0
 40 83.7331432476 42.8916340757 103.08871507 47 125 c 2
 79 272 l 1
 3 232 l 1
 18 303 l 1
 94 342 l 1
 163 668 l 1
 249 668 l 1
 190 393 l 1
 291 447 l 1
 276 376 l 1
 175 323 l 1
 136 140 l 2
 131.319451458 116.597257288 131 110.274170851 131 105 c 0
EndSplineSet
EndChar

StartChar: oslash
Encoding: 248 248 179
Width: 548
GlyphClass: 1
Flags: W
HStem: -12 74<163.874 314.356> 430 74<210.773 368.757>
VStem: 27 89<150.048 313.917> 413 90<185.617 347.356>
DStem2: -10 26 25 -11 0.728741 0.68479<0.168716 80.6645 179.694 524.387 618.91 705.326>
AnchorPoint: "Anchor-1" 321 496 basechar 0
LayerCount: 2
Fore
SplineSet
238 62 m 0
 364.210338445 62 413 200.596187455 413 300 c 0
 413 318 411 334 407 348 c 1
 145 102 l 1
 165.666666667 75.3333333333 196.666666667 62 238 62 c 0
290 430 m 0
 156.928169375 430 116 290.090323777 116 196 c 0
 116 173.513306774 117.903263982 160.354698732 121 149 c 1
 384 395 l 1
 376.642774022 403.222781976 352.684210526 430 290 430 c 0
503 297 m 0
 503 130.323728911 387.889226544 -12 231 -12 c 0
 177.753187173 -12 123.459052621 1.5409473787 82 43 c 1
 25 -11 l 1
 -10 26 l 1
 52 84 l 1
 35.3333333333 115.333333333 27 153.333333333 27 198 c 0
 27 370.556668585 140.513249521 504 303 504 c 0
 336.606297998 504 395.7548345 496.557838161 443 451 c 1
 504 509 l 1
 539 472 l 1
 475 411 l 1
 481.655794219 399.224364074 503 361.461538462 503 297 c 0
EndSplineSet
EndChar

StartChar: Oslash
Encoding: 216 216 180
Width: 725
GlyphClass: 1
Flags: W
HStem: -12 79<238.274 421.121> 600 79<320.864 503.311>
VStem: 53 95<182.027 392.019> 594 95<267.261 496.11>
DStem2: 4 32 39 -4 0.728976 0.684539<0.870751 109.116 217.175 735.241 837.3 945.161>
AnchorPoint: "Anchor-1" 438 668 basechar 0
LayerCount: 2
Fore
SplineSet
187 134 m 1
 206.14632621 107.673801461 248.024576686 67 324 67 c 0
 510.301101755 67 594 249.195413249 594 395 c 0
 594 434.333333333 587.666666667 468.666666667 575 498 c 1
 187 134 l 1
418 600 m 0
 197.507840699 600 148 358.927445328 148 269 c 0
 148 237 152.666666667 207.666666667 162 181 c 1
 547 542 l 1
 514.333333333 580.666666667 471.333333333 600 418 600 c 0
689 402 m 0
 689 233.713999441 586.814730758 -12 311 -12 c 0
 256.448500837 -12 175.942126619 1.52294126846 118 70 c 1
 39 -4 l 1
 4 32 l 1
 89 112 l 1
 65 156 53 208.333333333 53 269 c 0
 53 428.025907555 149.218032017 679 431 679 c 0
 493.397206962 679 561.878462534 662.341024585 615 606 c 1
 693 679 l 1
 728 642 l 1
 647 566 l 1
 675 520 689 465.333333333 689 402 c 0
EndSplineSet
EndChar

StartChar: Thorn
Encoding: 222 222 181
Width: 583
GlyphClass: 1
Flags: W
HStem: 155 81<151 400.942> 438 81<211 433.622>
VStem: 13 86<-8 78> 155 86<573 659> 460 102<289.799 415.383>
DStem2: 13 -8 99 -8 0.207912 0.978148<17.8804 184.595 267.36 473.886 556.65 681.948>
LayerCount: 2
Fore
SplineSet
460 366 m 0
 460 420.816975326 417.596297633 438 329 438 c 2
 194 438 l 1
 151 236 l 1
 287 236 l 2
 342.357144365 236 460 239.034598326 460 366 c 0
338 519 m 2
 539.838371707 519 562 435.191065654 562 378 c 0
 562 343.558834185 550.555927332 233.436076825 459.5 189.5 c 0
 411.833333333 166.5 345.666666667 155 261 155 c 2
 134 155 l 1
 99 -8 l 1
 13 -8 l 1
 155 659 l 1
 241 659 l 1
 211 519 l 1
 338 519 l 2
EndSplineSet
EndChar

StartChar: ae
Encoding: 230 230 182
Width: 870
GlyphClass: 1
Flags: W
HStem: -12 68<115.881 258.993 503.853 650.795> 225 67<171.605 359 456 748.959> 432 72<202.686 359.987 542.837 699.818>
VStem: 6 94<72.5538 173.53> 749 88<292.232 382.484>
AnchorPoint: "Anchor-1" 458 496 basechar 0
LayerCount: 2
Fore
SplineSet
100 120 m 0
 100 105.81313005 104.984913247 56 175 56 c 0
 280.925974796 57.491915138 340.376196291 136.700920116 359 224 c 1
 210.787422612 224 100 210.008486201 100 120 c 0
749 310 m 2
 749 340.623048109 735.898865304 432 625 432 c 0
 565.992066745 432 479.1448197 396.151688649 456 292 c 1
 748 292 l 2
 748.666666667 295.333333333 749 298.5 749 301.5 c 2
 749 310 l 2
382 100 m 1
 361.422426619 67.9904414078 296.813594703 -12 165 -12 c 0
 123.70636986 -12 6 -1.51815188844 6 118 c 0
 6 248.117512465 114.995450008 292 367 292 c 1
 371.774108624 310.141612773 377 335.072561224 377 357 c 0
 377 421.80653093 333.191369601 435 286 435 c 0
 254.630424401 435 190.290023762 426.152553465 160 358 c 1
 84 382 l 1
 100.827320133 419.020104292 153.258830144 504 280 504 c 0
 308.237740994 504 407.958254889 503.856629655 446 432 c 1
 496 480 559.666666667 504 637 504 c 0
 784.990755117 504 837 394.910993582 837 299 c 0
 837 275 834 250.333333333 828 225 c 1
 443 225 l 1
 442.333333333 220.333333333 442 215.666666667 442 211 c 2
 442 198 l 2
 442 159.528646089 454.028480465 62 576 62 c 0
 615.630029677 62 662.191134952 72.4383318545 699 111 c 1
 777 87 l 1
 742.838038731 42.7904030638 677.752876616 -12 565 -12 c 0
 517.278889941 -12 426.278314761 1.81764987732 382 100 c 1
EndSplineSet
EndChar

StartChar: eth
Encoding: 240 240 183
Width: 569
GlyphClass: 1
Flags: W
HStem: -12 71<166.911 321.725> 370 75<189.904 347.345> 603 76<237 350.978>
VStem: 24 83<121.792 286.466>
DStem2: 273 509 301 473 0.771281 0.636494<0 109.342 205.333 265.77>
LayerCount: 2
Fore
SplineSet
107 196 m 0
 107 137.080721332 146.014769852 59 242 59 c 0
 339.403910252 59 400 134.43018907 400 238 c 0
 400 336.532170075 331.170588056 370 274 370 c 0
 163.676585299 370 107 285.87408957 107 196 c 0
357 579 m 1
 340.345547106 587.922028336 300.796443343 606.989822167 221 603 c 1
 237 679 l 1
 351.7814898 683.027420695 403.217259642 650.306790522 425 635 c 1
 478 679 l 1
 507 643 l 1
 460 605 l 1
 558.366845331 497.95372714 544.545994159 235.018945579 443.5 92 c 0
 405.501599837 38.2176490003 340.871092128 -12 232 -12 c 0
 112.800317371 -12 24 85.3240948554 24 198 c 0
 24 341.839676635 130.78030783 445 270 445 c 0
 374.573299983 445 424.790733667 374.271213852 437 339 c 1
 438.756777535 353.054220279 441 374.892362033 441 399 c 0
 441 465.655469461 425.304160947 515.85000624 394 550 c 1
 301 473 l 1
 273 509 l 1
 357 579 l 1
EndSplineSet
EndChar

StartChar: thorn
Encoding: 254 254 184
Width: 557
GlyphClass: 1
Flags: W
HStem: -161 21G<-26 64.3137> -12 72<192.634 327.551> 432 72<239.537 373.868> 648 20G<145.754 236>
VStem: -26 86<-161 -75> 150 86<582 668> 419 91<180.531 385.62>
DStem2: -26 -161 60 -161 0.207912 0.978148<17.8804 278.743 630.404 847.477>
LayerCount: 2
Fore
SplineSet
141 218 m 0
 141 175.138189637 151.30227858 60 262 60 c 0
 370.217636223 60 419 198.965903808 419 288 c 0
 419.666666667 338 409.5 374.5 388.5 397.5 c 0
 367.5 420.5 341 432 309 432 c 0
 186.542040539 432 141 291.122182302 141 218 c 0
510 291 m 0
 510 89.3180907187 385.031394999 -12 265 -12 c 0
 225.666666667 -12 193 -1.5 167 19.5 c 0
 141 40.5 123.666666667 65.3333333333 115 94 c 1
 60 -161 l 1
 -26 -161 l 1
 150 668 l 1
 236 668 l 1
 188 438 l 1
 208.970995219 464.84287388 252.505036967 504 328 504 c 0
 403.184166454 504 510 462.021673938 510 291 c 0
EndSplineSet
EndChar

StartChar: multiply
Encoding: 215 215 185
Width: 593
GlyphClass: 1
Flags: W
HStem: 193 115<230.5 345.5>
DStem2: 134 462 77 404 0.707107 -0.707107<0.707107 217.789 299.813 516.188> 77 97 134 39 0.707107 0.707107<0 217.082 298.399 515.481>
LayerCount: 2
Fore
SplineSet
134 39 m 1
 77 97 l 1
 231 250 l 1
 77 404 l 1
 134 462 l 1
 288 308 l 1
 442 462 l 1
 499 404 l 1
 346 250 l 1
 499 97 l 1
 442 39 l 1
 288 193 l 1
 134 39 l 1
EndSplineSet
EndChar

StartChar: divide
Encoding: 247 247 186
Width: 619
GlyphClass: 1
Flags: W
HStem: 14 129<251.727 347.898> 208 81<52 548> 354 129<251.913 347.718>
VStem: 235 129<30.913 126.876 370.283 466.086>
CounterMasks: 1 e0
LayerCount: 2
Fore
SplineSet
364 79 m 0
 364 43.1791014609 336.843895654 14 300 14 c 0
 263.647709807 14 235 42.6488464916 235 79 c 0
 235 113.342471029 262.950942131 143 300 143 c 0
 337.524343635 143 364 112.811373797 364 79 c 0
52 208 m 1
 52 289 l 1
 548 289 l 1
 548 208 l 1
 52 208 l 1
364 418 m 0
 364 381.674993289 336.328327077 354 300 354 c 0
 264.179101461 354 235 381.156104346 235 418 c 0
 235 454.352290193 263.648846492 483 300 483 c 0
 336.845849679 483 364 453.81887967 364 418 c 0
EndSplineSet
EndChar

StartChar: OE
Encoding: 307 338 187
Width: 1070
GlyphClass: 1
Flags: W
HStem: -12 80<239.481 424.348> 0 82<631 974> 304 80<696 944> 587 81<739 1098> 601 79<320.72 501.854>
VStem: 53 95<163.295 392.795>
LayerCount: 2
Fore
SplineSet
148 269 m 0xac
 148 126.214676971 237.08101197 68 324 68 c 0
 524.135780436 68 594 274.364526236 594 398 c 0
 594 546.22111743 500.125941117 601 418 601 c 0
 199.117267928 601 148 363.213346938 148 269 c 0xac
551 80 m 1
 527.696455775 57.8332140301 454.282051282 -12 311 -12 c 0
 132.957282576 -12 53 122.018920728 53 269 c 0
 53 426.22112826 146.462620448 680 431 680 c 0xac
 484.403515112 680 591.964663659 665.450930164 652 557 c 1
 676 668 l 1
 1115 668 l 1
 1098 587 l 1
 739 587 l 1
 696 384 l 1
 961 384 l 1
 944 304 l 1
 678 304 l 1
 631 82 l 1
 991 82 l 1
 974 0 l 1
 534 0 l 1x74
 551 80 l 1
EndSplineSet
EndChar

StartChar: oe
Encoding: 308 339 188
Width: 910
GlyphClass: 1
Flags: W
HStem: -12 74<535.41 703.992> 226 67<497 789.974> 430 74<210.321 368.646 580.42 745.134>
VStem: 26 88<117.769 310.214> 790 87<293.882 384.054>
LayerCount: 2
Fore
SplineSet
114 199 m 0
 114 0.862452240855 389.474996606 5.43745757893 411 274.5 c 0
 411.666666667 282.833333333 412 290.666666667 412 298 c 0
 412 348 400.5 382.5 377.5 401.5 c 0
 354.5 420.5 326 430 292 430 c 0
 114.942899517 430 114 201.916247589 114 199 c 0
790 312 m 2
 790 337.466395526 782.049216323 432 664 432 c 0
 607.555340317 432 519.250302722 397.894284259 497 293 c 1
 789 293 l 2
 789.666666667 296.333333333 790 299.666666667 790 303 c 2
 790 312 l 2
424 86 m 1
 389.691730162 40.2556402158 329.224880944 -12 232 -12 c 0
 184.581803081 -12 26 2.4673718496 26 196 c 0
 26 240.026534624 35.2034048039 365.469373049 134 444 c 0
 160.630135436 465.167543552 220.334395889 504 300 504 c 0
 334.666666667 504 366.333333333 497 395 483 c 0
 423.666666667 469 447.666666667 443.333333333 467 406 c 1
 489.176546139 435.779933386 553.16661777 504 674 504 c 0
 828.987642628 504 877 392.670583158 877 302 c 0
 877 277.333333333 874 252 868 226 c 1
 484 226 l 1
 483.333333333 221.333333333 483 216.833333333 483 212.5 c 2
 483 200 l 2
 483 156.74360279 496.626061334 62 616 62 c 0
 655.266393418 62 703.378492742 71.8163420162 739 111 c 1
 817 87 l 1
 783.662224059 44.2859745752 719.039294481 -12 610 -12 c 0
 556.261368124 -12 477.83507856 -4.36602472597 424 86 c 1
EndSplineSet
EndChar

StartChar: Aring
Encoding: 197 197 192
Width: 627
GlyphClass: 2
Flags: W
HStem: 0 21G<-52 67.3699 459.123 565> 146 80<184 430> 779 58<361.909 446.06>
VStem: 295 57<686.466 768.565> 456 57<686.992 768.966> 462 103<0 103>
DStem2: -52 0 56 0 0.506117 0.862465<54.6606 222.588 314.361 713.341>
AnchorPoint: "Anchor-2" 513 10 basechar 0
AnchorPoint: "Anchor-1" 427 837 basechar 0
AnchorPoint: "Anchor-0" 261 0 basechar 0
LayerCount: 2
Fore
SplineSet
513 728 m 0xf8
 513 714.776754431 509.712921417 664.253561552 461.529416443 634.113301064 c 1
 565 0 l 1
 462 0 l 1xf4
 441 146 l 1
 139 146 l 1
 56 0 l 1
 -52 0 l 1
 329.289960047 649.749217631 l 1
 316.502174663 661.983278561 295 688.436554799 295 728 c 0
 295 787.582247221 344.419029916 837 406 837 c 0
 471.266202672 837 513 783.668218953 513 728 c 0xf8
184 226 m 1
 430 226 l 1
 381 573 l 1
 184 226 l 1
352 728 m 0
 352 700.4599235 373.659311061 677 404 677 c 0
 434.340633879 677 456 700.459867842 456 728 c 0xf8
 456 755.5400765 434.340688939 779 404 779 c 0
 373.659366121 779 352 755.540132158 352 728 c 0
EndSplineSet
EndChar

StartChar: Ccedilla
Encoding: 199 199 203
Width: 661
GlyphClass: 2
Flags: W
HStem: -181 41<179.939 296.044> -82 39<251.779 334.216> -12 79<305.694 423.64> 498 21G<560.558 625.333> 600 80<320.459 501.934>
VStem: 53 96<168.077 401.286> 304 63<-132.416 -83.4618>
AnchorPoint: "Anchor-1" 420 668 basechar 0
AnchorPoint: "Anchor-0" 257 -181 basechar 0
LayerCount: 2
Fore
SplineSet
367 -96 m 0
 367 -109.653129994 353.973243672 -181 254 -181 c 0
 229.333333333 -181 200.333333333 -175 167 -163 c 1
 190 -126 l 1
 218.311027702 -137.657481995 235.314037629 -140 247 -140 c 0
 292.200533897 -140 304 -113.092535086 304 -104 c 0
 304 -96.5082339488 299.998143846 -82 269 -82 c 0
 244.380075379 -82 246.119924621 -87 234 -87 c 0
 222 -87 216 -81.3333333333 216 -70 c 0
 216 -66 217.666666667 -61.6666666667 221 -57 c 2
 261.320635338 -8.37805738663 l 1
 112.641517766 13.0700488563 53 135.525120735 53 263 c 0
 53 479.510206034 199.311874361 680 421 680 c 0
 499.079093337 680 614.844308495 656.83284358 655 528 c 1
 566 498 l 1
 555.115502498 532.014054693 519.75717762 600 411 600 c 0
 243.232824547 600 149 424.508747225 149 272 c 0
 149 150.587026677 217.524736538 67 325 67 c 0
 404.197459559 67 464.194521623 93.2917824346 516 171 c 1
 595 140 l 1
 552.829287735 71.8090610183 469.558539332 -12 315 -12 c 0
 311.866835385 -12 308.764916118 -11.967334408 305.6942422 -11.9020032241 c 2
 278 -45 l 1
 290.084971733 -43.2735754667 296.172488529 -43 302 -43 c 0
 364.606081551 -43 367 -88.9703544992 367 -96 c 0
EndSplineSet
EndChar

StartChar: ccedilla
Encoding: 231 231 204
Width: 495
GlyphClass: 2
Flags: W
HStem: -181 41<79.9391 196.044> -82 39<151.779 234.216> -12 74<205.968 319.711> 430 74<215.454 365.712>
VStem: 26 92<108.783 311.341> 204 63<-132.416 -83.4618>
AnchorPoint: "Anchor-1" 301 496 basechar 0
AnchorPoint: "Anchor-0" 195 0 basechar 0
LayerCount: 2
Fore
SplineSet
267 -96 m 0
 267 -109.653129994 253.973243672 -181 154 -181 c 0
 129.333333333 -181 100.333333333 -175 67 -163 c 1
 90 -126 l 1
 118.311027702 -137.657481995 135.314037629 -140 147 -140 c 0
 192.200533897 -140 204 -113.092535086 204 -104 c 0
 204 -96.5082339488 199.998143846 -82 169 -82 c 0
 144.380075379 -82 146.119924621 -87 134 -87 c 0
 122 -87 116 -81.3333333333 116 -70 c 0
 116 -66 117.666666667 -61.6666666667 121 -57 c 2
 163.584278968 -5.64836947988 l 1
 123.282598854 3.89905512195 26 42.4340113032 26 192 c 0
 26 358.668095191 130.177438388 504 298 504 c 0
 339.956715367 504 434.633324106 497.47201993 483 393 c 1
 400 364 l 1
 386.523170573 404.43048828 344.682931635 430 294 430 c 0
 168.594622218 430 118 300.900595457 118 197 c 0
 118 134.813683762 139.640780093 62 241 62 c 0
 291.968408925 62 333.23853399 83.688909986 365 127 c 1
 436 99 l 1
 412.949667275 61.7126970622 351.058609085 -12 222 -12 c 0
 216.549062004 -12 211.205050655 -11.8582899864 205.967965953 -11.5748699592 c 1
 178 -45 l 1
 190.084971733 -43.2735754667 196.172488529 -43 202 -43 c 0
 264.606081551 -43 267 -88.9703544992 267 -96 c 0
EndSplineSet
EndChar

StartChar: Eth
Encoding: 208 208 249
Width: 710
GlyphClass: 1
Flags: W
HStem: 0 79<163 386.588> 303 80<39 114 228 351> 588 80<271 485.581>
DStem2: 50 0 146.208 0 0.207912 0.978148<100.768 309.685 411.639 621.099>
LayerCount: 2
Fore
SplineSet
163 79 m 1
 249 79 l 2
 395.473726135 79 540.05392444 131.193808272 572 325 c 0
 602.252100335 502.731089469 547.232522735 588 356 588 c 2
 271 588 l 1
 228 383 l 1
 368 383 l 1
 351 303 l 1
 211 303 l 1
 163 79 l 1
50 0 m 1
 114 303 l 1
 22 303 l 1
 39 383 l 1
 131 383 l 1
 192 668 l 1
 376 668 l 2
 567.071485123 668 712.646342511 594.452066874 667 319 c 0
 649.182484962 213.08477172 571.521430396 0 235 0 c 2
 50 0 l 1
EndSplineSet
EndChar

StartChar: one.tf
Encoding: 317 -1 251
Width: 639
GlyphClass: 1
Flags: W
HStem: 8 77<53 232 317 459> 513 67<159 302.301> 657 20G<364.674 442>
VStem: 384 58<643.917 677>
DStem2: 215.633 8 300.633 8 0.207912 0.978148<96.3927 516.079>
LayerCount: 2
Fore
SplineSet
159 580 m 1
 260.681720012 580 345.347446271 596.933995846 384 677 c 1
 442 677 l 1
 317 85 l 1
 475 85 l 1
 459 8 l 1
 37 8 l 1
 53 85 l 1
 232 85 l 1
 322 513 l 1
 144 513 l 1
 159 580 l 1
EndSplineSet
Substitution2: "'pnum' Proportional Numbers lookup 13 subtable" one
Substitution2: "'aalt' Access All Alternates lookup 0 subtable" one
EndChar

StartChar: Aogonek
Encoding: 328 260 262
Width: 627
GlyphClass: 2
Flags: W
HStem: -173 57<457.963 531.099> 0 21G<-52 67.3699> 146 80<184 430> 648 20G<328.263 459.263>
VStem: 380 77<-112.583 -51.7275>
DStem2: -52 0 56 0 0.506117 0.862465<54.6606 222.588>
AnchorPoint: "Anchor-2" 513 10 basechar 0
AnchorPoint: "Anchor-1" 387 668 basechar 0
AnchorPoint: "Anchor-0" 261 0 basechar 0
LayerCount: 2
Fore
SplineSet
184 226 m 1
 430 226 l 1
 381 573 l 1
 184 226 l 1
457 -89 m 0
 457 -105.246319419 474.042906006 -116 498 -116 c 0
 511.333333333 -116 526 -113 542 -107 c 1
 531 -161 l 1
 505 -169 482.666666667 -173 464 -173 c 0
 452.946781303 -173 380 -170.55466234 380 -106 c 0
 380 -60.6730818362 421.270267225 -18.8795053928 486 0 c 1
 462 0 l 1
 441 146 l 1
 139 146 l 1
 56 0 l 1
 -52 0 l 1
 340 668 l 1
 456 668 l 1
 565 0 l 1
 527.978545847 -13.3907387364 457 -44.8244839948 457 -89 c 0
EndSplineSet
EndChar

StartChar: aogonek
Encoding: 329 261 263
Width: 521
GlyphClass: 2
Flags: W
HStem: -173 57<300.963 374.099> -12 69<117.967 256.793> 436 68<205.884 354.814>
VStem: 5 94<76.1003 180.794> 223 77<-112.583 -51.7275> 377 85<309.451 413.228>
AnchorPoint: "Anchor-2" 408 0 basechar 0
AnchorPoint: "Anchor-1" 311 496 basechar 0
AnchorPoint: "Anchor-0" 208 0 basechar 0
LayerCount: 2
Fore
SplineSet
99 125 m 0
 99 113.578408909 102.939628833 57 181 57 c 0
 202.147802098 57 331.564716753 63.6091133271 359 224 c 2
 362 241 l 1
 162.619086647 221.782562568 99 200.60216874 99 125 c 0
300 -89 m 0
 300 -105.246319419 317.042906006 -116 341 -116 c 0
 354.333333333 -116 369 -113 385 -107 c 1
 374 -161 l 1
 348 -169 325.666666667 -173 307 -173 c 0
 295.946781303 -173 223 -170.55466234 223 -106 c 0
 223 -60.6730818362 264.270267225 -18.8795053928 329 0 c 1
 325 63 l 1
 266.740344257 -2.32143219718 207.6094814 -12 154 -12 c 0
 75.649821255 -12 5 31.6490516434 5 117 c 0
 5 215.112373153 88.542885371 277.674775039 289 299 c 0
 320.333333333 302.333333333 347.333333333 305.333333333 370 308 c 1
 376.381056378 337.778263096 377 348.046157003 377 357 c 0
 377 409.666666667 346.333333333 436 285 436 c 0
 245.942893528 436 188.573715723 423.744339177 158 359 c 1
 83 382 l 1
 105.466122411 430.388571347 159.592224047 504 281 504 c 0
 377.995048779 504 462 471.968469425 462 361 c 0
 462 283.605637724 412.953738721 173.380855247 408 0 c 1
 370.978545847 -13.3907387364 300 -44.8244839948 300 -89 c 0
EndSplineSet
EndChar

StartChar: Eogonek
Encoding: 334 280 268
Width: 565
GlyphClass: 2
Flags: W
HStem: -173 57<330.963 404.099> 0 81<127 359 389.8 469> 304 80<192 439> 587 81<235 594>
VStem: 253 77<-112.583 -51.7275>
DStem2: -22.7723 -173 73.0106 -173 0.207912 0.978148<279.589 507.696 589.482 796.986>
AnchorPoint: "Anchor-2" 438 0 basechar 0
AnchorPoint: "Anchor-1" 381 668 basechar 0
AnchorPoint: "Anchor-0" 230 0 basechar 0
LayerCount: 2
Fore
SplineSet
330 -89 m 0
 330 -105.246319419 347.042906006 -116 371 -116 c 0
 384.333333333 -116 399 -113 415 -107 c 1
 404 -161 l 1
 378 -169 355.666666667 -173 337 -173 c 0
 325.946781303 -173 253 -170.55466234 253 -106 c 0
 253 -60.6730818362 294.270267225 -18.8795053928 359 0 c 1
 14 0 l 1
 156 668 l 1
 611 668 l 1
 594 587 l 1
 235 587 l 1
 192 384 l 1
 457 384 l 1
 439 304 l 1
 175 304 l 1
 127 81 l 1
 486 81 l 1
 469 0 l 1
 438 0 l 1
 400.978545847 -13.3907387364 330 -44.8244839948 330 -89 c 0
EndSplineSet
EndChar

StartChar: eogonek
Encoding: 335 281 269
Width: 542
GlyphClass: 2
Flags: W
HStem: -163 57<229.963 303.099> 225 68<128 421.908> 432 72<215.946 371.462>
VStem: 27 88<113.162 224.781> 152 77<-102.583 -41.2811> 422 87<293.224 383.373>
AnchorPoint: "Anchor-2" 337 10 basechar 0
AnchorPoint: "Anchor-1" 321 496 basechar 0
AnchorPoint: "Anchor-0" 218 0 basechar 0
LayerCount: 2
Fore
SplineSet
422 310 m 2
 422 329.164620045 416.435337261 432 297 432 c 0
 232.928625272 432 150.061337129 392.276017078 128 293 c 1
 421 293 l 2
 421.666666667 296.333333333 422 299.333333333 422 302 c 2
 422 310 l 2
229 -79 m 0
 229 -95.2463194194 246.042906006 -106 270 -106 c 0
 283.333333333 -106 298 -103 314 -97 c 1
 303 -151 l 1
 277 -159 254.666666667 -163 236 -163 c 0
 224.946781303 -163 152 -160.55466234 152 -96 c 0
 152 -79.8098799038 158.094408056 -41.9042578511 209.629827414 -10.7264341515 c 1
 169.001368803 -6.95547948264 27 19.0928552901 27 199 c 0
 27 368.183197735 131.189655236 504 309 504 c 0
 469.509705085 504 509 381.375769314 509 300 c 0
 509 276 506 251 500 225 c 1
 116 225 l 1
 115.333333333 220.333333333 115 215.666666667 115 211 c 2
 115 197 l 2
 115 149.681550321 129.085467442 97.0461824829 185 74.5 c 0
 205.666666667 66.1666666667 226.666666667 62 248 62 c 0
 265.375386518 62 324.227272727 62 371 111 c 1
 449 87 l 1
 429.362670742 61.5869856667 380.011326728 9.11947946531 297.801210301 -6.63461991197 c 1
 281.700344623 -14.6670244727 229 -40.9581877541 229 -79 c 0
EndSplineSet
EndChar

StartChar: Iogonek
Encoding: 342 302 276
Width: 414
GlyphClass: 2
Flags: W
HStem: -173 57<88.9634 162.099> 0 75<20 113 209 285> 593 75<146 223 318 412>
VStem: 11 77<-112.583 -51.7275>
DStem2: 60.286 -173 156.286 -173 0.207912 0.978148<273.5 783.091>
AnchorPoint: "Anchor-2" 196 0 basechar 0
AnchorPoint: "Anchor-1" 287 668 basechar 0
AnchorPoint: "Anchor-0" 150 0 basechar 0
LayerCount: 2
Fore
SplineSet
88 -89 m 0
 88 -105.246319419 105.042906006 -116 129 -116 c 0
 142.333333333 -116 157 -113 173 -107 c 1
 162 -161 l 1
 136 -169 113.666666667 -173 95 -173 c 0
 83.9467813033 -173 11 -170.55466234 11 -106 c 0
 11 -60.6730818362 52.2702672246 -18.8795053928 117 0 c 1
 4 0 l 1
 20 75 l 1
 113 75 l 1
 223 593 l 1
 130 593 l 1
 146 668 l 1
 427 668 l 1
 412 593 l 1
 318 593 l 1
 209 75 l 1
 301 75 l 1
 285 0 l 1
 196 0 l 1
 158.978545847 -13.3907387364 88 -44.8244839948 88 -89 c 0
EndSplineSet
EndChar

StartChar: iogonek
Encoding: 343 303 277
Width: 270
GlyphClass: 2
Flags: W
HStem: -173 57<24.9634 98.0995> 428 68<71 137> 591 125<182.529 276.712>
VStem: -53 77<-112.583 -51.7275> 167 125<606.529 700.711>
DStem2: 9.22771 -173 95.2277 -173 0.207912 0.978148<180.62 614.432>
AnchorPoint: "Anchor-2" 132 0 basechar 0
AnchorPoint: "Anchor-1" 203 691 basechar 0
AnchorPoint: "Anchor-0" 71 0 basechar 0
LayerCount: 2
Fore
SplineSet
292 653 m 0
 292 619.976974901 264.695099495 591 229 591 c 0
 195.299418536 591 167 619.297123835 167 653 c 0
 167 688.694523769 195.976394894 716 229 716 c 0
 264.016671013 716 292 688.013856556 292 653 c 0
24 -89 m 0
 24 -105.246319419 41.0429060063 -116 65 -116 c 0
 78.3333333333 -116 93 -113 109 -107 c 1
 98 -161 l 1
 72 -169 49.6666666667 -173 31 -173 c 0
 19.9467813033 -173 -53 -170.55466234 -53 -106 c 0
 -53 -60.6730818362 -11.7297327754 -18.8795053928 53 0 c 1
 46 0 l 1
 137 428 l 1
 57 428 l 1
 71 496 l 1
 237 496 l 1
 132 0 l 1
 94.9785458465 -13.3907387364 24 -44.8244839948 24 -89 c 0
EndSplineSet
EndChar

StartChar: uni0326
Encoding: 348 806 282
Width: 0
GlyphClass: 4
Flags: W
HStem: -241 36<-41 1.21149>
VStem: 37 67<-175.123 -70.6994>
AnchorPoint: "Anchor-3" 1 -251 basemark 0
AnchorPoint: "Anchor-3" 73 0 mark 0
AnchorPoint: "Anchor-0" 73 0 mark 0
LayerCount: 2
Fore
SplineSet
65 -46 m 1
 79.0892256191 -55.1579966524 104 -76.8803756524 104 -116 c 0
 104 -188.07220005 36.6385814326 -241 -41 -241 c 1
 -66 -205 l 1
 -18.1048060885 -208.831615513 37 -178.027096201 37 -124 c 0
 37 -100.666666667 26.3333333333 -84.3333333333 5 -75 c 1
 65 -46 l 1
EndSplineSet
EndChar

StartChar: Uogonek
Encoding: 357 370 291
Width: 693
GlyphClass: 2
Flags: W
HStem: -173 57<244.963 318.099> 648 20G<152.722 253 596.707 697>
VStem: 61 98<108.344 318.938> 157 96<572 668> 167 77<-112.583 -51.0258> 601 96<572 668>
DStem2: -22.2881 -173 74.4123 -173 0.207912 0.978148<390.246 859.898> 421.412 -173 517.712 -173 0.207912 0.978148<327.027 859.961>
AnchorPoint: "Anchor-2" 352 0 basechar 0
AnchorPoint: "Anchor-1" 415 668 basechar 0
AnchorPoint: "Anchor-0" 294 0 basechar 0
LayerCount: 2
Fore
SplineSet
244 -89 m 0xec
 244 -105.246319419 261.042906006 -116 285 -116 c 0
 298.333333333 -116 313 -113 329 -107 c 1
 318 -161 l 1
 292 -169 269.666666667 -173 251 -173 c 0
 239.946781303 -173 167 -170.55466234 167 -106 c 0
 167 -93.2467861335 171.805280876 -42.7704417057 244.647003259 -10.3076047696 c 1
 96.8221592605 2.43522175456 61 84.0273462057 61 175 c 0xec
 61 203.813956002 65.3993305841 238.430097823 74 280 c 2
 157 668 l 1
 253 668 l 1xd4
 169 272 l 2
 164.404782655 249.023913274 159 216.454460907 159 186 c 0
 159 100.976565735 202.519029407 69 291 69 c 0
 423.153421221 69 484.390849317 126.969779218 516 272 c 2
 601 668 l 1
 697 668 l 1
 614 280 l 2
 561.982563326 32.2979205998 437.815199251 -2.14678301669 325.819442827 -10.5015965694 c 1
 283.802476027 -29.2022026519 244 -55.7039554429 244 -89 c 0xec
EndSplineSet
EndChar

StartChar: uogonek
Encoding: 358 371 292
Width: 540
GlyphClass: 2
Flags: W
HStem: -173 57<300.963 374.099> -11 73<142.619 270.883> 476 20G<106.768 197 423.692 513>
VStem: 40 86<78.2753 263.312> 111 86<410 496> 223 77<-112.583 -50.8285> 428 85<411 496>
DStem2: -30.9213 -173 54.6536 -173 0.207912 0.978148<336.818 683.888> 285.064 -173 371.228 -173 0.207912 0.978148<301.427 684.099>
AnchorPoint: "Anchor-2" 408 0 basechar 0
AnchorPoint: "Anchor-1" 308 496 basechar 0
AnchorPoint: "Anchor-0" 217 0 basechar 0
LayerCount: 2
Fore
SplineSet
300 -89 m 0xf6
 300 -105.246319419 317.042906006 -116 341 -116 c 0
 354.333333333 -116 369 -113 385 -107 c 1
 374 -161 l 1
 348 -169 325.666666667 -173 307 -173 c 0
 295.946781303 -173 223 -170.55466234 223 -106 c 0
 223 -49.6239951322 275.915202157 -16.8941978769 342.83260958 1.95288823117 c 1
 337 70 l 1
 288.230857033 5.99049985587 237.739117119 -11 173 -11 c 0
 124.333333333 -11 90 2.33333333333 70 29 c 0
 50 55.6666666667 40 88.6666666667 40 128 c 0xf6
 40 152 43 177 49 203 c 2
 111 496 l 1
 197 496 l 1xee
 135 205 l 2
 130.026393752 182.618771885 126 158.009182111 126 137 c 0
 126 118.19047619 126 62 203 62 c 0
 267.512143415 62 341.83412902 95.7286999451 372 236 c 2
 428 496 l 1
 513 496 l 1
 408 0 l 1
 370.978545847 -13.3907387364 300 -44.8244839948 300 -89 c 0xf6
EndSplineSet
EndChar

StartChar: Hbar
Encoding: 367 294 301
Width: 710
GlyphClass: 1
Flags: W
HStem: 0 21G<23 123.276 469 569.246> 304 80<201 533> 504 79<72 130 243 576 689 745> 648 20G<160.765 261 606.765 707>
VStem: 23 96<0 96> 469 96<0 96>
DStem2: 23 0 119 0 0.207912 0.978148<19.9595 330.831 412.617 515.233 616.001 682.926> 469 0 565 0 0.207912 0.978148<19.9595 310.663 392.657 515.233 616.001 682.926>
LayerCount: 2
Fore
SplineSet
201 384 m 1
 551 384 l 1
 576 504 l 1
 226 504 l 1
 201 384 l 1
23 0 m 1
 130 504 l 1
 55 504 l 1
 72 583 l 1
 147 583 l 1
 165 668 l 1
 261 668 l 1
 243 583 l 1
 593 583 l 1
 611 668 l 1
 707 668 l 1
 689 583 l 1
 762 583 l 1
 745 504 l 1
 672 504 l 1
 565 0 l 1
 469 0 l 1
 533 304 l 1
 184 304 l 1
 119 0 l 1
 23 0 l 1
EndSplineSet
EndChar

StartChar: hbar
Encoding: 368 295 302
Width: 580
GlyphClass: 1
Flags: W
HStem: 0 21G<39 129.202 365 454.306> 430 74<282.8 415.88> 548 67<88 155 256 403> 648 20G<176.849 267>
VStem: 39 86<0 86> 365 85<0 85> 433 88<230.688 412.606>
DStem2: 39 0 125 0 0.207912 0.978148<17.8804 398.877 454.469 560.143 646.678 682.926> 365 0 450 0 0.207912 0.978148<17.6725 357.586>
LayerCount: 2
Fore
SplineSet
433 352 m 0xfa
 433 401.16211465 415.152502897 430 350 430 c 0
 290.063204457 430 209.972698091 400.801812568 179 257 c 2
 125 0 l 1
 39 0 l 1
 155 548 l 1
 74 548 l 1
 88 615 l 1
 170 615 l 1
 181 668 l 1
 267 668 l 1
 256 615 l 1
 417 615 l 1
 403 548 l 1
 242 548 l 1
 216 427 l 1
 232.666666667 448.333333333 254.166666667 466.5 280.5 481.5 c 0
 306.833333333 496.5 342.333333333 504 387 504 c 0
 452.683548726 504 521 477.256984727 521 366 c 0xfa
 521 343.333333333 518 317.333333333 512 288 c 2
 450 0 l 1
 365 0 l 1xfc
 424 280 l 2
 430 309.333333333 433 333.333333333 433 352 c 0xfa
EndSplineSet
EndChar

StartChar: dcroat
Encoding: 384 273 318
Width: 602
GlyphClass: 1
Flags: W
HStem: -12 72<163.355 296.741> 0 21G<359.361 442.333> 432 72<208.928 349.017> 548 67<308 456 556 623> 648 20G<476.849 567>
VStem: 27 90<110.046 314.833>
DStem2: 336.852 -12 421.968 -12 0.207912 0.978148<419.16 572.535 658.862 695.11>
LayerCount: 2
Fore
SplineSet
280 432 m 0xbc
 166.133084278 432 117 298.33997388 117 199 c 0
 117 152.333333333 127.833333333 117.5 149.5 94.5 c 0
 171.166666667 71.5 196.666666667 60 226 60 c 0
 336.829822328 60 398 171.652603524 398 281 c 0
 398 326.321316763 386.574024808 432 280 432 c 0xbc
356 61 m 1
 340.411315726 41.0464841296 298.96875 -12 205 -12 c 0xbc
 87.2060444257 -12 27 81.6213653554 27 198 c 0
 27 342.237848826 109.13832967 504 271 504 c 0
 371.748957769 504 412.573117311 434.729265787 424 398 c 1
 456 548 l 1
 294 548 l 1
 308 615 l 1
 470 615 l 1
 481 668 l 1
 567 668 l 1
 564 653.5 l 2
 562 643.833333333 559.333333333 631 556 615 c 1
 637 615 l 1
 623 548 l 1
 541 548 l 1
 540.111979516 543.658566525 462.494193889 177.378294186 451.5 114 c 0
 445.833333333 81.3333333333 442.666666667 43.3333333333 442 0 c 1
 361 0 l 1x7c
 356 61 l 1
EndSplineSet
EndChar

StartChar: Scedilla
Encoding: 389 350 323
Width: 609
GlyphClass: 2
Flags: W
HStem: -181 41<161.939 278.044> -82 39<233.779 316.216> -11.99 78.99<287.621 383.738> 601 79<230.702 414.137>
VStem: 87 95<444.655 558.219> 286 63<-132.416 -83.4618> 446 98<123.146 238.471>
AnchorPoint: "Anchor-1" 359 668 basechar 0
AnchorPoint: "Anchor-0" 239 -181 basechar 0
LayerCount: 2
Fore
SplineSet
349 -96 m 0
 349 -109.653129994 335.973243672 -181 236 -181 c 0
 211.333333333 -181 182.333333333 -175 149 -163 c 1
 172 -126 l 1
 200.311027702 -137.657481995 217.314037629 -140 229 -140 c 0
 274.200533897 -140 286 -113.092535086 286 -104 c 0
 286 -96.5082339488 281.998143846 -82 251 -82 c 0
 226.380075379 -82 228.119924621 -87 216 -87 c 0
 204 -87 198 -81.3333333333 198 -70 c 0
 198 -66 199.666666667 -61.6666666667 203 -57 c 2
 242.622741793 -9.21963489647 l 1
 194.272651991 -2.80083343481 79.355042282 23.7804061459 36 147 c 1
 127 172 l 1
 161.966703777 72.6209471614 269.187491445 67 293 67 c 0
 365.388147101 67 446 104.604027515 446 184 c 0
 446 352.734113861 87 256.378854261 87 495 c 0
 87 634.680887302 228.290359751 680 324 680 c 0
 402.502948698 680 518.320194902 649.344832322 561 555 c 1
 469 529 l 1
 439.265183522 586.817698707 361.313270104 601 320 601 c 0
 263.487841647 601 182 578.430402189 182 498 c 0
 182 340.972026073 544 422.490220705 544 197 c 0
 544 67.4632441146 420.49989398 -10.972229982 287.620635416 -11.9899723076 c 1
 260 -45 l 1
 272.084971733 -43.2735754667 278.172488529 -43 284 -43 c 0
 346.606081551 -43 349 -88.9703544992 349 -96 c 0
EndSplineSet
Substitution2: "'locl' Localized Forms in Latin lookup 8 subtable" uni0218
Substitution2: "'aalt' Access All Alternates lookup 0 subtable" uni0218
EndChar

StartChar: scedilla
Encoding: 390 351 324
Width: 479
GlyphClass: 2
Flags: W
HStem: -181 41<91.9391 208.044> -82 39<163.779 246.216> -11.9697 67.9697<217.638 292.522> 435 69<155.522 316.937>
VStem: 49 85<326.19 411.557> 216 63<-132.416 -83.4618> 325 88<86.5714 181.6>
AnchorPoint: "Anchor-1" 260 496 basechar 0
AnchorPoint: "Anchor-0" 169 -181 basechar 0
LayerCount: 2
Fore
SplineSet
279 -96 m 0
 279 -109.653129994 265.973243672 -181 166 -181 c 0
 141.333333333 -181 112.333333333 -175 79 -163 c 1
 102 -126 l 1
 130.311027702 -137.657481995 147.314037629 -140 159 -140 c 0
 204.200533897 -140 216 -113.092535086 216 -104 c 0
 216 -96.5082339488 211.998143846 -82 181 -82 c 0
 156.380075379 -82 158.119924621 -87 146 -87 c 0
 134 -87 128 -81.3333333333 128 -70 c 0
 128 -66 129.666666667 -61.6666666667 133 -57 c 2
 172.263950366 -9.65229514637 l 1
 70.7328892717 2.63673733362 31.1158334685 58.5861214466 10 113 c 1
 96 142 l 1
 111.20049296 58.3972887212 205.254941006 56 216 56 c 0
 217.358013255 56 325 57.3293779196 325 137 c 0
 325 251.46688718 49 182.167070147 49 365 c 0
 49 472.2877491 168.054881167 504 240 504 c 0
 307.808608167 504 404.509300314 477.056982445 431 402 c 1
 351 374 l 1
 333.856445148 425.430664555 261.317133622 435 233 435 c 0
 224.191310004 435 134 433.450666654 134 370 c 0
 134 257.712177091 413 324.772092125 413 143 c 0
 413 39.4647613375 322.784462231 -10.5923619096 217.637556656 -11.9697493629 c 1
 190 -45 l 1
 202.084971733 -43.2735754667 208.172488529 -43 214 -43 c 0
 276.606081551 -43 279 -88.9703544992 279 -96 c 0
EndSplineSet
Substitution2: "'locl' Localized Forms in Latin lookup 8 subtable" uni0219
Substitution2: "'aalt' Access All Alternates lookup 0 subtable" uni0219
EndChar

StartChar: uni0162
Encoding: 395 354 329
Width: 558
GlyphClass: 2
Flags: W
HStem: -181 41<102.939 219.044> -82 39<174.779 257.216> 0 21G<238.653 270.191> 587 81<90 293 389 611>
VStem: 227 63<-132.416 -83.4618>
DStem2: 130.527 -181 227.527 -181 0.207912 0.978148<205.211 784.997>
AnchorPoint: "Anchor-1" 356 668 basechar 0
AnchorPoint: "Anchor-0" 146 -251 basechar 0
LayerCount: 2
Fore
SplineSet
290 -96 m 0
 290 -109.653129994 276.973243672 -181 177 -181 c 0
 152.333333333 -181 123.333333333 -175 90 -163 c 1
 113 -126 l 1
 141.311027702 -137.657481995 158.314037629 -140 170 -140 c 0
 215.200533897 -140 227 -113.092535086 227 -104 c 0
 227 -96.5082339488 222.998143846 -82 192 -82 c 0
 167.380075379 -82 169.119924621 -87 157 -87 c 0
 145 -87 139 -81.3333333333 139 -70 c 0
 139 -66 140.666666667 -61.6666666667 144 -57 c 2
 191.268292683 -3.5527136788e-15 l 1
 169 0 l 1
 293 587 l 1
 73 587 l 1
 90 668 l 1
 628 668 l 1
 611 587 l 1
 389 587 l 1
 266 0 l 1
 238.653061224 2.22044604925e-16 l 1
 201 -45 l 1
 213.084971733 -43.2735754667 219.172488529 -43 225 -43 c 0
 287.606081551 -43 290 -88.9703544992 290 -96 c 0
EndSplineSet
Substitution2: "'locl' Localized Forms in Latin lookup 8 subtable" uni021A
Substitution2: "'aalt' Access All Alternates lookup 0 subtable" uni021A
EndChar

StartChar: acutecomb.case
Encoding: 398 -1 332
Width: 0
GlyphClass: 4
Flags: W
HStem: 744 120
VStem: 135 198
AnchorPoint: "Anchor-4" 251 864 basemark 0
AnchorPoint: "Anchor-4" 185 668 mark 0
AnchorPoint: "Anchor-1" 185 668 mark 0
LayerCount: 2
Fore
SplineSet
297 864 m 0
 317.193797892 864 333 848.191531307 333 828 c 0
 333 805.404502997 322.710681334 795.099144157 263 767 c 0
 251.666666667 761.666666667 241.666666667 756.833333333 233 752.5 c 2
 216 744 l 1
 135 744 l 1
 136.404381714 745.053286286 248.887089037 839.205063598 271 855 c 0
 280.333333333 861 289 864 297 864 c 0
EndSplineSet
EndChar

StartChar: caron.alt
Encoding: 401 -1 335
Width: 206
GlyphClass: 1
Flags: W
HStem: 495 183
VStem: 155 74<603.5 672.843>
LayerCount: 2
Fore
SplineSet
197 678 m 0
 213.691378753 678 229 668.589753087 229 648 c 0
 229 642.666666667 225 633 217 619 c 2
 145 495 l 1
 96 495 l 1
 96.6124794156 496.531198539 148.739420029 637.730956052 155 649 c 0
 155.179210598 649.477894927 166.939557541 678 197 678 c 0
EndSplineSet
EndChar

StartChar: uni2074
Encoding: 411 8308 345
Width: 397
GlyphClass: 1
Flags: W
HStem: 489 57<169 269 351 404>
VStem: 251 70<403 473>
DStem2: 88 543 169 546 0.708606 0.705604<59.5139 264.571> 251 403 321 403 0.207912 0.978148<14.5538 87.8631 160.666 295.575>
LayerCount: 2
Fore
SplineSet
169 546 m 1
 281 546 l 1
 313 692 l 1
 169 546 l 1
251 403 m 1
 269 489 l 1
 76 489 l 1
 88 543 l 1
 324 778 l 1
 401 778 l 1
 351 546 l 1
 416 546 l 1
 404 489 l 1
 339 489 l 1
 321 403 l 1
 251 403 l 1
EndSplineSet
EndChar

StartChar: gravecomb.case
Encoding: 414 -1 348
Width: 0
GlyphClass: 4
Flags: W
HStem: 744 120<220.638 239.599>
VStem: 168 153
AnchorPoint: "Anchor-4" 261 864 basemark 0
AnchorPoint: "Anchor-4" 239 668 mark 0
AnchorPoint: "Anchor-1" 239 668 mark 0
LayerCount: 2
Fore
SplineSet
168 828 m 0
 168 828.509116882 169.543248635 864 204 864 c 0
 216 864 226.666666667 858.666666667 236 848 c 0
 314 752.666666667 314 752.666666667 321 744 c 1
 248 744 l 1
 181.735654614 792.723783372 168 805.228447013 168 828 c 0
EndSplineSet
EndChar

StartChar: uni030B
Encoding: 415 779 349
Width: 4
GlyphClass: 4
Flags: W
HStem: 572 136<217 242.53>
VStem: 71 329
AnchorPoint: "Anchor-4" 254 708 basemark 0
AnchorPoint: "Anchor-4" 189 496 mark 0
AnchorPoint: "Anchor-1" 189 496 mark 0
LayerCount: 2
Fore
SplineSet
364 708 m 0
 391.208876682 708 400 684.410415674 400 670 c 0
 400 645.333333333 378.713963964 631.142642643 302 580 c 2
 290 572 l 1
 217 572 l 1
 232.5 589 l 2
 233.526900125 590.126277556 321.780579129 686.835434346 338 699 c 0
 346 705 354.666666667 708 364 708 c 0
218 708 m 0
 242.529575872 708 255 689.963749257 255 671 c 0
 255 645.333333333 234.257575758 631.505050505 157 580 c 2
 145 572 l 1
 71 572 l 1
 81.5 583 l 2
 82.6061897716 584.158865475 180.305016275 689.254180229 192 699 c 0
 200 705 208.666666667 708 218 708 c 0
EndSplineSet
Substitution2: "'case' Case-Sensitive Forms lookup 15 subtable" uni030B.case
Substitution2: "Single Substitution lookup 7 subtable" uni030B.case
Substitution2: "Single Substitution lookup 6 subtable" uni030B.case
Substitution2: "Single Substitution lookup 4 subtable" uni030B.case
Substitution2: "Single Substitution lookup 3 subtable" uni030B.case
Substitution2: "'aalt' Access All Alternates lookup 0 subtable" uni030B.case
EndChar

StartChar: dotlessi
Encoding: 417 305 351
Width: 248
GlyphClass: 2
Flags: W
HStem: 0 21G<46 136.234> 428 68<71 137>
VStem: 46 86<0 86>
DStem2: 46 0 132 0 0.207912 0.978148<17.8804 437.567>
AnchorPoint: "Anchor-2" 132 0 basechar 0
AnchorPoint: "Anchor-1" 167 496 basechar 0
AnchorPoint: "Anchor-0" 71 0 basechar 0
LayerCount: 2
Fore
SplineSet
46 0 m 1
 137 428 l 1
 57 428 l 1
 71 496 l 1
 237 496 l 1
 132 0 l 1
 46 0 l 1
EndSplineSet
EndChar

StartChar: uni00B5
Encoding: 181 181 356
Width: 554
GlyphClass: 2
Flags: W
HStem: -162 21G<-28 62.0404> -11 73<142.632 268.07> 476 20G<106.775 197 423.692 513>
VStem: -28 86<-162 -76> 111 86<410 496> 428 85<411 496>
DStem2: -28 -162 58 -162 0.207912 0.978148<17.8804 159.613 325.451 672.521> 287.402 -162 372.634 -162 0.207912 0.978148<290.182 672.853>
AnchorPoint: "Anchor-2" 435 10 basechar 0
LayerCount: 2
Fore
SplineSet
173 -11 m 0
 157.744047619 -11 109.4375 -11 81 24 c 1
 81.6666666667 8.66666666667 82 -6.5 82 -21.5 c 0
 82 -36.5 80.6666666667 -50.3333333333 78 -63 c 2
 58 -162 l 1
 -28 -162 l 1
 111 496 l 1
 197 496 l 1
 135 205 l 2
 130.026393752 182.618771885 126 158.009182111 126 137 c 0
 126 118.19047619 126 62 203 62 c 0
 267.512143415 62 341.83412902 95.7286999451 372 236 c 2
 428 496 l 1
 513 496 l 1
 433 122 l 2
 425.467233549 86.8470898961 431.49257146 75 462 75 c 0
 478.670199594 75 479.579572414 77.9399389163 494 80 c 1
 478 7 l 1
 449.241994174 1.24839883477 440.078561993 0 417 0 c 0
 395.901125846 0 345.998026153 7.03256848241 342 73 c 1
 309.169841439 29.9811715413 256.093337109 -11 173 -11 c 0
EndSplineSet
EndChar

StartChar: uni0328.case
Encoding: 423 -1 358
Width: 0
GlyphClass: 4
Flags: W
HStem: -173 57<33.9634 107.099> -20 20G<29.6351 141>
VStem: -44 77<-112.583 -51.7275>
AnchorPoint: "Anchor-2" 141 0 mark 0
LayerCount: 2
Fore
SplineSet
33 -89 m 0
 33 -105.246319419 50.0429060063 -116 74 -116 c 0
 87.3333333333 -116 102 -113 118 -107 c 1
 107 -161 l 1
 81 -169 58.6666666667 -173 40 -173 c 0
 28.9467813033 -173 -44 -170.55466234 -44 -106 c 0
 -44 -60.6730818362 -2.72973277545 -18.8795053928 62 0 c 1
 141 0 l 1
 103.978545847 -13.3907387364 33 -44.8244839948 33 -89 c 0
EndSplineSet
EndChar

StartChar: uni0163
Encoding: 427 355 363
Width: 324
GlyphClass: 2
Flags: W
HStem: -181 41<-6.06093 110.044> -82 39<65.7791 148.216> 0 75<151.675 222> 428 68<63 132 232 313>
VStem: 59 92<48.5105 189.18> 118 63<-132.416 -83.4618> 173 86<534 620>
DStem2: 1.83213 -181 87.7308 -181 0.207912 0.978148<310.236 622.755 710.061 819.084>
AnchorPoint: "Anchor-1" 215 496 basechar 0
AnchorPoint: "Anchor-0" 37 -251 basechar 0
LayerCount: 2
Fore
SplineSet
181 -96 m 0xf4
 181 -109.653129994 167.973243672 -181 68 -181 c 0
 43.3333333333 -181 14.3333333333 -175 -19 -163 c 1
 4 -126 l 1
 32.3110277019 -137.657481995 49.3140376289 -140 61 -140 c 0
 106.200533897 -140 118 -113.092535086 118 -104 c 0xf4
 118 -96.5082339488 113.998143846 -82 83 -82 c 0
 58.3800753788 -82 60.1199246212 -87 48 -87 c 0
 36 -87 30 -81.3333333333 30 -70 c 0
 30 -66 31.6666666667 -61.6666666667 35 -57 c 2
 90.8978837741 10.4062716099 l 1
 78.2916891193 16.0997296748 59 30.020947093 59 67 c 0
 59 81.6666666667 62.3333333333 104.333333333 69 135 c 2
 132 428 l 1
 49 428 l 1
 63 496 l 1
 146 496 l 1
 173 620 l 1
 259 620 l 1
 232 496 l 1
 327 496 l 1
 313 428 l 1
 218 428 l 1
 160 159 l 2
 154 132 151 113.666666667 151 104 c 0xfa
 151 81.7113147555 162.657435669 75 194 75 c 2
 238 75 l 1
 222 0 l 1
 160 0 l 2
 149.305700084 0 139.54208548 0.420720757227 130.709156187 1.26216227168 c 1
 92 -45 l 1
 104.084971733 -43.2735754667 110.172488529 -43 116 -43 c 0
 178.606081551 -43 181 -88.9703544992 181 -96 c 0xf4
EndSplineSet
Substitution2: "'locl' Localized Forms in Latin lookup 8 subtable" uni021B
Substitution2: "'aalt' Access All Alternates lookup 0 subtable" uni021B
EndChar

StartChar: tildecomb
Encoding: 429 771 365
Width: 4
GlyphClass: 4
Flags: W
HStem: 575 63<292.131 391.94> 617 63<168.866 282.251>
AnchorPoint: "Anchor-4" 289 680 basemark 0
AnchorPoint: "Anchor-4" 250 496 mark 0
AnchorPoint: "Anchor-1" 250 496 mark 0
LayerCount: 2
Fore
SplineSet
426 680 m 0x40
 444.045309967 680 456 665.885192185 456 649 c 0
 456 628.203744166 427.723482948 604.240181002 413.5 593.5 c 0
 397.166666667 581.166666667 375.333333333 575 348 575 c 0x80
 282.620517901 575 278.268370988 617 219 617 c 0
 189.666666667 617 169 603.666666667 157 577 c 1
 92 577 l 1
 106.546235596 615.547524329 142.462096735 680 220 680 c 0x40
 292.734987877 680 300.473345457 638 348 638 c 0x80
 390.626744762 638 394.266112381 680 426 680 c 0x40
EndSplineSet
Substitution2: "'case' Case-Sensitive Forms lookup 15 subtable" tildecomb.case
Substitution2: "Single Substitution lookup 7 subtable" tildecomb.case
Substitution2: "Single Substitution lookup 6 subtable" tildecomb.case
Substitution2: "Single Substitution lookup 4 subtable" tildecomb.case
Substitution2: "Single Substitution lookup 3 subtable" tildecomb.case
Substitution2: "'aalt' Access All Alternates lookup 0 subtable" tildecomb.case
EndChar

StartChar: zero.alt1
Encoding: 431 -1 367
Width: 648
Flags: W
HStem: -12.0107 75.0107<222.593 387.501> 605 75<289.091 447.743>
VStem: 67.833 90.0244<177.585 414.782> 514 91<252.258 500.025>
DStem2: 168 171 207 97 0.58687 0.809681<0 465.638>
LayerCount: 2
Fore
SplineSet
304 63 m 0
 439.75 63 476.772628061 193.668099038 495 258 c 0
 498.333333333 269.333333333 501 282.333333333 503 297 c 2
 509 335 l 2
 512.333333333 359.666666667 514 384.333333333 514 409 c 0
 516.127269735 426.018157876 509.885294572 476.401468999 502 504 c 1
 207 97 l 1
 229.666666667 74.3333333333 262 63 304 63 c 0
168 171 m 1
 460 575 l 1
 437.333333333 595 407 605 369 605 c 0
 329.666666667 605 297.333333333 595.333333333 272 576 c 0
 159.043624224 491.282718168 157.857421875 271.628128966 157.857421875 268.346679688 c 0
 157.857421875 265.163085937 157.904947917 262.047526041 158 259 c 0
 158 225 161.333333333 195.666666667 168 171 c 1
383.76953125 680.010742188 m 0
 475.760965952 680.010742188 605 640.127837232 605 416 c 0
 605 352.447944955 594.888690485 162.573391256 480 57 c 0
 430 11 368.333333333 -12 295 -12 c 2
 292 -12 l 2
 291.044270833 -12.0071614583 290.091796875 -12.0107421875 289.142578125 -12.0107421875 c 0
 234.286273992 -12.0107421875 68 -5.59147450885 68 254 c 0
 67.888671875 257.888671875 67.8330078125 261.8515625 67.8330078125 265.888671875 c 0
 67.8330078125 306.543029462 76.0510951311 680 378 680 c 2
 381 680 l 2
 381.92578125 680.007161459 382.848958333 680.010742188 383.76953125 680.010742188 c 0
EndSplineSet
Substitution2: "'zero' Slashed Zero lookup 0-1" zero
Substitution2: "'aalt' Access All Alternates lookup 0 subtable" zero
Substitution2: "'tnum' Tabular Numbers lookup 14 subtable" zero
EndChar

StartChar: copyleft
Encoding: 432 127279 368
Width: 814
Flags: W
HStem: -12 62<312.299 519.703> 150 59<349.268 472.895> 473 58<355.3 473.755> 618 62<312.297 519.701>
VStem: 70 62<230.297 437.701> 512 76<252.301 431.706> 700 62<230.299 437.703>
LayerCount: 2
Fore
SplineSet
588 342 m 0
 588 286.435092388 571.920839418 150 414 150 c 0
 374.317405231 150 303.756105714 160.646968723 265 230 c 1
 331 254 l 1
 341.842350968 233.149325062 364.981451456 209 414 209 c 0
 441.283880368 209 512 220.69999829 512 342 c 0
 512 383.115768449 501.942892693 473 414 473 c 0
 378 473 351.333333333 456.666666667 334 424 c 1
 267 449 l 1
 284.955001056 483.020002 325.594076103 531 412 531 c 0
 451.589381671 531 588 518.214640635 588 342 c 0
132 334 m 0
 132 176.332025826 258.330579093 50 416 50 c 0
 573.667974174 50 700 176.330579093 700 334 c 0
 700 491.667974174 573.669420907 618 416 618 c 0
 258.332025826 618 132 491.669420907 132 334 c 0
762 334 m 0
 762 142.80807037 607.206907674 -12 416 -12 c 0
 224.80807037 -12 70 142.793092326 70 334 c 0
 70 525.19192963 224.793092326 680 416 680 c 0
 607.19192963 680 762 525.206907674 762 334 c 0
EndSplineSet
EndChar

StartChar: f_i
Encoding: 433 64257 369
Width: 527
Flags: W
HStem: 0 21G<37 127.252 303 393.234> 428 68<59 128 228 394> 591 125<439.529 533.712> 635 71<266.535 359>
VStem: 37 86<0 86> 303 86<0 86> 424 125<606.529 700.711>
DStem2: 37 0 123 0 0.207912 0.978148<17.8804 437.567 524.872 660.139> 303 0 389 0 0.207912 0.978148<17.8804 437.567>
LayerCount: 2
Fore
SplineSet
549 653 m 0xee
 549 619.976974901 521.695099495 591 486 591 c 0
 452.299418536 591 424 619.297123835 424 653 c 0
 424 688.694523769 452.976394894 716 486 716 c 0
 521.016671013 716 549 688.013856556 549 653 c 0xee
303 0 m 1
 394 428 l 1
 214 428 l 1
 123 0 l 1
 37 0 l 1
 128 428 l 1
 44 428 l 1
 59 496 l 1
 142 496 l 1
 154 549 l 2
 183.418869591 680.047691813 216.320317732 706 323 706 c 2
 374 706 l 1
 359 635 l 1
 335 635 l 2xde
 279.231860769 635 256.600472019 623.748775021 243 563 c 2
 228 496 l 1
 494 496 l 1
 389 0 l 1
 303 0 l 1
EndSplineSet
LCarets2: 1 302
Ligature2: "'liga' Standard Ligatures lookup 0-1" f i
EndChar

StartChar: f_f
Encoding: 434 64256 370
Width: 586
Flags: W
HStem: 0 21G<37 127.252 303 393.252> 428 68<59 128 228 394 494 581> 635 71<266.535 359 532.535 625>
VStem: 37 86<0 86> 303 86<0 86>
DStem2: 37 0 123 0 0.207912 0.978148<17.8804 437.567 524.872 660.139> 303 0 389 0 0.207912 0.978148<17.8804 437.567 524.872 660.139>
LayerCount: 2
Fore
SplineSet
303 0 m 1
 394 428 l 1
 214 428 l 1
 123 0 l 1
 37 0 l 1
 128 428 l 1
 44 428 l 1
 59 496 l 1
 142 496 l 1
 154 549 l 2
 183.418869591 680.047691813 216.320317732 706 323 706 c 2
 374 706 l 1
 359 635 l 1
 335 635 l 2
 278.704190165 635 256.51311468 623.358578904 243 563 c 2
 228 496 l 1
 408 496 l 1
 420 549 l 2
 449.418869591 680.047691813 482.320317732 706 589 706 c 2
 640 706 l 1
 625 635 l 1
 601 635 l 2
 544.704190165 635 522.51311468 623.358578904 509 563 c 2
 494 496 l 1
 596 496 l 1
 581 428 l 1
 480 428 l 1
 389 0 l 1
 303 0 l 1
EndSplineSet
LCarets2: 1 302
Ligature2: "'liga' Standard Ligatures lookup 0-1" f f
EndChar

StartChar: f_f_i
Encoding: 435 64259 371
Width: 793
Flags: W
HStem: 0 21G<37 127.252 303 393.252 569 659.234> 428 68<59 128 228 394 494 660> 591 125<705.529 799.712> 635 71<266.535 359 532.535 625>
VStem: 37 86<0 86> 303 86<0 86> 569 86<0 86> 690 125<606.529 700.711>
DStem2: 37 0 123 0 0.207912 0.978148<17.8804 437.567 524.872 660.139> 303 0 389 0 0.207912 0.978148<17.8804 437.567 524.872 660.139> 569 0 655 0 0.207912 0.978148<17.8804 437.567>
LayerCount: 2
Fore
SplineSet
815 653 m 0xef
 815 619.976974901 787.695099495 591 752 591 c 0
 718.299418536 591 690 619.297123835 690 653 c 0
 690 688.694523769 718.976394894 716 752 716 c 0
 787.016671013 716 815 688.013856556 815 653 c 0xef
569 0 m 1
 660 428 l 1
 480 428 l 1
 389 0 l 1
 303 0 l 1
 394 428 l 1
 214 428 l 1
 123 0 l 1
 37 0 l 1
 128 428 l 1
 44 428 l 1
 59 496 l 1
 142 496 l 1
 154 549 l 2
 183.418869591 680.047691813 216.320317732 706 323 706 c 2
 374 706 l 1
 359 635 l 1
 335 635 l 2
 279.231860769 635 256.600472019 623.748775021 243 563 c 2
 228 496 l 1
 408 496 l 1
 420 549 l 2
 449.418869591 680.047691813 482.320317732 706 589 706 c 2
 640 706 l 1
 625 635 l 1
 601 635 l 2xdf
 544.704190165 635 522.51311468 623.358578904 509 563 c 2
 494 496 l 1
 760 496 l 1
 655 0 l 1
 569 0 l 1
EndSplineSet
LCarets2: 2 304 568
Ligature2: "'liga' Standard Ligatures lookup 0-1" f f i
EndChar

StartChar: f_f_l
Encoding: 437 64260 373
Width: 845
Flags: W
HStem: 0 75<706.373 768> 428 68<59 128 228 394 494 581> 635 71<266.535 359 532.535 625> 648 20G<730.764 821>
VStem: 37 86<0 86> 303 86<0 86> 613 91<39.2288 191.188> 735 86<582 668>
DStem2: 37 0 123 0 0.207912 0.978148<17.8804 437.567 524.872 660.139> 303 0 389 0 0.207912 0.978148<17.8804 437.567 524.872 660.139> 593.43 0 679.242 0 0.207912 0.978148<124.761 682.837>
LayerCount: 2
Fore
SplineSet
303 0 m 1xef
 394 428 l 1
 214 428 l 1
 123 0 l 1
 37 0 l 1
 128 428 l 1
 44 428 l 1
 59 496 l 1
 142 496 l 1
 154 549 l 2
 183.418869591 680.047691813 216.320317732 706 323 706 c 2
 374 706 l 1
 359 635 l 1
 335 635 l 2
 279.231860769 635 256.600472019 623.748775021 243 563 c 2
 228 496 l 1
 408 496 l 1
 420 549 l 2
 449.418869591 680.047691813 482.320317732 706 589 706 c 2
 640 706 l 1
 625 635 l 1
 601 635 l 2
 545.231860769 635 522.600472019 623.748775021 509 563 c 2
 494 496 l 1
 596 496 l 1
 581 428 l 1
 480 428 l 1
 389 0 l 1
 303 0 l 1xef
704 104 m 0
 704 80.5634338249 719.321108602 75 747 75 c 2
 784 75 l 1
 768 0 l 1
 712 0 l 2
 651.268624385 0 613 11.4576797943 613 67 c 0
 613 83.6321614583 615.333333333 102.965494792 620 125 c 2
 735 668 l 1
 821 668 l 1xdf
 709 140 l 2
 704 105 704 105 704 104 c 0
EndSplineSet
LCarets2: 2 302 592
Ligature2: "'liga' Standard Ligatures lookup 0-1" f f l
EndChar

StartChar: dong
Encoding: 438 8363 374
Width: 602
Flags: W
HStem: -129 67<-13 476> -12 72<163.355 296.741> 0 21G<359.361 442.333> 432 72<208.928 349.017> 548 67<308 456 556 623> 648 20G<476.849 567>
VStem: 27 90<110.046 314.833>
DStem2: 336.852 -12 421.968 -12 0.207912 0.978148<419.16 572.535 658.862 695.11>
LayerCount: 2
Fore
SplineSet
-27 -129 m 1x9e
 -13 -62 l 1
 490 -62 l 1
 476 -129 l 1
 -27 -129 l 1x9e
EndSplineSet
Refer: 318 273 N 1 0 0 1 0 0 2
EndChar

StartChar: uni0237
Encoding: 474 567 410
Width: 258
HStem: -161 75<-138 -3.62607> 476 20G<128.735 219>
VStem: 133 86<410 496>
DStem2: -6.98484 -161 79.0779 -161 0.207912 0.978148<89.8756 671.747>
AnchorPoint: "Anchor-1" 176 496 basechar 0
LayerCount: 2
Fore
SplineSet
-85 -161 m 0
 -106.41639786 -161 -128.822387536 -160.325137498 -154 -159 c 1
 -138 -86 l 1
 -106 -86 l 2
 -4.41529060863 -86 13.5896845832 -71.1028665109 30 13 c 2
 133 496 l 1
 219 496 l 1
 115 8 l 2
 88.3454500007 -122.607294997 64.3955253771 -161 -85 -161 c 0
EndSplineSet
EndChar

StartChar: uni2010
Encoding: 489 8208 425
Width: 332
Flags: W
HStem: 208 81<49 283>
VStem: 31 270
LayerCount: 2
Fore
SplineSet
31 208 m 1
 49 289 l 1
 301 289 l 1
 283 208 l 1
 31 208 l 1
EndSplineSet
EndChar

StartChar: Ldot
Encoding: 496 319 432
Width: 541
HStem: 0 81<127 469> 250 128<315.682 412.64> 648 20G<151.749 252>
VStem: 156 96<572 668> 300 129<265.903 361.827>
DStem2: 14 0 109.783 0 0.207912 0.978148<102.724 682.926>
LayerCount: 2
Fore
SplineSet
429 314 m 0
 429 274.430758799 398.281671227 250 364 250 c 0
 331.716184827 250 300 273.778026182 300 314 c 0
 300 347.663940724 325.957353395 378 364 378 c 0
 404.275940279 378 429 346.72021757 429 314 c 0
EndSplineSet
Refer: 26 76 N 1 0 0 1 0 0 3
EndChar

StartChar: ldot
Encoding: 497 320 433
Width: 370
Flags: W
HStem: 0 75<120.373 182> 250 129<247.734 343.273> 648 20G<144.764 235>
VStem: 27 91<39.2288 191.188> 149 86<582 668> 231 129<266.727 362.267>
DStem2: 7.43043 0 93.2421 0 0.207912 0.978148<125.029 682.837>
LayerCount: 2
Fore
SplineSet
360 315 m 0xf4
 360 278.647709807 331.351153508 250 295 250 c 0
 260.657528971 250 231 277.950942131 231 315 c 0
 231 350.040183714 259.962509211 379 295 379 c 0
 332.047627746 379 360 349.343912001 360 315 c 0xf4
EndSplineSet
Refer: 52 108 N 1 0 0 1 0 0 2
EndChar

